<svg width="276" height="76" viewBox="0 0 276 76" fill="none" xmlns="http://www.w3.org/2000/svg">
<path d="M0.714 9.978C1.89933 9.026 2.828 8.24667 3.5 7.64C4.172 7.024 4.73667 6.38467 5.194 5.722C5.66067 5.05 5.894 4.392 5.894 3.748C5.894 3.14133 5.74467 2.66533 5.446 2.32C5.15667 1.96533 4.68533 1.788 4.032 1.788C3.39733 1.788 2.90267 1.98867 2.548 2.39C2.20267 2.782 2.016 3.30933 1.988 3.972H0.756C0.793333 2.92667 1.11067 2.11933 1.708 1.55C2.30533 0.980666 3.07533 0.695999 4.018 0.695999C4.97933 0.695999 5.74 0.961999 6.3 1.494C6.86933 2.026 7.154 2.75867 7.154 3.692C7.154 4.46667 6.92067 5.22267 6.454 5.96C5.99667 6.688 5.474 7.332 4.886 7.892C4.298 8.44267 3.54667 9.08667 2.632 9.824H7.448V10.888H0.714V9.978ZM8.92073 5.834C8.92073 4.22867 9.18207 2.978 9.70473 2.082C10.2274 1.17667 11.1421 0.724 12.4487 0.724C13.7461 0.724 14.6561 1.17667 15.1787 2.082C15.7014 2.978 15.9627 4.22867 15.9627 5.834C15.9627 7.46733 15.7014 8.73667 15.1787 9.642C14.6561 10.5473 13.7461 11 12.4487 11C11.1421 11 10.2274 10.5473 9.70473 9.642C9.18207 8.73667 8.92073 7.46733 8.92073 5.834ZM14.7027 5.834C14.7027 5.022 14.6467 4.336 14.5347 3.776C14.4321 3.20667 14.2127 2.74933 13.8767 2.404C13.5501 2.05867 13.0741 1.886 12.4487 1.886C11.8141 1.886 11.3287 2.05867 10.9927 2.404C10.6661 2.74933 10.4467 3.20667 10.3347 3.776C10.2321 4.336 10.1807 5.022 10.1807 5.834C10.1807 6.674 10.2321 7.37867 10.3347 7.948C10.4467 8.51733 10.6661 8.97467 10.9927 9.32C11.3287 9.66533 11.8141 9.838 12.4487 9.838C13.0741 9.838 13.5501 9.66533 13.8767 9.32C14.2127 8.97467 14.4321 8.51733 14.5347 7.948C14.6467 7.37867 14.7027 6.674 14.7027 5.834ZM17.3758 2.04V0.877999H20.0078V11H18.7198V2.04H17.3758ZM28.6501 1.984H23.7361V5.176C23.9508 4.87733 24.2681 4.63467 24.6881 4.448C25.1081 4.252 25.5608 4.154 26.0461 4.154C26.8208 4.154 27.4508 4.31733 27.9361 4.644C28.4215 4.96133 28.7668 5.37667 28.9721 5.89C29.1868 6.394 29.2941 6.93067 29.2941 7.5C29.2941 8.172 29.1681 8.774 28.9161 9.306C28.6641 9.838 28.2768 10.258 27.7541 10.566C27.2408 10.874 26.6015 11.028 25.8361 11.028C24.8561 11.028 24.0628 10.776 23.4561 10.272C22.8495 9.768 22.4808 9.096 22.3501 8.256H23.5961C23.7175 8.788 23.9741 9.20333 24.3661 9.502C24.7581 9.80067 25.2528 9.95 25.8501 9.95C26.5875 9.95 27.1428 9.73067 27.5161 9.292C27.8895 8.844 28.0761 8.256 28.0761 7.528C28.0761 6.8 27.8895 6.24 27.5161 5.848C27.1428 5.44667 26.5921 5.246 25.8641 5.246C25.3695 5.246 24.9355 5.36733 24.5621 5.61C24.1981 5.84333 23.9321 6.16533 23.7641 6.576H22.5601V0.863999H28.6501V1.984ZM36.5171 5.33V6.408H30.9311V5.33H36.5171ZM38.5441 9.978C39.7294 9.026 40.6581 8.24667 41.3301 7.64C42.0021 7.024 42.5667 6.38467 43.0241 5.722C43.4907 5.05 43.7241 4.392 43.7241 3.748C43.7241 3.14133 43.5747 2.66533 43.2761 2.32C42.9867 1.96533 42.5154 1.788 41.8621 1.788C41.2274 1.788 40.7327 1.98867 40.3781 2.39C40.0327 2.782 39.8461 3.30933 39.8181 3.972H38.5861C38.6234 2.92667 38.9407 2.11933 39.5381 1.55C40.1354 0.980666 40.9054 0.695999 41.8481 0.695999C42.8094 0.695999 43.5701 0.961999 44.1301 1.494C44.6994 2.026 44.9841 2.75867 44.9841 3.692C44.9841 4.46667 44.7507 5.22267 44.2841 5.96C43.8267 6.688 43.3041 7.332 42.7161 7.892C42.1281 8.44267 41.3767 9.08667 40.4621 9.824H45.2781V10.888H38.5441V9.978ZM46.7508 5.834C46.7508 4.22867 47.0121 2.978 47.5348 2.082C48.0575 1.17667 48.9721 0.724 50.2788 0.724C51.5761 0.724 52.4861 1.17667 53.0088 2.082C53.5315 2.978 53.7928 4.22867 53.7928 5.834C53.7928 7.46733 53.5315 8.73667 53.0088 9.642C52.4861 10.5473 51.5761 11 50.2788 11C48.9721 11 48.0575 10.5473 47.5348 9.642C47.0121 8.73667 46.7508 7.46733 46.7508 5.834ZM52.5328 5.834C52.5328 5.022 52.4768 4.336 52.3648 3.776C52.2621 3.20667 52.0428 2.74933 51.7068 2.404C51.3801 2.05867 50.9041 1.886 50.2788 1.886C49.6441 1.886 49.1588 2.05867 48.8228 2.404C48.4961 2.74933 48.2768 3.20667 48.1648 3.776C48.0621 4.336 48.0108 5.022 48.0108 5.834C48.0108 6.674 48.0621 7.37867 48.1648 7.948C48.2768 8.51733 48.4961 8.97467 48.8228 9.32C49.1588 9.66533 49.6441 9.838 50.2788 9.838C50.9041 9.838 51.3801 9.66533 51.7068 9.32C52.0428 8.97467 52.2621 8.51733 52.3648 7.948C52.4768 7.37867 52.5328 6.674 52.5328 5.834ZM55.2058 2.04V0.877999H57.8378V11H56.5498V2.04H55.2058ZM66.2562 1.872L62.3642 11H61.0762L65.0242 1.998H59.6202V0.906H66.2562V1.872ZM188.598 29.848L185.366 41H183.734L181.142 32.024L178.454 41L176.838 41.016L173.718 29.848H175.27L177.702 39.304L180.39 29.848H182.022L184.582 39.272L187.03 29.848H188.598ZM198.191 36.28C198.191 36.5573 198.175 36.8507 198.143 37.16H191.135C191.188 38.024 191.482 38.7013 192.015 39.192C192.559 39.672 193.215 39.912 193.983 39.912C194.612 39.912 195.135 39.768 195.551 39.48C195.978 39.1813 196.276 38.7867 196.447 38.296H198.015C197.78 39.1387 197.311 39.8267 196.607 40.36C195.903 40.8827 195.028 41.144 193.983 41.144C193.151 41.144 192.404 40.9573 191.743 40.584C191.092 40.2107 190.58 39.6827 190.207 39C189.834 38.3067 189.647 37.5067 189.647 36.6C189.647 35.6933 189.828 34.8987 190.191 34.216C190.554 33.5333 191.06 33.0107 191.711 32.648C192.372 32.2747 193.13 32.088 193.983 32.088C194.815 32.088 195.551 32.2693 196.191 32.632C196.831 32.9947 197.322 33.496 197.663 34.136C198.015 34.7653 198.191 35.48 198.191 36.28ZM196.687 35.976C196.687 35.4213 196.564 34.9467 196.319 34.552C196.074 34.1467 195.738 33.8427 195.311 33.64C194.895 33.4267 194.431 33.32 193.919 33.32C193.183 33.32 192.554 33.5547 192.031 34.024C191.519 34.4933 191.226 35.144 191.151 35.976H196.687ZM201.569 33.864C201.868 33.3413 202.305 32.9147 202.881 32.584C203.457 32.2533 204.113 32.088 204.849 32.088C205.638 32.088 206.348 32.2747 206.977 32.648C207.606 33.0213 208.102 33.5493 208.465 34.232C208.828 34.904 209.009 35.688 209.009 36.584C209.009 37.4693 208.828 38.2587 208.465 38.952C208.102 39.6453 207.601 40.184 206.961 40.568C206.332 40.952 205.628 41.144 204.849 41.144C204.092 41.144 203.425 40.9787 202.849 40.648C202.284 40.3173 201.857 39.896 201.569 39.384V41H200.113V29.16H201.569V33.864ZM207.521 36.584C207.521 35.9227 207.388 35.3467 207.121 34.856C206.854 34.3653 206.492 33.992 206.033 33.736C205.585 33.48 205.089 33.352 204.545 33.352C204.012 33.352 203.516 33.4853 203.057 33.752C202.609 34.008 202.246 34.3867 201.969 34.888C201.702 35.3787 201.569 35.9493 201.569 36.6C201.569 37.2613 201.702 37.8427 201.969 38.344C202.246 38.8347 202.609 39.2133 203.057 39.48C203.516 39.736 204.012 39.864 204.545 39.864C205.089 39.864 205.585 39.736 206.033 39.48C206.492 39.2133 206.854 38.8347 207.121 38.344C207.388 37.8427 207.521 37.256 207.521 36.584ZM223.639 33.08C223.33 32.4293 222.882 31.928 222.295 31.576C221.708 31.2133 221.026 31.032 220.247 31.032C219.468 31.032 218.764 31.2133 218.135 31.576C217.516 31.928 217.026 32.44 216.663 33.112C216.311 33.7733 216.135 34.5413 216.135 35.416C216.135 36.2907 216.311 37.0587 216.663 37.72C217.026 38.3813 217.516 38.8933 218.135 39.256C218.764 39.608 219.468 39.784 220.247 39.784C221.335 39.784 222.231 39.4587 222.935 38.808C223.639 38.1573 224.05 37.2773 224.167 36.168H219.719V34.984H225.719V36.104C225.634 37.0213 225.346 37.864 224.855 38.632C224.364 39.3893 223.719 39.992 222.919 40.44C222.119 40.8773 221.228 41.096 220.247 41.096C219.212 41.096 218.268 40.856 217.415 40.376C216.562 39.8853 215.884 39.208 215.383 38.344C214.892 37.48 214.647 36.504 214.647 35.416C214.647 34.328 214.892 33.352 215.383 32.488C215.884 31.6133 216.562 30.936 217.415 30.456C218.268 29.9653 219.212 29.72 220.247 29.72C221.431 29.72 222.476 30.0133 223.383 30.6C224.3 31.1867 224.967 32.0133 225.383 33.08H223.639ZM229.1 33.656C229.356 33.1547 229.719 32.7653 230.188 32.488C230.668 32.2107 231.249 32.072 231.932 32.072V33.576H231.548C229.916 33.576 229.1 34.4613 229.1 36.232V41H227.644V32.232H229.1V33.656ZM233.069 36.584C233.069 35.688 233.25 34.904 233.613 34.232C233.976 33.5493 234.472 33.0213 235.101 32.648C235.741 32.2747 236.45 32.088 237.229 32.088C237.997 32.088 238.664 32.2533 239.229 32.584C239.794 32.9147 240.216 33.3307 240.493 33.832V32.232H241.965V41H240.493V39.368C240.205 39.88 239.773 40.3067 239.197 40.648C238.632 40.9787 237.97 41.144 237.213 41.144C236.434 41.144 235.73 40.952 235.101 40.568C234.472 40.184 233.976 39.6453 233.613 38.952C233.25 38.2587 233.069 37.4693 233.069 36.584ZM240.493 36.6C240.493 35.9387 240.36 35.3627 240.093 34.872C239.826 34.3813 239.464 34.008 239.005 33.752C238.557 33.4853 238.061 33.352 237.517 33.352C236.973 33.352 236.477 33.48 236.029 33.736C235.581 33.992 235.224 34.3653 234.957 34.856C234.69 35.3467 234.557 35.9227 234.557 36.584C234.557 37.256 234.69 37.8427 234.957 38.344C235.224 38.8347 235.581 39.2133 236.029 39.48C236.477 39.736 236.973 39.864 237.517 39.864C238.061 39.864 238.557 39.736 239.005 39.48C239.464 39.2133 239.826 38.8347 240.093 38.344C240.36 37.8427 240.493 37.2613 240.493 36.6ZM245.881 33.848C246.169 33.3467 246.596 32.9307 247.161 32.6C247.737 32.2587 248.404 32.088 249.161 32.088C249.94 32.088 250.644 32.2747 251.273 32.648C251.913 33.0213 252.415 33.5493 252.777 34.232C253.14 34.904 253.321 35.688 253.321 36.584C253.321 37.4693 253.14 38.2587 252.777 38.952C252.415 39.6453 251.913 40.184 251.273 40.568C250.644 40.952 249.94 41.144 249.161 41.144C248.415 41.144 247.753 40.9787 247.177 40.648C246.612 40.3067 246.18 39.8853 245.881 39.384V45.16H244.425V32.232H245.881V33.848ZM251.833 36.584C251.833 35.9227 251.7 35.3467 251.433 34.856C251.167 34.3653 250.804 33.992 250.345 33.736C249.897 33.48 249.401 33.352 248.857 33.352C248.324 33.352 247.828 33.4853 247.369 33.752C246.921 34.008 246.559 34.3867 246.281 34.888C246.015 35.3787 245.881 35.9493 245.881 36.6C245.881 37.2613 246.015 37.8427 246.281 38.344C246.559 38.8347 246.921 39.2133 247.369 39.48C247.828 39.736 248.324 39.864 248.857 39.864C249.401 39.864 249.897 39.736 250.345 39.48C250.804 39.2133 251.167 38.8347 251.433 38.344C251.7 37.8427 251.833 37.256 251.833 36.584ZM259.59 32.072C260.251 32.072 260.849 32.216 261.382 32.504C261.915 32.7813 262.331 33.2027 262.63 33.768C262.939 34.3333 263.094 35.0213 263.094 35.832V41H261.654V36.04C261.654 35.1653 261.435 34.4987 260.998 34.04C260.561 33.5707 259.963 33.336 259.206 33.336C258.438 33.336 257.825 33.576 257.366 34.056C256.918 34.536 256.694 35.2347 256.694 36.152V41H255.238V29.16H256.694V33.48C256.982 33.032 257.377 32.6853 257.878 32.44C258.39 32.1947 258.961 32.072 259.59 32.072ZM273.024 32.232L267.744 45.128H266.24L267.968 40.904L264.432 32.232H266.048L268.8 39.336L271.52 32.232H273.024ZM275.992 38.984L274.2 43.288H273.224L274.392 38.984H275.992ZM2.688 69.816H6.592V71H1.232V59.848H2.688V69.816ZM11.9623 71.144C11.1409 71.144 10.3943 70.9573 9.72225 70.584C9.06092 70.2107 8.53825 69.6827 8.15425 69C7.78092 68.3067 7.59425 67.5067 7.59425 66.6C7.59425 65.704 7.78625 64.9147 8.17025 64.232C8.56492 63.5387 9.09825 63.0107 9.77025 62.648C10.4423 62.2747 11.1943 62.088 12.0263 62.088C12.8583 62.088 13.6103 62.2747 14.2823 62.648C14.9543 63.0107 15.4823 63.5333 15.8663 64.216C16.2609 64.8987 16.4583 65.6933 16.4583 66.6C16.4583 67.5067 16.2556 68.3067 15.8503 69C15.4556 69.6827 14.9169 70.2107 14.2343 70.584C13.5516 70.9573 12.7943 71.144 11.9623 71.144ZM11.9623 69.864C12.4849 69.864 12.9756 69.7413 13.4343 69.496C13.8929 69.2507 14.2609 68.8827 14.5383 68.392C14.8263 67.9013 14.9703 67.304 14.9703 66.6C14.9703 65.896 14.8316 65.2987 14.5543 64.808C14.2769 64.3173 13.9143 63.9547 13.4663 63.72C13.0183 63.4747 12.5329 63.352 12.0103 63.352C11.4769 63.352 10.9863 63.4747 10.5383 63.72C10.1009 63.9547 9.74892 64.3173 9.48225 64.808C9.21558 65.2987 9.08225 65.896 9.08225 66.6C9.08225 67.3147 9.21025 67.9173 9.46625 68.408C9.73292 68.8987 10.0849 69.2667 10.5223 69.512C10.9596 69.7467 11.4396 69.864 11.9623 69.864ZM21.4766 71.144C20.8046 71.144 20.202 71.032 19.6686 70.808C19.1353 70.5733 18.714 70.2533 18.4046 69.848C18.0953 69.432 17.9246 68.9573 17.8926 68.424H19.3966C19.4393 68.8613 19.642 69.2187 20.0046 69.496C20.378 69.7733 20.8633 69.912 21.4606 69.912C22.0153 69.912 22.4526 69.7893 22.7726 69.544C23.0926 69.2987 23.2526 68.9893 23.2526 68.616C23.2526 68.232 23.082 67.9493 22.7406 67.768C22.3993 67.576 21.8713 67.3893 21.1566 67.208C20.506 67.0373 19.9726 66.8667 19.5566 66.696C19.1513 66.5147 18.7993 66.2533 18.5006 65.912C18.2126 65.56 18.0686 65.1013 18.0686 64.536C18.0686 64.088 18.202 63.6773 18.4686 63.304C18.7353 62.9307 19.114 62.6373 19.6046 62.424C20.0953 62.2 20.6553 62.088 21.2846 62.088C22.2553 62.088 23.0393 62.3333 23.6366 62.824C24.234 63.3147 24.554 63.9867 24.5966 64.84H23.1406C23.1086 64.3813 22.922 64.0133 22.5806 63.736C22.25 63.4587 21.802 63.32 21.2366 63.32C20.714 63.32 20.298 63.432 19.9886 63.656C19.6793 63.88 19.5246 64.1733 19.5246 64.536C19.5246 64.824 19.6153 65.064 19.7966 65.256C19.9886 65.4373 20.2233 65.5867 20.5006 65.704C20.7886 65.8107 21.1833 65.9333 21.6846 66.072C22.314 66.2427 22.826 66.4133 23.2206 66.584C23.6153 66.744 23.9513 66.9893 24.2286 67.32C24.5166 67.6507 24.666 68.0827 24.6766 68.616C24.6766 69.096 24.5433 69.528 24.2766 69.912C24.01 70.296 23.6313 70.6 23.1406 70.824C22.6606 71.0373 22.106 71.144 21.4766 71.144ZM37.5896 68.52H32.7256L31.8296 71H30.2936L34.3256 59.912H36.0056L40.0216 71H38.4856L37.5896 68.52ZM37.1736 67.336L35.1576 61.704L33.1416 67.336H37.1736ZM46.0509 62.072C47.1175 62.072 47.9815 62.3973 48.6429 63.048C49.3042 63.688 49.6349 64.616 49.6349 65.832V71H48.1949V66.04C48.1949 65.1653 47.9762 64.4987 47.5389 64.04C47.1015 63.5707 46.5042 63.336 45.7469 63.336C44.9789 63.336 44.3655 63.576 43.9069 64.056C43.4589 64.536 43.2349 65.2347 43.2349 66.152V71H41.7789V62.232H43.2349V63.48C43.5229 63.032 43.9122 62.6853 44.4029 62.44C44.9042 62.1947 45.4535 62.072 46.0509 62.072ZM55.6293 62.088C56.3866 62.088 57.0479 62.2533 57.6133 62.584C58.1893 62.9147 58.6159 63.3307 58.8933 63.832V62.232H60.3653V71.192C60.3653 71.992 60.1946 72.7013 59.8533 73.32C59.5119 73.9493 59.0213 74.44 58.3813 74.792C57.7519 75.144 57.0159 75.32 56.1733 75.32C55.0213 75.32 54.0613 75.048 53.2933 74.504C52.5253 73.96 52.0719 73.2187 51.9333 72.28H53.3733C53.5333 72.8133 53.8639 73.24 54.3653 73.56C54.8666 73.8907 55.4693 74.056 56.1733 74.056C56.9733 74.056 57.6239 73.8053 58.1253 73.304C58.6373 72.8027 58.8933 72.0987 58.8933 71.192V69.352C58.6053 69.864 58.1786 70.2907 57.6133 70.632C57.0479 70.9733 56.3866 71.144 55.6293 71.144C54.8506 71.144 54.1413 70.952 53.5013 70.568C52.8719 70.184 52.3759 69.6453 52.0133 68.952C51.6506 68.2587 51.4693 67.4693 51.4693 66.584C51.4693 65.688 51.6506 64.904 52.0133 64.232C52.3759 63.5493 52.8719 63.0213 53.5013 62.648C54.1413 62.2747 54.8506 62.088 55.6293 62.088ZM58.8933 66.6C58.8933 65.9387 58.7599 65.3627 58.4933 64.872C58.2266 64.3813 57.8639 64.008 57.4053 63.752C56.9573 63.4853 56.4613 63.352 55.9173 63.352C55.3733 63.352 54.8773 63.48 54.4293 63.736C53.9813 63.992 53.6239 64.3653 53.3573 64.856C53.0906 65.3467 52.9573 65.9227 52.9573 66.584C52.9573 67.256 53.0906 67.8427 53.3573 68.344C53.6239 68.8347 53.9813 69.2133 54.4293 69.48C54.8773 69.736 55.3733 69.864 55.9173 69.864C56.4613 69.864 56.9573 69.736 57.4053 69.48C57.8639 69.2133 58.2266 68.8347 58.4933 68.344C58.7599 67.8427 58.8933 67.2613 58.8933 66.6ZM70.8258 66.28C70.8258 66.5573 70.8098 66.8507 70.7778 67.16H63.7698C63.8231 68.024 64.1164 68.7013 64.6498 69.192C65.1938 69.672 65.8498 69.912 66.6178 69.912C67.2471 69.912 67.7698 69.768 68.1858 69.48C68.6124 69.1813 68.9111 68.7867 69.0818 68.296H70.6498C70.4151 69.1387 69.9458 69.8267 69.2418 70.36C68.5378 70.8827 67.6631 71.144 66.6178 71.144C65.7858 71.144 65.0391 70.9573 64.3778 70.584C63.7271 70.2107 63.2151 69.6827 62.8418 69C62.4684 68.3067 62.2818 67.5067 62.2818 66.6C62.2818 65.6933 62.4631 64.8987 62.8258 64.216C63.1884 63.5333 63.6951 63.0107 64.3458 62.648C65.0071 62.2747 65.7644 62.088 66.6178 62.088C67.4498 62.088 68.1858 62.2693 68.8258 62.632C69.4658 62.9947 69.9564 63.496 70.2978 64.136C70.6498 64.7653 70.8258 65.48 70.8258 66.28ZM69.3218 65.976C69.3218 65.4213 69.1991 64.9467 68.9538 64.552C68.7084 64.1467 68.3724 63.8427 67.9458 63.64C67.5298 63.4267 67.0658 63.32 66.5538 63.32C65.8178 63.32 65.1884 63.5547 64.6658 64.024C64.1538 64.4933 63.8604 65.144 63.7858 65.976H69.3218ZM74.2036 59.16V71H72.7476V59.16H74.2036ZM84.6851 66.28C84.6851 66.5573 84.6691 66.8507 84.6371 67.16H77.6291C77.6825 68.024 77.9758 68.7013 78.5091 69.192C79.0531 69.672 79.7091 69.912 80.4771 69.912C81.1065 69.912 81.6291 69.768 82.0451 69.48C82.4718 69.1813 82.7705 68.7867 82.9411 68.296H84.5091C84.2745 69.1387 83.8051 69.8267 83.1011 70.36C82.3971 70.8827 81.5225 71.144 80.4771 71.144C79.6451 71.144 78.8985 70.9573 78.2371 70.584C77.5865 70.2107 77.0745 69.6827 76.7011 69C76.3278 68.3067 76.1411 67.5067 76.1411 66.6C76.1411 65.6933 76.3225 64.8987 76.6851 64.216C77.0478 63.5333 77.5545 63.0107 78.2051 62.648C78.8665 62.2747 79.6238 62.088 80.4771 62.088C81.3091 62.088 82.0451 62.2693 82.6851 62.632C83.3251 62.9947 83.8158 63.496 84.1571 64.136C84.5091 64.7653 84.6851 65.48 84.6851 66.28ZM83.1811 65.976C83.1811 65.4213 83.0585 64.9467 82.8131 64.552C82.5678 64.1467 82.2318 63.8427 81.8051 63.64C81.3891 63.4267 80.9251 63.32 80.4131 63.32C79.6771 63.32 79.0478 63.5547 78.5251 64.024C78.0131 64.4933 77.7198 65.144 77.6451 65.976H83.1811ZM89.711 71.144C89.039 71.144 88.4363 71.032 87.903 70.808C87.3697 70.5733 86.9483 70.2533 86.639 69.848C86.3297 69.432 86.159 68.9573 86.127 68.424H87.631C87.6737 68.8613 87.8763 69.2187 88.239 69.496C88.6123 69.7733 89.0977 69.912 89.695 69.912C90.2497 69.912 90.687 69.7893 91.007 69.544C91.327 69.2987 91.487 68.9893 91.487 68.616C91.487 68.232 91.3163 67.9493 90.975 67.768C90.6337 67.576 90.1057 67.3893 89.391 67.208C88.7403 67.0373 88.207 66.8667 87.791 66.696C87.3857 66.5147 87.0337 66.2533 86.735 65.912C86.447 65.56 86.303 65.1013 86.303 64.536C86.303 64.088 86.4363 63.6773 86.703 63.304C86.9697 62.9307 87.3483 62.6373 87.839 62.424C88.3297 62.2 88.8897 62.088 89.519 62.088C90.4897 62.088 91.2737 62.3333 91.871 62.824C92.4683 63.3147 92.7883 63.9867 92.831 64.84H91.375C91.343 64.3813 91.1563 64.0133 90.815 63.736C90.4843 63.4587 90.0363 63.32 89.471 63.32C88.9483 63.32 88.5323 63.432 88.223 63.656C87.9137 63.88 87.759 64.1733 87.759 64.536C87.759 64.824 87.8497 65.064 88.031 65.256C88.223 65.4373 88.4577 65.5867 88.735 65.704C89.023 65.8107 89.4177 65.9333 89.919 66.072C90.5483 66.2427 91.0603 66.4133 91.455 66.584C91.8497 66.744 92.1857 66.9893 92.463 67.32C92.751 67.6507 92.9003 68.0827 92.911 68.616C92.911 69.096 92.7777 69.528 92.511 69.912C92.2443 70.296 91.8657 70.6 91.375 70.824C90.895 71.0373 90.3403 71.144 89.711 71.144ZM96.4704 68.984L94.6784 73.288H93.7024L94.8704 68.984H96.4704ZM101.86 65.416C101.86 64.328 102.105 63.352 102.596 62.488C103.087 61.6133 103.753 60.9307 104.596 60.44C105.449 59.9493 106.393 59.704 107.428 59.704C108.644 59.704 109.705 59.9973 110.612 60.584C111.519 61.1707 112.18 62.0027 112.596 63.08H110.852C110.543 62.408 110.095 61.8907 109.508 61.528C108.932 61.1653 108.239 60.984 107.428 60.984C106.649 60.984 105.951 61.1653 105.332 61.528C104.713 61.8907 104.228 62.408 103.876 63.08C103.524 63.7413 103.348 64.52 103.348 65.416C103.348 66.3013 103.524 67.08 103.876 67.752C104.228 68.4133 104.713 68.9253 105.332 69.288C105.951 69.6507 106.649 69.832 107.428 69.832C108.239 69.832 108.932 69.656 109.508 69.304C110.095 68.9413 110.543 68.424 110.852 67.752H112.596C112.18 68.8187 111.519 69.6453 110.612 70.232C109.705 70.808 108.644 71.096 107.428 71.096C106.393 71.096 105.449 70.856 104.596 70.376C103.753 69.8853 103.087 69.208 102.596 68.344C102.105 67.48 101.86 66.504 101.86 65.416ZM121.355 68.52H116.491L115.595 71H114.059L118.091 59.912H119.771L123.787 71H122.251L121.355 68.52ZM120.939 67.336L118.923 61.704L116.907 67.336H120.939Z" fill="#44566C"/>
<path d="M10.89 32.09C10.542 31.358 10.038 30.794 9.378 30.398C8.718 29.99 7.95 29.786 7.074 29.786C6.198 29.786 5.406 29.99 4.698 30.398C4.002 30.794 3.45 31.37 3.042 32.126C2.646 32.87 2.448 33.734 2.448 34.718C2.448 35.702 2.646 36.566 3.042 37.31C3.45 38.054 4.002 38.63 4.698 39.038C5.406 39.434 6.198 39.632 7.074 39.632C8.298 39.632 9.306 39.266 10.098 38.534C10.89 37.802 11.352 36.812 11.484 35.564H6.48V34.232H13.23V35.492C13.134 36.524 12.81 37.472 12.258 38.336C11.706 39.188 10.98 39.866 10.08 40.37C9.18 40.862 8.178 41.108 7.074 41.108C5.91 41.108 4.848 40.838 3.888 40.298C2.928 39.746 2.166 38.984 1.602 38.012C1.05 37.04 0.774 35.942 0.774 34.718C0.774 33.494 1.05 32.396 1.602 31.424C2.166 30.44 2.928 29.678 3.888 29.138C4.848 28.586 5.91 28.31 7.074 28.31C8.406 28.31 9.582 28.64 10.602 29.3C11.634 29.96 12.384 30.89 12.852 32.09H10.89ZM17.0338 32.738C17.3218 32.174 17.7298 31.736 18.2578 31.424C18.7978 31.112 19.4518 30.956 20.2198 30.956V32.648H19.7878C17.9518 32.648 17.0338 33.644 17.0338 35.636V41H15.3958V31.136H17.0338V32.738ZM21.4986 36.032C21.4986 35.024 21.7026 34.142 22.1106 33.386C22.5186 32.618 23.0766 32.024 23.7846 31.604C24.5046 31.184 25.3026 30.974 26.1786 30.974C27.0426 30.974 27.7926 31.16 28.4286 31.532C29.0646 31.904 29.5386 32.372 29.8506 32.936V31.136H31.5066V41H29.8506V39.164C29.5266 39.74 29.0406 40.22 28.3926 40.604C27.7566 40.976 27.0126 41.162 26.1606 41.162C25.2846 41.162 24.4926 40.946 23.7846 40.514C23.0766 40.082 22.5186 39.476 22.1106 38.696C21.7026 37.916 21.4986 37.028 21.4986 36.032ZM29.8506 36.05C29.8506 35.306 29.7006 34.658 29.4006 34.106C29.1006 33.554 28.6926 33.134 28.1766 32.846C27.6726 32.546 27.1146 32.396 26.5026 32.396C25.8906 32.396 25.3326 32.54 24.8286 32.828C24.3246 33.116 23.9226 33.536 23.6226 34.088C23.3226 34.64 23.1726 35.288 23.1726 36.032C23.1726 36.788 23.3226 37.448 23.6226 38.012C23.9226 38.564 24.3246 38.99 24.8286 39.29C25.3326 39.578 25.8906 39.722 26.5026 39.722C27.1146 39.722 27.6726 39.578 28.1766 39.29C28.6926 38.99 29.1006 38.564 29.4006 38.012C29.7006 37.448 29.8506 36.794 29.8506 36.05ZM35.9127 32.954C36.2367 32.39 36.7167 31.922 37.3527 31.55C38.0007 31.166 38.7507 30.974 39.6027 30.974C40.4787 30.974 41.2707 31.184 41.9787 31.604C42.6987 32.024 43.2627 32.618 43.6707 33.386C44.0787 34.142 44.2827 35.024 44.2827 36.032C44.2827 37.028 44.0787 37.916 43.6707 38.696C43.2627 39.476 42.6987 40.082 41.9787 40.514C41.2707 40.946 40.4787 41.162 39.6027 41.162C38.7627 41.162 38.0187 40.976 37.3707 40.604C36.7347 40.22 36.2487 39.746 35.9127 39.182V45.68H34.2747V31.136H35.9127V32.954ZM42.6087 36.032C42.6087 35.288 42.4587 34.64 42.1587 34.088C41.8587 33.536 41.4507 33.116 40.9347 32.828C40.4307 32.54 39.8727 32.396 39.2607 32.396C38.6607 32.396 38.1027 32.546 37.5867 32.846C37.0827 33.134 36.6747 33.56 36.3627 34.124C36.0627 34.676 35.9127 35.318 35.9127 36.05C35.9127 36.794 36.0627 37.448 36.3627 38.012C36.6747 38.564 37.0827 38.99 37.5867 39.29C38.1027 39.578 38.6607 39.722 39.2607 39.722C39.8727 39.722 40.4307 39.578 40.9347 39.29C41.4507 38.99 41.8587 38.564 42.1587 38.012C42.4587 37.448 42.6087 36.788 42.6087 36.032ZM51.3347 30.956C52.0787 30.956 52.7507 31.118 53.3507 31.442C53.9507 31.754 54.4187 32.228 54.7547 32.864C55.1027 33.5 55.2767 34.274 55.2767 35.186V41H53.6567V35.42C53.6567 34.436 53.4107 33.686 52.9187 33.17C52.4267 32.642 51.7547 32.378 50.9027 32.378C50.0387 32.378 49.3487 32.648 48.8327 33.188C48.3287 33.728 48.0767 34.514 48.0767 35.546V41H46.4387V27.68H48.0767V32.54C48.4007 32.036 48.8447 31.646 49.4087 31.37C49.9847 31.094 50.6267 30.956 51.3347 30.956ZM58.7984 29.534C58.4864 29.534 58.2224 29.426 58.0064 29.21C57.7904 28.994 57.6824 28.73 57.6824 28.418C57.6824 28.106 57.7904 27.842 58.0064 27.626C58.2224 27.41 58.4864 27.302 58.7984 27.302C59.0984 27.302 59.3504 27.41 59.5544 27.626C59.7704 27.842 59.8784 28.106 59.8784 28.418C59.8784 28.73 59.7704 28.994 59.5544 29.21C59.3504 29.426 59.0984 29.534 58.7984 29.534ZM59.5904 31.136V41H57.9524V31.136H59.5904ZM61.7701 36.05C61.7701 35.03 61.9741 34.142 62.3821 33.386C62.7901 32.618 63.3541 32.024 64.0741 31.604C64.8061 31.184 65.6401 30.974 66.5761 30.974C67.7881 30.974 68.7841 31.268 69.5641 31.856C70.3561 32.444 70.8781 33.26 71.1301 34.304H69.3661C69.1981 33.704 68.8681 33.23 68.3761 32.882C67.8961 32.534 67.2961 32.36 66.5761 32.36C65.6401 32.36 64.8841 32.684 64.3081 33.332C63.7321 33.968 63.4441 34.874 63.4441 36.05C63.4441 37.238 63.7321 38.156 64.3081 38.804C64.8841 39.452 65.6401 39.776 66.5761 39.776C67.2961 39.776 67.8961 39.608 68.3761 39.272C68.8561 38.936 69.1861 38.456 69.3661 37.832H71.1301C70.8661 38.84 70.3381 39.65 69.5461 40.262C68.7541 40.862 67.7641 41.162 66.5761 41.162C65.6401 41.162 64.8061 40.952 64.0741 40.532C63.3541 40.112 62.7901 39.518 62.3821 38.75C61.9741 37.982 61.7701 37.082 61.7701 36.05ZM82.0205 28.454C83.3885 28.454 84.5705 28.712 85.5665 29.228C86.5745 29.732 87.3425 30.458 87.8705 31.406C88.4105 32.354 88.6805 33.47 88.6805 34.754C88.6805 36.038 88.4105 37.154 87.8705 38.102C87.3425 39.038 86.5745 39.758 85.5665 40.262C84.5705 40.754 83.3885 41 82.0205 41H78.1145V28.454H82.0205ZM82.0205 39.65C83.6405 39.65 84.8765 39.224 85.7285 38.372C86.5805 37.508 87.0065 36.302 87.0065 34.754C87.0065 33.194 86.5745 31.976 85.7105 31.1C84.8585 30.224 83.6285 29.786 82.0205 29.786H79.7525V39.65H82.0205ZM99.8411 35.69C99.8411 36.002 99.8231 36.332 99.7871 36.68H91.9031C91.9631 37.652 92.2931 38.414 92.8931 38.966C93.5051 39.506 94.2431 39.776 95.1071 39.776C95.8151 39.776 96.4031 39.614 96.8711 39.29C97.3511 38.954 97.6871 38.51 97.8791 37.958H99.6431C99.3791 38.906 98.8511 39.68 98.0591 40.28C97.2671 40.868 96.2831 41.162 95.1071 41.162C94.1711 41.162 93.3311 40.952 92.5871 40.532C91.8551 40.112 91.2791 39.518 90.8591 38.75C90.4391 37.97 90.2291 37.07 90.2291 36.05C90.2291 35.03 90.4331 34.136 90.8411 33.368C91.2491 32.6 91.8191 32.012 92.5511 31.604C93.2951 31.184 94.1471 30.974 95.1071 30.974C96.0431 30.974 96.8711 31.178 97.5911 31.586C98.3111 31.994 98.8631 32.558 99.2471 33.278C99.6431 33.986 99.8411 34.79 99.8411 35.69ZM98.1491 35.348C98.1491 34.724 98.0111 34.19 97.7351 33.746C97.4591 33.29 97.0811 32.948 96.6011 32.72C96.1331 32.48 95.6111 32.36 95.0351 32.36C94.2071 32.36 93.4991 32.624 92.9111 33.152C92.3351 33.68 92.0051 34.412 91.9211 35.348H98.1491ZM105.495 41.162C104.739 41.162 104.061 41.036 103.461 40.784C102.861 40.52 102.387 40.16 102.039 39.704C101.691 39.236 101.499 38.702 101.463 38.102H103.155C103.203 38.594 103.431 38.996 103.839 39.308C104.259 39.62 104.805 39.776 105.477 39.776C106.101 39.776 106.593 39.638 106.953 39.362C107.313 39.086 107.493 38.738 107.493 38.318C107.493 37.886 107.301 37.568 106.917 37.364C106.533 37.148 105.939 36.938 105.135 36.734C104.403 36.542 103.803 36.35 103.335 36.158C102.879 35.954 102.483 35.66 102.147 35.276C101.823 34.88 101.661 34.364 101.661 33.728C101.661 33.224 101.811 32.762 102.111 32.342C102.411 31.922 102.837 31.592 103.389 31.352C103.941 31.1 104.571 30.974 105.279 30.974C106.371 30.974 107.253 31.25 107.925 31.802C108.597 32.354 108.957 33.11 109.005 34.07H107.367C107.331 33.554 107.121 33.14 106.737 32.828C106.365 32.516 105.861 32.36 105.225 32.36C104.637 32.36 104.169 32.486 103.821 32.738C103.473 32.99 103.299 33.32 103.299 33.728C103.299 34.052 103.401 34.322 103.605 34.538C103.821 34.742 104.085 34.91 104.397 35.042C104.721 35.162 105.165 35.3 105.729 35.456C106.437 35.648 107.013 35.84 107.457 36.032C107.901 36.212 108.279 36.488 108.591 36.86C108.915 37.232 109.083 37.718 109.095 38.318C109.095 38.858 108.945 39.344 108.645 39.776C108.345 40.208 107.919 40.55 107.367 40.802C106.827 41.042 106.203 41.162 105.495 41.162ZM112.253 29.534C111.941 29.534 111.677 29.426 111.461 29.21C111.245 28.994 111.137 28.73 111.137 28.418C111.137 28.106 111.245 27.842 111.461 27.626C111.677 27.41 111.941 27.302 112.253 27.302C112.553 27.302 112.805 27.41 113.009 27.626C113.225 27.842 113.333 28.106 113.333 28.418C113.333 28.73 113.225 28.994 113.009 29.21C112.805 29.426 112.553 29.534 112.253 29.534ZM113.045 31.136V41H111.407V31.136H113.045ZM119.905 30.974C120.757 30.974 121.501 31.16 122.137 31.532C122.785 31.904 123.265 32.372 123.577 32.936V31.136H125.233V41.216C125.233 42.116 125.041 42.914 124.657 43.61C124.273 44.318 123.721 44.87 123.001 45.266C122.293 45.662 121.465 45.86 120.517 45.86C119.221 45.86 118.141 45.554 117.277 44.942C116.413 44.33 115.903 43.496 115.747 42.44H117.367C117.547 43.04 117.919 43.52 118.483 43.88C119.047 44.252 119.725 44.438 120.517 44.438C121.417 44.438 122.149 44.156 122.713 43.592C123.289 43.028 123.577 42.236 123.577 41.216V39.146C123.253 39.722 122.773 40.202 122.137 40.586C121.501 40.97 120.757 41.162 119.905 41.162C119.029 41.162 118.231 40.946 117.511 40.514C116.803 40.082 116.245 39.476 115.837 38.696C115.429 37.916 115.225 37.028 115.225 36.032C115.225 35.024 115.429 34.142 115.837 33.386C116.245 32.618 116.803 32.024 117.511 31.604C118.231 31.184 119.029 30.974 119.905 30.974ZM123.577 36.05C123.577 35.306 123.427 34.658 123.127 34.106C122.827 33.554 122.419 33.134 121.903 32.846C121.399 32.546 120.841 32.396 120.229 32.396C119.617 32.396 119.059 32.54 118.555 32.828C118.051 33.116 117.649 33.536 117.349 34.088C117.049 34.64 116.899 35.288 116.899 36.032C116.899 36.788 117.049 37.448 117.349 38.012C117.649 38.564 118.051 38.99 118.555 39.29C119.059 39.578 119.617 39.722 120.229 39.722C120.841 39.722 121.399 39.578 121.903 39.29C122.419 38.99 122.827 38.564 123.127 38.012C123.427 37.448 123.577 36.794 123.577 36.05ZM132.807 30.956C134.007 30.956 134.979 31.322 135.723 32.054C136.467 32.774 136.839 33.818 136.839 35.186V41H135.219V35.42C135.219 34.436 134.973 33.686 134.481 33.17C133.989 32.642 133.317 32.378 132.465 32.378C131.601 32.378 130.911 32.648 130.395 33.188C129.891 33.728 129.639 34.514 129.639 35.546V41H128.001V31.136H129.639V32.54C129.963 32.036 130.401 31.646 130.953 31.37C131.517 31.094 132.135 30.956 132.807 30.956ZM148.515 35.69C148.515 36.002 148.497 36.332 148.461 36.68H140.577C140.637 37.652 140.967 38.414 141.567 38.966C142.179 39.506 142.917 39.776 143.781 39.776C144.489 39.776 145.077 39.614 145.545 39.29C146.025 38.954 146.361 38.51 146.553 37.958H148.317C148.053 38.906 147.525 39.68 146.733 40.28C145.941 40.868 144.957 41.162 143.781 41.162C142.845 41.162 142.005 40.952 141.261 40.532C140.529 40.112 139.953 39.518 139.533 38.75C139.113 37.97 138.903 37.07 138.903 36.05C138.903 35.03 139.107 34.136 139.515 33.368C139.923 32.6 140.493 32.012 141.225 31.604C141.969 31.184 142.821 30.974 143.781 30.974C144.717 30.974 145.545 31.178 146.265 31.586C146.985 31.994 147.537 32.558 147.921 33.278C148.317 33.986 148.515 34.79 148.515 35.69ZM146.823 35.348C146.823 34.724 146.685 34.19 146.409 33.746C146.133 33.29 145.755 32.948 145.275 32.72C144.807 32.48 144.285 32.36 143.709 32.36C142.881 32.36 142.173 32.624 141.585 33.152C141.009 33.68 140.679 34.412 140.595 35.348H146.823ZM152.315 32.738C152.603 32.174 153.011 31.736 153.539 31.424C154.079 31.112 154.733 30.956 155.501 30.956V32.648H155.069C153.233 32.648 152.315 33.644 152.315 35.636V41H150.677V31.136H152.315V32.738ZM167.583 34.52V35.752H161.199V34.52H167.583Z" fill="#0F172A"/>
</svg>
