<svg width="166" height="72" viewBox="0 0 166 72" fill="none" xmlns="http://www.w3.org/2000/svg">
<path d="M0.714 9.978C1.89933 9.026 2.828 8.24667 3.5 7.64C4.172 7.024 4.73667 6.38467 5.194 5.722C5.66067 5.05 5.894 4.392 5.894 3.748C5.894 3.14133 5.74467 2.66533 5.446 2.32C5.15667 1.96533 4.68533 1.788 4.032 1.788C3.39733 1.788 2.90267 1.98867 2.548 2.39C2.20267 2.782 2.016 3.30933 1.988 3.972H0.756C0.793333 2.92667 1.11067 2.11933 1.708 1.55C2.30533 0.980666 3.07533 0.695999 4.018 0.695999C4.97933 0.695999 5.74 0.961999 6.3 1.494C6.86933 2.026 7.154 2.75867 7.154 3.692C7.154 4.46667 6.92067 5.22267 6.454 5.96C5.99667 6.688 5.474 7.332 4.886 7.892C4.298 8.44267 3.54667 9.08667 2.632 9.824H7.448V10.888H0.714V9.978ZM8.92073 5.834C8.92073 4.22867 9.18207 2.978 9.70473 2.082C10.2274 1.17667 11.1421 0.724 12.4487 0.724C13.7461 0.724 14.6561 1.17667 15.1787 2.082C15.7014 2.978 15.9627 4.22867 15.9627 5.834C15.9627 7.46733 15.7014 8.73667 15.1787 9.642C14.6561 10.5473 13.7461 11 12.4487 11C11.1421 11 10.2274 10.5473 9.70473 9.642C9.18207 8.73667 8.92073 7.46733 8.92073 5.834ZM14.7027 5.834C14.7027 5.022 14.6467 4.336 14.5347 3.776C14.4321 3.20667 14.2127 2.74933 13.8767 2.404C13.5501 2.05867 13.0741 1.886 12.4487 1.886C11.8141 1.886 11.3287 2.05867 10.9927 2.404C10.6661 2.74933 10.4467 3.20667 10.3347 3.776C10.2321 4.336 10.1807 5.022 10.1807 5.834C10.1807 6.674 10.2321 7.37867 10.3347 7.948C10.4467 8.51733 10.6661 8.97467 10.9927 9.32C11.3287 9.66533 11.8141 9.838 12.4487 9.838C13.0741 9.838 13.5501 9.66533 13.8767 9.32C14.2127 8.97467 14.4321 8.51733 14.5347 7.948C14.6467 7.37867 14.7027 6.674 14.7027 5.834ZM17.3758 2.04V0.877999H20.0078V11H18.7198V2.04H17.3758ZM28.6501 1.984H23.7361V5.176C23.9508 4.87733 24.2681 4.63467 24.6881 4.448C25.1081 4.252 25.5608 4.154 26.0461 4.154C26.8208 4.154 27.4508 4.31733 27.9361 4.644C28.4215 4.96133 28.7668 5.37667 28.9721 5.89C29.1868 6.394 29.2941 6.93067 29.2941 7.5C29.2941 8.172 29.1681 8.774 28.9161 9.306C28.6641 9.838 28.2768 10.258 27.7541 10.566C27.2408 10.874 26.6015 11.028 25.8361 11.028C24.8561 11.028 24.0628 10.776 23.4561 10.272C22.8495 9.768 22.4808 9.096 22.3501 8.256H23.5961C23.7175 8.788 23.9741 9.20333 24.3661 9.502C24.7581 9.80067 25.2528 9.95 25.8501 9.95C26.5875 9.95 27.1428 9.73067 27.5161 9.292C27.8895 8.844 28.0761 8.256 28.0761 7.528C28.0761 6.8 27.8895 6.24 27.5161 5.848C27.1428 5.44667 26.5921 5.246 25.8641 5.246C25.3695 5.246 24.9355 5.36733 24.5621 5.61C24.1981 5.84333 23.9321 6.16533 23.7641 6.576H22.5601V0.863999H28.6501V1.984ZM36.5171 5.33V6.408H30.9311V5.33H36.5171ZM38.5441 9.978C39.7294 9.026 40.6581 8.24667 41.3301 7.64C42.0021 7.024 42.5667 6.38467 43.0241 5.722C43.4907 5.05 43.7241 4.392 43.7241 3.748C43.7241 3.14133 43.5747 2.66533 43.2761 2.32C42.9867 1.96533 42.5154 1.788 41.8621 1.788C41.2274 1.788 40.7327 1.98867 40.3781 2.39C40.0327 2.782 39.8461 3.30933 39.8181 3.972H38.5861C38.6234 2.92667 38.9407 2.11933 39.5381 1.55C40.1354 0.980666 40.9054 0.695999 41.8481 0.695999C42.8094 0.695999 43.5701 0.961999 44.1301 1.494C44.6994 2.026 44.9841 2.75867 44.9841 3.692C44.9841 4.46667 44.7507 5.22267 44.2841 5.96C43.8267 6.688 43.3041 7.332 42.7161 7.892C42.1281 8.44267 41.3767 9.08667 40.4621 9.824H45.2781V10.888H38.5441V9.978ZM46.7508 5.834C46.7508 4.22867 47.0121 2.978 47.5348 2.082C48.0575 1.17667 48.9721 0.724 50.2788 0.724C51.5761 0.724 52.4861 1.17667 53.0088 2.082C53.5315 2.978 53.7928 4.22867 53.7928 5.834C53.7928 7.46733 53.5315 8.73667 53.0088 9.642C52.4861 10.5473 51.5761 11 50.2788 11C48.9721 11 48.0575 10.5473 47.5348 9.642C47.0121 8.73667 46.7508 7.46733 46.7508 5.834ZM52.5328 5.834C52.5328 5.022 52.4768 4.336 52.3648 3.776C52.2621 3.20667 52.0428 2.74933 51.7068 2.404C51.3801 2.05867 50.9041 1.886 50.2788 1.886C49.6441 1.886 49.1588 2.05867 48.8228 2.404C48.4961 2.74933 48.2768 3.20667 48.1648 3.776C48.0621 4.336 48.0108 5.022 48.0108 5.834C48.0108 6.674 48.0621 7.37867 48.1648 7.948C48.2768 8.51733 48.4961 8.97467 48.8228 9.32C49.1588 9.66533 49.6441 9.838 50.2788 9.838C50.9041 9.838 51.3801 9.66533 51.7068 9.32C52.0428 8.97467 52.2621 8.51733 52.3648 7.948C52.4768 7.37867 52.5328 6.674 52.5328 5.834ZM55.2058 2.04V0.877999H57.8378V11H56.5498V2.04H55.2058ZM66.2562 1.872L62.3642 11H61.0762L65.0242 1.998H59.6202V0.906H66.2562V1.872ZM1.984 60.808C1.70667 60.808 1.472 60.712 1.28 60.52C1.088 60.328 0.992 60.0933 0.992 59.816C0.992 59.5387 1.088 59.304 1.28 59.112C1.472 58.92 1.70667 58.824 1.984 58.824C2.25067 58.824 2.47467 58.92 2.656 59.112C2.848 59.304 2.944 59.5387 2.944 59.816C2.944 60.0933 2.848 60.328 2.656 60.52C2.47467 60.712 2.25067 60.808 1.984 60.808ZM2.688 62.232V71H1.232V62.232H2.688ZM6.6255 63.864C6.92417 63.3413 7.3615 62.9147 7.9375 62.584C8.5135 62.2533 9.1695 62.088 9.9055 62.088C10.6948 62.088 11.4042 62.2747 12.0335 62.648C12.6628 63.0213 13.1588 63.5493 13.5215 64.232C13.8842 64.904 14.0655 65.688 14.0655 66.584C14.0655 67.4693 13.8842 68.2587 13.5215 68.952C13.1588 69.6453 12.6575 70.184 12.0175 70.568C11.3882 70.952 10.6842 71.144 9.9055 71.144C9.14817 71.144 8.4815 70.9787 7.9055 70.648C7.34017 70.3173 6.9135 69.896 6.6255 69.384V71H5.1695V59.16H6.6255V63.864ZM12.5775 66.584C12.5775 65.9227 12.4442 65.3467 12.1775 64.856C11.9108 64.3653 11.5482 63.992 11.0895 63.736C10.6415 63.48 10.1455 63.352 9.6015 63.352C9.06817 63.352 8.57217 63.4853 8.1135 63.752C7.6655 64.008 7.30283 64.3867 7.0255 64.888C6.75883 65.3787 6.6255 65.9493 6.6255 66.6C6.6255 67.2613 6.75883 67.8427 7.0255 68.344C7.30283 68.8347 7.6655 69.2133 8.1135 69.48C8.57217 69.736 9.06817 69.864 9.6015 69.864C10.1455 69.864 10.6415 69.736 11.0895 69.48C11.5482 69.2133 11.9108 68.8347 12.1775 68.344C12.4442 67.8427 12.5775 67.256 12.5775 66.584ZM22.062 64.52V65.752H15.678V64.52H22.062ZM26.5705 63.432V68.6C26.5705 69.0267 26.6612 69.3307 26.8425 69.512C27.0238 69.6827 27.3385 69.768 27.7865 69.768H28.8585V71H27.5465C26.7358 71 26.1278 70.8133 25.7225 70.44C25.3172 70.0667 25.1145 69.4533 25.1145 68.6V63.432H23.9785V62.232H25.1145V60.024H26.5705V62.232H28.8585V63.432H26.5705ZM34.9746 62.072C35.636 62.072 36.2333 62.216 36.7666 62.504C37.3 62.7813 37.716 63.2027 38.0146 63.768C38.324 64.3333 38.4786 65.0213 38.4786 65.832V71H37.0386V66.04C37.0386 65.1653 36.82 64.4987 36.3826 64.04C35.9453 63.5707 35.348 63.336 34.5906 63.336C33.8226 63.336 33.2093 63.576 32.7506 64.056C32.3026 64.536 32.0786 65.2347 32.0786 66.152V71H30.6226V59.16H32.0786V63.48C32.3666 63.032 32.7613 62.6853 33.2626 62.44C33.7746 62.1947 34.3453 62.072 34.9746 62.072ZM48.857 66.28C48.857 66.5573 48.841 66.8507 48.809 67.16H41.801C41.8543 68.024 42.1477 68.7013 42.681 69.192C43.225 69.672 43.881 69.912 44.649 69.912C45.2783 69.912 45.801 69.768 46.217 69.48C46.6437 69.1813 46.9423 68.7867 47.113 68.296H48.681C48.4463 69.1387 47.977 69.8267 47.273 70.36C46.569 70.8827 45.6943 71.144 44.649 71.144C43.817 71.144 43.0703 70.9573 42.409 70.584C41.7583 70.2107 41.2463 69.6827 40.873 69C40.4997 68.3067 40.313 67.5067 40.313 66.6C40.313 65.6933 40.4943 64.8987 40.857 64.216C41.2197 63.5333 41.7263 63.0107 42.377 62.648C43.0383 62.2747 43.7957 62.088 44.649 62.088C45.481 62.088 46.217 62.2693 46.857 62.632C47.497 62.9947 47.9877 63.496 48.329 64.136C48.681 64.7653 48.857 65.48 48.857 66.28ZM47.353 65.976C47.353 65.4213 47.2303 64.9467 46.985 64.552C46.7397 64.1467 46.4037 63.8427 45.977 63.64C45.561 63.4267 45.097 63.32 44.585 63.32C43.849 63.32 43.2197 63.5547 42.697 64.024C42.185 64.4933 41.8917 65.144 41.817 65.976H47.353ZM61.3229 62.072C62.0055 62.072 62.6135 62.216 63.1469 62.504C63.6802 62.7813 64.1015 63.2027 64.4109 63.768C64.7202 64.3333 64.8749 65.0213 64.8749 65.832V71H63.4349V66.04C63.4349 65.1653 63.2162 64.4987 62.7789 64.04C62.3522 63.5707 61.7709 63.336 61.0349 63.336C60.2775 63.336 59.6749 63.5813 59.2269 64.072C58.7789 64.552 58.5549 65.2507 58.5549 66.168V71H57.1149V66.04C57.1149 65.1653 56.8962 64.4987 56.4589 64.04C56.0322 63.5707 55.4509 63.336 54.7149 63.336C53.9575 63.336 53.3549 63.5813 52.9069 64.072C52.4589 64.552 52.2349 65.2507 52.2349 66.168V71H50.7789V62.232H52.2349V63.496C52.5229 63.0373 52.9069 62.6853 53.3869 62.44C53.8775 62.1947 54.4162 62.072 55.0029 62.072C55.7389 62.072 56.3895 62.2373 56.9549 62.568C57.5202 62.8987 57.9415 63.384 58.2189 64.024C58.4642 63.4053 58.8695 62.9253 59.4349 62.584C60.0002 62.2427 60.6295 62.072 61.3229 62.072ZM75.2633 66.28C75.2633 66.5573 75.2473 66.8507 75.2153 67.16H68.2073C68.2606 68.024 68.5539 68.7013 69.0873 69.192C69.6313 69.672 70.2873 69.912 71.0553 69.912C71.6846 69.912 72.2073 69.768 72.6233 69.48C73.0499 69.1813 73.3486 68.7867 73.5193 68.296H75.0873C74.8526 69.1387 74.3833 69.8267 73.6793 70.36C72.9753 70.8827 72.1006 71.144 71.0553 71.144C70.2233 71.144 69.4766 70.9573 68.8153 70.584C68.1646 70.2107 67.6526 69.6827 67.2793 69C66.9059 68.3067 66.7193 67.5067 66.7193 66.6C66.7193 65.6933 66.9006 64.8987 67.2633 64.216C67.6259 63.5333 68.1326 63.0107 68.7833 62.648C69.4446 62.2747 70.2019 62.088 71.0553 62.088C71.8873 62.088 72.6233 62.2693 73.2633 62.632C73.9033 62.9947 74.3939 63.496 74.7353 64.136C75.0873 64.7653 75.2633 65.48 75.2633 66.28ZM73.7593 65.976C73.7593 65.4213 73.6366 64.9467 73.3913 64.552C73.1459 64.1467 72.8099 63.8427 72.3833 63.64C71.9673 63.4267 71.5033 63.32 70.9913 63.32C70.2553 63.32 69.6259 63.5547 69.1033 64.024C68.5913 64.4933 68.2979 65.144 68.2233 65.976H73.7593ZM80.2891 71.144C79.6171 71.144 79.0145 71.032 78.4811 70.808C77.9478 70.5733 77.5265 70.2533 77.2171 69.848C76.9078 69.432 76.7371 68.9573 76.7051 68.424H78.2091C78.2518 68.8613 78.4545 69.2187 78.8171 69.496C79.1905 69.7733 79.6758 69.912 80.2731 69.912C80.8278 69.912 81.2651 69.7893 81.5851 69.544C81.9051 69.2987 82.0651 68.9893 82.0651 68.616C82.0651 68.232 81.8945 67.9493 81.5531 67.768C81.2118 67.576 80.6838 67.3893 79.9691 67.208C79.3185 67.0373 78.7851 66.8667 78.3691 66.696C77.9638 66.5147 77.6118 66.2533 77.3131 65.912C77.0251 65.56 76.8811 65.1013 76.8811 64.536C76.8811 64.088 77.0145 63.6773 77.2811 63.304C77.5478 62.9307 77.9265 62.6373 78.4171 62.424C78.9078 62.2 79.4678 62.088 80.0971 62.088C81.0678 62.088 81.8518 62.3333 82.4491 62.824C83.0465 63.3147 83.3665 63.9867 83.4091 64.84H81.9531C81.9211 64.3813 81.7345 64.0133 81.3931 63.736C81.0625 63.4587 80.6145 63.32 80.0491 63.32C79.5265 63.32 79.1105 63.432 78.8011 63.656C78.4918 63.88 78.3371 64.1733 78.3371 64.536C78.3371 64.824 78.4278 65.064 78.6091 65.256C78.8011 65.4373 79.0358 65.5867 79.3131 65.704C79.6011 65.8107 79.9958 65.9333 80.4971 66.072C81.1265 66.2427 81.6385 66.4133 82.0331 66.584C82.4278 66.744 82.7638 66.9893 83.0411 67.32C83.3291 67.6507 83.4785 68.0827 83.4891 68.616C83.4891 69.096 83.3558 69.528 83.0891 69.912C82.8225 70.296 82.4438 70.6 81.9531 70.824C81.4731 71.0373 80.9185 71.144 80.2891 71.144ZM91.2661 59.16V71H89.8101V59.16H91.2661ZM95.5236 63.432V68.6C95.5236 69.0267 95.6143 69.3307 95.7956 69.512C95.977 69.6827 96.2916 69.768 96.7396 69.768H97.8116V71H96.4996C95.689 71 95.081 70.8133 94.6756 70.44C94.2703 70.0667 94.0676 69.4533 94.0676 68.6V63.432H92.9316V62.232H94.0676V60.024H95.5236V62.232H97.8116V63.432H95.5236ZM99.0318 66.584C99.0318 65.688 99.2131 64.904 99.5758 64.232C99.9384 63.5493 100.434 63.0213 101.064 62.648C101.704 62.2747 102.418 62.088 103.208 62.088C103.89 62.088 104.525 62.248 105.112 62.568C105.698 62.8773 106.146 63.288 106.456 63.8V59.16H107.928V71H106.456V69.352C106.168 69.8747 105.741 70.3067 105.176 70.648C104.61 70.9787 103.949 71.144 103.192 71.144C102.413 71.144 101.704 70.952 101.064 70.568C100.434 70.184 99.9384 69.6453 99.5758 68.952C99.2131 68.2587 99.0318 67.4693 99.0318 66.584ZM106.456 66.6C106.456 65.9387 106.322 65.3627 106.056 64.872C105.789 64.3813 105.426 64.008 104.968 63.752C104.52 63.4853 104.024 63.352 103.48 63.352C102.936 63.352 102.44 63.48 101.992 63.736C101.544 63.992 101.186 64.3653 100.92 64.856C100.653 65.3467 100.52 65.9227 100.52 66.584C100.52 67.256 100.653 67.8427 100.92 68.344C101.186 68.8347 101.544 69.2133 101.992 69.48C102.44 69.736 102.936 69.864 103.48 69.864C104.024 69.864 104.52 69.736 104.968 69.48C105.426 69.2133 105.789 68.8347 106.056 68.344C106.322 67.8427 106.456 67.2613 106.456 66.6ZM110.852 71.096C110.575 71.096 110.34 71 110.148 70.808C109.956 70.616 109.86 70.3813 109.86 70.104C109.86 69.8267 109.956 69.592 110.148 69.4C110.34 69.208 110.575 69.112 110.852 69.112C111.119 69.112 111.343 69.208 111.524 69.4C111.716 69.592 111.812 69.8267 111.812 70.104C111.812 70.3813 111.716 70.616 111.524 70.808C111.343 71 111.119 71.096 110.852 71.096Z" fill="#44566C"/>
<path d="M0.774 34.718C0.774 33.494 1.05 32.396 1.602 31.424C2.154 30.44 2.904 29.672 3.852 29.12C4.812 28.568 5.874 28.292 7.038 28.292C8.406 28.292 9.6 28.622 10.62 29.282C11.64 29.942 12.384 30.878 12.852 32.09H10.89C10.542 31.334 10.038 30.752 9.378 30.344C8.73 29.936 7.95 29.732 7.038 29.732C6.162 29.732 5.376 29.936 4.68 30.344C3.984 30.752 3.438 31.334 3.042 32.09C2.646 32.834 2.448 33.71 2.448 34.718C2.448 35.714 2.646 36.59 3.042 37.346C3.438 38.09 3.984 38.666 4.68 39.074C5.376 39.482 6.162 39.686 7.038 39.686C7.95 39.686 8.73 39.488 9.378 39.092C10.038 38.684 10.542 38.102 10.89 37.346H12.852C12.384 38.546 11.64 39.476 10.62 40.136C9.6 40.784 8.406 41.108 7.038 41.108C5.874 41.108 4.812 40.838 3.852 40.298C2.904 39.746 2.154 38.984 1.602 38.012C1.05 37.04 0.774 35.942 0.774 34.718ZM16.9283 32.738C17.2163 32.174 17.6243 31.736 18.1523 31.424C18.6923 31.112 19.3463 30.956 20.1143 30.956V32.648H19.6823C17.8463 32.648 16.9283 33.644 16.9283 35.636V41H15.2903V31.136H16.9283V32.738ZM22.5271 41.108C22.2151 41.108 21.9511 41 21.7351 40.784C21.5191 40.568 21.4111 40.304 21.4111 39.992C21.4111 39.68 21.5191 39.416 21.7351 39.2C21.9511 38.984 22.2151 38.876 22.5271 38.876C22.8271 38.876 23.0791 38.984 23.2831 39.2C23.4991 39.416 23.6071 39.68 23.6071 39.992C23.6071 40.304 23.4991 40.568 23.2831 40.784C23.0791 41 22.8271 41.108 22.5271 41.108ZM46.3513 28.454L42.7153 41H40.8793L37.9633 30.902L34.9393 41L33.1213 41.018L29.6113 28.454H31.3573L34.0933 39.092L37.1173 28.454H38.9533L41.8333 39.056L44.5873 28.454H46.3513ZM57.1438 35.69C57.1438 36.002 57.1258 36.332 57.0898 36.68H49.2058C49.2658 37.652 49.5958 38.414 50.1958 38.966C50.8078 39.506 51.5458 39.776 52.4098 39.776C53.1178 39.776 53.7058 39.614 54.1738 39.29C54.6538 38.954 54.9898 38.51 55.1818 37.958H56.9458C56.6818 38.906 56.1538 39.68 55.3618 40.28C54.5698 40.868 53.5858 41.162 52.4098 41.162C51.4738 41.162 50.6338 40.952 49.8898 40.532C49.1578 40.112 48.5818 39.518 48.1618 38.75C47.7418 37.97 47.5318 37.07 47.5318 36.05C47.5318 35.03 47.7358 34.136 48.1438 33.368C48.5518 32.6 49.1218 32.012 49.8538 31.604C50.5978 31.184 51.4498 30.974 52.4098 30.974C53.3458 30.974 54.1738 31.178 54.8938 31.586C55.6138 31.994 56.1658 32.558 56.5498 33.278C56.9458 33.986 57.1438 34.79 57.1438 35.69ZM55.4518 35.348C55.4518 34.724 55.3138 34.19 55.0378 33.746C54.7618 33.29 54.3838 32.948 53.9038 32.72C53.4358 32.48 52.9138 32.36 52.3378 32.36C51.5098 32.36 50.8018 32.624 50.2138 33.152C49.6378 33.68 49.3078 34.412 49.2238 35.348H55.4518ZM60.9439 32.972C61.2799 32.384 61.7719 31.904 62.4199 31.532C63.0679 31.16 63.8059 30.974 64.6339 30.974C65.5219 30.974 66.3199 31.184 67.0279 31.604C67.7359 32.024 68.2939 32.618 68.7019 33.386C69.1099 34.142 69.3139 35.024 69.3139 36.032C69.3139 37.028 69.1099 37.916 68.7019 38.696C68.2939 39.476 67.7299 40.082 67.0099 40.514C66.3019 40.946 65.5099 41.162 64.6339 41.162C63.7819 41.162 63.0319 40.976 62.3839 40.604C61.7479 40.232 61.2679 39.758 60.9439 39.182V41H59.3059V27.68H60.9439V32.972ZM67.6399 36.032C67.6399 35.288 67.4899 34.64 67.1899 34.088C66.8899 33.536 66.4819 33.116 65.9659 32.828C65.4619 32.54 64.9039 32.396 64.2919 32.396C63.6919 32.396 63.1339 32.546 62.6179 32.846C62.1139 33.134 61.7059 33.56 61.3939 34.124C61.0939 34.676 60.9439 35.318 60.9439 36.05C60.9439 36.794 61.0939 37.448 61.3939 38.012C61.7059 38.564 62.1139 38.99 62.6179 39.29C63.1339 39.578 63.6919 39.722 64.2919 39.722C64.9039 39.722 65.4619 39.578 65.9659 39.29C66.4819 38.99 66.8899 38.564 67.1899 38.012C67.4899 37.448 67.6399 36.788 67.6399 36.032ZM80.1748 28.454C81.5428 28.454 82.7248 28.712 83.7208 29.228C84.7288 29.732 85.4968 30.458 86.0248 31.406C86.5648 32.354 86.8348 33.47 86.8348 34.754C86.8348 36.038 86.5648 37.154 86.0248 38.102C85.4968 39.038 84.7288 39.758 83.7208 40.262C82.7248 40.754 81.5428 41 80.1748 41H76.2688V28.454H80.1748ZM80.1748 39.65C81.7948 39.65 83.0308 39.224 83.8828 38.372C84.7348 37.508 85.1608 36.302 85.1608 34.754C85.1608 33.194 84.7288 31.976 83.8648 31.1C83.0128 30.224 81.7828 29.786 80.1748 29.786H77.9068V39.65H80.1748ZM97.9954 35.69C97.9954 36.002 97.9774 36.332 97.9414 36.68H90.0574C90.1174 37.652 90.4474 38.414 91.0474 38.966C91.6594 39.506 92.3974 39.776 93.2614 39.776C93.9694 39.776 94.5574 39.614 95.0254 39.29C95.5054 38.954 95.8414 38.51 96.0334 37.958H97.7974C97.5334 38.906 97.0054 39.68 96.2134 40.28C95.4214 40.868 94.4374 41.162 93.2614 41.162C92.3254 41.162 91.4854 40.952 90.7414 40.532C90.0094 40.112 89.4334 39.518 89.0134 38.75C88.5934 37.97 88.3834 37.07 88.3834 36.05C88.3834 35.03 88.5874 34.136 88.9954 33.368C89.4034 32.6 89.9734 32.012 90.7054 31.604C91.4494 31.184 92.3014 30.974 93.2614 30.974C94.1974 30.974 95.0254 31.178 95.7454 31.586C96.4654 31.994 97.0174 32.558 97.4014 33.278C97.7974 33.986 97.9954 34.79 97.9954 35.69ZM96.3034 35.348C96.3034 34.724 96.1654 34.19 95.8894 33.746C95.6134 33.29 95.2354 32.948 94.7554 32.72C94.2874 32.48 93.7654 32.36 93.1894 32.36C92.3614 32.36 91.6534 32.624 91.0654 33.152C90.4894 33.68 90.1594 34.412 90.0754 35.348H96.3034ZM103.829 39.488L106.889 31.136H108.635L104.765 41H102.857L98.9875 31.136H100.751L103.829 39.488ZM119.247 35.69C119.247 36.002 119.229 36.332 119.193 36.68H111.309C111.369 37.652 111.699 38.414 112.299 38.966C112.911 39.506 113.649 39.776 114.513 39.776C115.221 39.776 115.809 39.614 116.277 39.29C116.757 38.954 117.093 38.51 117.285 37.958H119.049C118.785 38.906 118.257 39.68 117.465 40.28C116.673 40.868 115.689 41.162 114.513 41.162C113.577 41.162 112.737 40.952 111.993 40.532C111.261 40.112 110.685 39.518 110.265 38.75C109.845 37.97 109.635 37.07 109.635 36.05C109.635 35.03 109.839 34.136 110.247 33.368C110.655 32.6 111.225 32.012 111.957 31.604C112.701 31.184 113.553 30.974 114.513 30.974C115.449 30.974 116.277 31.178 116.997 31.586C117.717 31.994 118.269 32.558 118.653 33.278C119.049 33.986 119.247 34.79 119.247 35.69ZM117.555 35.348C117.555 34.724 117.417 34.19 117.141 33.746C116.865 33.29 116.487 32.948 116.007 32.72C115.539 32.48 115.017 32.36 114.441 32.36C113.613 32.36 112.905 32.624 112.317 33.152C111.741 33.68 111.411 34.412 111.327 35.348H117.555ZM123.047 27.68V41H121.409V27.68H123.047ZM130.141 41.162C129.217 41.162 128.377 40.952 127.621 40.532C126.877 40.112 126.289 39.518 125.857 38.75C125.437 37.97 125.227 37.07 125.227 36.05C125.227 35.042 125.443 34.154 125.875 33.386C126.319 32.606 126.919 32.012 127.675 31.604C128.431 31.184 129.277 30.974 130.213 30.974C131.149 30.974 131.995 31.184 132.751 31.604C133.507 32.012 134.101 32.6 134.533 33.368C134.977 34.136 135.199 35.03 135.199 36.05C135.199 37.07 134.971 37.97 134.515 38.75C134.071 39.518 133.465 40.112 132.697 40.532C131.929 40.952 131.077 41.162 130.141 41.162ZM130.141 39.722C130.729 39.722 131.281 39.584 131.797 39.308C132.313 39.032 132.727 38.618 133.039 38.066C133.363 37.514 133.525 36.842 133.525 36.05C133.525 35.258 133.369 34.586 133.057 34.034C132.745 33.482 132.337 33.074 131.833 32.81C131.329 32.534 130.783 32.396 130.195 32.396C129.595 32.396 129.043 32.534 128.539 32.81C128.047 33.074 127.651 33.482 127.351 34.034C127.051 34.586 126.901 35.258 126.901 36.05C126.901 36.854 127.045 37.532 127.333 38.084C127.633 38.636 128.029 39.05 128.521 39.326C129.013 39.59 129.553 39.722 130.141 39.722ZM138.991 32.954C139.315 32.39 139.795 31.922 140.431 31.55C141.079 31.166 141.829 30.974 142.681 30.974C143.557 30.974 144.349 31.184 145.057 31.604C145.777 32.024 146.341 32.618 146.749 33.386C147.157 34.142 147.361 35.024 147.361 36.032C147.361 37.028 147.157 37.916 146.749 38.696C146.341 39.476 145.777 40.082 145.057 40.514C144.349 40.946 143.557 41.162 142.681 41.162C141.841 41.162 141.097 40.976 140.449 40.604C139.813 40.22 139.327 39.746 138.991 39.182V45.68H137.353V31.136H138.991V32.954ZM145.687 36.032C145.687 35.288 145.537 34.64 145.237 34.088C144.937 33.536 144.529 33.116 144.013 32.828C143.509 32.54 142.951 32.396 142.339 32.396C141.739 32.396 141.181 32.546 140.665 32.846C140.161 33.134 139.753 33.56 139.441 34.124C139.141 34.676 138.991 35.318 138.991 36.05C138.991 36.794 139.141 37.448 139.441 38.012C139.753 38.564 140.161 38.99 140.665 39.29C141.181 39.578 141.739 39.722 142.339 39.722C142.951 39.722 143.509 39.578 144.013 39.29C144.529 38.99 144.937 38.564 145.237 38.012C145.537 37.448 145.687 36.788 145.687 36.032ZM158.517 35.69C158.517 36.002 158.499 36.332 158.463 36.68H150.579C150.639 37.652 150.969 38.414 151.569 38.966C152.181 39.506 152.919 39.776 153.783 39.776C154.491 39.776 155.079 39.614 155.547 39.29C156.027 38.954 156.363 38.51 156.555 37.958H158.319C158.055 38.906 157.527 39.68 156.735 40.28C155.943 40.868 154.959 41.162 153.783 41.162C152.847 41.162 152.007 40.952 151.263 40.532C150.531 40.112 149.955 39.518 149.535 38.75C149.115 37.97 148.905 37.07 148.905 36.05C148.905 35.03 149.109 34.136 149.517 33.368C149.925 32.6 150.495 32.012 151.227 31.604C151.971 31.184 152.823 30.974 153.783 30.974C154.719 30.974 155.547 31.178 156.267 31.586C156.987 31.994 157.539 32.558 157.923 33.278C158.319 33.986 158.517 34.79 158.517 35.69ZM156.825 35.348C156.825 34.724 156.687 34.19 156.411 33.746C156.135 33.29 155.757 32.948 155.277 32.72C154.809 32.48 154.287 32.36 153.711 32.36C152.883 32.36 152.175 32.624 151.587 33.152C151.011 33.68 150.681 34.412 150.597 35.348H156.825ZM162.317 32.738C162.605 32.174 163.013 31.736 163.541 31.424C164.081 31.112 164.735 30.956 165.503 30.956V32.648H165.071C163.235 32.648 162.317 33.644 162.317 35.636V41H160.679V31.136H162.317V32.738Z" fill="#0F172A"/>
</svg>
