<svg width="272" height="72" viewBox="0 0 272 72" fill="none" xmlns="http://www.w3.org/2000/svg">
<path d="M0.714 9.978C1.89933 9.026 2.828 8.24667 3.5 7.64C4.172 7.024 4.73667 6.38467 5.194 5.722C5.66067 5.05 5.894 4.392 5.894 3.748C5.894 3.14133 5.74467 2.66533 5.446 2.32C5.15667 1.96533 4.68533 1.788 4.032 1.788C3.39733 1.788 2.90267 1.98867 2.548 2.39C2.20267 2.782 2.016 3.30933 1.988 3.972H0.756C0.793333 2.92667 1.11067 2.11933 1.708 1.55C2.30533 0.980666 3.07533 0.695999 4.018 0.695999C4.97933 0.695999 5.74 0.961999 6.3 1.494C6.86933 2.026 7.154 2.75867 7.154 3.692C7.154 4.46667 6.92067 5.22267 6.454 5.96C5.99667 6.688 5.474 7.332 4.886 7.892C4.298 8.44267 3.54667 9.08667 2.632 9.824H7.448V10.888H0.714V9.978ZM8.92073 5.834C8.92073 4.22867 9.18207 2.978 9.70473 2.082C10.2274 1.17667 11.1421 0.724 12.4487 0.724C13.7461 0.724 14.6561 1.17667 15.1787 2.082C15.7014 2.978 15.9627 4.22867 15.9627 5.834C15.9627 7.46733 15.7014 8.73667 15.1787 9.642C14.6561 10.5473 13.7461 11 12.4487 11C11.1421 11 10.2274 10.5473 9.70473 9.642C9.18207 8.73667 8.92073 7.46733 8.92073 5.834ZM14.7027 5.834C14.7027 5.022 14.6467 4.336 14.5347 3.776C14.4321 3.20667 14.2127 2.74933 13.8767 2.404C13.5501 2.05867 13.0741 1.886 12.4487 1.886C11.8141 1.886 11.3287 2.05867 10.9927 2.404C10.6661 2.74933 10.4467 3.20667 10.3347 3.776C10.2321 4.336 10.1807 5.022 10.1807 5.834C10.1807 6.674 10.2321 7.37867 10.3347 7.948C10.4467 8.51733 10.6661 8.97467 10.9927 9.32C11.3287 9.66533 11.8141 9.838 12.4487 9.838C13.0741 9.838 13.5501 9.66533 13.8767 9.32C14.2127 8.97467 14.4321 8.51733 14.5347 7.948C14.6467 7.37867 14.7027 6.674 14.7027 5.834ZM17.3758 2.04V0.877999H20.0078V11H18.7198V2.04H17.3758ZM28.4261 1.872L24.5341 11H23.2461L27.1941 1.998H21.7901V0.906H28.4261V1.872ZM35.3687 5.33V6.408H29.7827V5.33H35.3687ZM37.3956 9.978C38.581 9.026 39.5096 8.24667 40.1816 7.64C40.8536 7.024 41.4183 6.38467 41.8756 5.722C42.3423 5.05 42.5756 4.392 42.5756 3.748C42.5756 3.14133 42.4263 2.66533 42.1276 2.32C41.8383 1.96533 41.367 1.788 40.7136 1.788C40.079 1.788 39.5843 1.98867 39.2296 2.39C38.8843 2.782 38.6976 3.30933 38.6696 3.972H37.4376C37.475 2.92667 37.7923 2.11933 38.3896 1.55C38.987 0.980666 39.757 0.695999 40.6996 0.695999C41.661 0.695999 42.4216 0.961999 42.9816 1.494C43.551 2.026 43.8356 2.75867 43.8356 3.692C43.8356 4.46667 43.6023 5.22267 43.1356 5.96C42.6783 6.688 42.1556 7.332 41.5676 7.892C40.9796 8.44267 40.2283 9.08667 39.3136 9.824H44.1296V10.888H37.3956V9.978ZM45.6024 5.834C45.6024 4.22867 45.8637 2.978 46.3864 2.082C46.909 1.17667 47.8237 0.724 49.1304 0.724C50.4277 0.724 51.3377 1.17667 51.8604 2.082C52.383 2.978 52.6444 4.22867 52.6444 5.834C52.6444 7.46733 52.383 8.73667 51.8604 9.642C51.3377 10.5473 50.4277 11 49.1304 11C47.8237 11 46.909 10.5473 46.3864 9.642C45.8637 8.73667 45.6024 7.46733 45.6024 5.834ZM51.3844 5.834C51.3844 5.022 51.3284 4.336 51.2164 3.776C51.1137 3.20667 50.8944 2.74933 50.5584 2.404C50.2317 2.05867 49.7557 1.886 49.1304 1.886C48.4957 1.886 48.0104 2.05867 47.6744 2.404C47.3477 2.74933 47.1284 3.20667 47.0164 3.776C46.9137 4.336 46.8624 5.022 46.8624 5.834C46.8624 6.674 46.9137 7.37867 47.0164 7.948C47.1284 8.51733 47.3477 8.97467 47.6744 9.32C48.0104 9.66533 48.4957 9.838 49.1304 9.838C49.7557 9.838 50.2317 9.66533 50.5584 9.32C50.8944 8.97467 51.1137 8.51733 51.2164 7.948C51.3284 7.37867 51.3844 6.674 51.3844 5.834ZM54.2394 9.978C55.4247 9.026 56.3534 8.24667 57.0254 7.64C57.6974 7.024 58.2621 6.38467 58.7194 5.722C59.1861 5.05 59.4194 4.392 59.4194 3.748C59.4194 3.14133 59.2701 2.66533 58.9714 2.32C58.6821 1.96533 58.2107 1.788 57.5574 1.788C56.9227 1.788 56.4281 1.98867 56.0734 2.39C55.7281 2.782 55.5414 3.30933 55.5134 3.972H54.2814C54.3187 2.92667 54.6361 2.11933 55.2334 1.55C55.8307 0.980666 56.6007 0.695999 57.5434 0.695999C58.5047 0.695999 59.2654 0.961999 59.8254 1.494C60.3947 2.026 60.6794 2.75867 60.6794 3.692C60.6794 4.46667 60.4461 5.22267 59.9794 5.96C59.5221 6.688 58.9994 7.332 58.4114 7.892C57.8234 8.44267 57.0721 9.08667 56.1574 9.824H60.9734V10.888H54.2394V9.978ZM62.1101 2.04V0.877999H64.7421V11H63.4541V2.04H62.1101ZM188.137 29.848V41H186.681V29.848H188.137ZM201.163 32.072C201.845 32.072 202.453 32.216 202.987 32.504C203.52 32.7813 203.941 33.2027 204.251 33.768C204.56 34.3333 204.715 35.0213 204.715 35.832V41H203.275V36.04C203.275 35.1653 203.056 34.4987 202.619 34.04C202.192 33.5707 201.611 33.336 200.875 33.336C200.117 33.336 199.515 33.5813 199.067 34.072C198.619 34.552 198.395 35.2507 198.395 36.168V41H196.955V36.04C196.955 35.1653 196.736 34.4987 196.299 34.04C195.872 33.5707 195.291 33.336 194.555 33.336C193.797 33.336 193.195 33.5813 192.747 34.072C192.299 34.552 192.075 35.2507 192.075 36.168V41H190.619V32.232H192.075V33.496C192.363 33.0373 192.747 32.6853 193.227 32.44C193.717 32.1947 194.256 32.072 194.843 32.072C195.579 32.072 196.229 32.2373 196.795 32.568C197.36 32.8987 197.781 33.384 198.059 34.024C198.304 33.4053 198.709 32.9253 199.275 32.584C199.84 32.2427 200.469 32.072 201.163 32.072ZM208.559 33.848C208.847 33.3467 209.274 32.9307 209.839 32.6C210.415 32.2587 211.082 32.088 211.839 32.088C212.618 32.088 213.322 32.2747 213.951 32.648C214.591 33.0213 215.092 33.5493 215.455 34.232C215.818 34.904 215.999 35.688 215.999 36.584C215.999 37.4693 215.818 38.2587 215.455 38.952C215.092 39.6453 214.591 40.184 213.951 40.568C213.322 40.952 212.618 41.144 211.839 41.144C211.092 41.144 210.431 40.9787 209.855 40.648C209.29 40.3067 208.858 39.8853 208.559 39.384V45.16H207.103V32.232H208.559V33.848ZM214.511 36.584C214.511 35.9227 214.378 35.3467 214.111 34.856C213.844 34.3653 213.482 33.992 213.023 33.736C212.575 33.48 212.079 33.352 211.535 33.352C211.002 33.352 210.506 33.4853 210.047 33.752C209.599 34.008 209.236 34.3867 208.959 34.888C208.692 35.3787 208.559 35.9493 208.559 36.6C208.559 37.2613 208.692 37.8427 208.959 38.344C209.236 38.8347 209.599 39.2133 210.047 39.48C210.506 39.736 211.002 39.864 211.535 39.864C212.079 39.864 212.575 39.736 213.023 39.48C213.482 39.2133 213.844 38.8347 214.111 38.344C214.378 37.8427 214.511 37.256 214.511 36.584ZM225.916 36.28C225.916 36.5573 225.9 36.8507 225.868 37.16H218.86C218.913 38.024 219.206 38.7013 219.74 39.192C220.284 39.672 220.94 39.912 221.708 39.912C222.337 39.912 222.86 39.768 223.276 39.48C223.702 39.1813 224.001 38.7867 224.172 38.296H225.74C225.505 39.1387 225.036 39.8267 224.332 40.36C223.628 40.8827 222.753 41.144 221.708 41.144C220.876 41.144 220.129 40.9573 219.468 40.584C218.817 40.2107 218.305 39.6827 217.932 39C217.558 38.3067 217.372 37.5067 217.372 36.6C217.372 35.6933 217.553 34.8987 217.916 34.216C218.278 33.5333 218.785 33.0107 219.436 32.648C220.097 32.2747 220.854 32.088 221.708 32.088C222.54 32.088 223.276 32.2693 223.916 32.632C224.556 32.9947 225.046 33.496 225.388 34.136C225.74 34.7653 225.916 35.48 225.916 36.28ZM224.412 35.976C224.412 35.4213 224.289 34.9467 224.044 34.552C223.798 34.1467 223.462 33.8427 223.036 33.64C222.62 33.4267 222.156 33.32 221.644 33.32C220.908 33.32 220.278 33.5547 219.756 34.024C219.244 34.4933 218.95 35.144 218.876 35.976H224.412ZM229.293 33.656C229.549 33.1547 229.912 32.7653 230.381 32.488C230.861 32.2107 231.443 32.072 232.125 32.072V33.576H231.741C230.109 33.576 229.293 34.4613 229.293 36.232V41H227.837V32.232H229.293V33.656ZM234.558 30.808C234.281 30.808 234.046 30.712 233.854 30.52C233.662 30.328 233.566 30.0933 233.566 29.816C233.566 29.5387 233.662 29.304 233.854 29.112C234.046 28.92 234.281 28.824 234.558 28.824C234.825 28.824 235.049 28.92 235.23 29.112C235.422 29.304 235.518 29.5387 235.518 29.816C235.518 30.0933 235.422 30.328 235.23 30.52C235.049 30.712 234.825 30.808 234.558 30.808ZM235.262 32.232V41H233.806V32.232H235.262ZM237.2 36.584C237.2 35.688 237.381 34.904 237.744 34.232C238.106 33.5493 238.602 33.0213 239.232 32.648C239.872 32.2747 240.581 32.088 241.36 32.088C242.128 32.088 242.794 32.2533 243.36 32.584C243.925 32.9147 244.346 33.3307 244.624 33.832V32.232H246.096V41H244.624V39.368C244.336 39.88 243.904 40.3067 243.328 40.648C242.762 40.9787 242.101 41.144 241.344 41.144C240.565 41.144 239.861 40.952 239.232 40.568C238.602 40.184 238.106 39.6453 237.744 38.952C237.381 38.2587 237.2 37.4693 237.2 36.584ZM244.624 36.6C244.624 35.9387 244.49 35.3627 244.224 34.872C243.957 34.3813 243.594 34.008 243.136 33.752C242.688 33.4853 242.192 33.352 241.648 33.352C241.104 33.352 240.608 33.48 240.16 33.736C239.712 33.992 239.354 34.3653 239.088 34.856C238.821 35.3467 238.688 35.9227 238.688 36.584C238.688 37.256 238.821 37.8427 239.088 38.344C239.354 38.8347 239.712 39.2133 240.16 39.48C240.608 39.736 241.104 39.864 241.648 39.864C242.192 39.864 242.688 39.736 243.136 39.48C243.594 39.2133 243.957 38.8347 244.224 38.344C244.49 37.8427 244.624 37.2613 244.624 36.6ZM250.012 29.16V41H248.556V29.16H250.012ZM253.246 30.808C252.968 30.808 252.734 30.712 252.542 30.52C252.35 30.328 252.254 30.0933 252.254 29.816C252.254 29.5387 252.35 29.304 252.542 29.112C252.734 28.92 252.968 28.824 253.246 28.824C253.512 28.824 253.736 28.92 253.918 29.112C254.11 29.304 254.206 29.5387 254.206 29.816C254.206 30.0933 254.11 30.328 253.918 30.52C253.736 30.712 253.512 30.808 253.246 30.808ZM253.95 32.232V41H252.494V32.232H253.95ZM257.519 39.8H261.823V41H255.855V39.8L260.111 33.416H255.887V32.232H261.791V33.416L257.519 39.8ZM271.712 36.28C271.712 36.5573 271.696 36.8507 271.664 37.16H264.656C264.71 38.024 265.003 38.7013 265.536 39.192C266.08 39.672 266.736 39.912 267.504 39.912C268.134 39.912 268.656 39.768 269.072 39.48C269.499 39.1813 269.798 38.7867 269.968 38.296H271.536C271.302 39.1387 270.832 39.8267 270.128 40.36C269.424 40.8827 268.55 41.144 267.504 41.144C266.672 41.144 265.926 40.9573 265.264 40.584C264.614 40.2107 264.102 39.6827 263.728 39C263.355 38.3067 263.168 37.5067 263.168 36.6C263.168 35.6933 263.35 34.8987 263.712 34.216C264.075 33.5333 264.582 33.0107 265.232 32.648C265.894 32.2747 266.651 32.088 267.504 32.088C268.336 32.088 269.072 32.2693 269.712 32.632C270.352 32.9947 270.843 33.496 271.184 34.136C271.536 34.7653 271.712 35.48 271.712 36.28ZM270.208 35.976C270.208 35.4213 270.086 34.9467 269.84 34.552C269.595 34.1467 269.259 33.8427 268.832 33.64C268.416 33.4267 267.952 33.32 267.44 33.32C266.704 33.32 266.075 33.5547 265.552 34.024C265.04 34.4933 264.747 35.144 264.672 35.976H270.208ZM8.096 59.848V61.032H5.056V71H3.6V61.032H0.544V59.848H8.096ZM17.8883 66.28C17.8883 66.5573 17.8723 66.8507 17.8403 67.16H10.8323C10.8856 68.024 11.1789 68.7013 11.7123 69.192C12.2563 69.672 12.9123 69.912 13.6803 69.912C14.3096 69.912 14.8323 69.768 15.2483 69.48C15.6749 69.1813 15.9736 68.7867 16.1443 68.296H17.7123C17.4776 69.1387 17.0083 69.8267 16.3043 70.36C15.6003 70.8827 14.7256 71.144 13.6803 71.144C12.8483 71.144 12.1016 70.9573 11.4403 70.584C10.7896 70.2107 10.2776 69.6827 9.90425 69C9.53092 68.3067 9.34425 67.5067 9.34425 66.6C9.34425 65.6933 9.52558 64.8987 9.88825 64.216C10.2509 63.5333 10.7576 63.0107 11.4083 62.648C12.0696 62.2747 12.8269 62.088 13.6803 62.088C14.5123 62.088 15.2483 62.2693 15.8883 62.632C16.5283 62.9947 17.0189 63.496 17.3603 64.136C17.7123 64.7653 17.8883 65.48 17.8883 66.28ZM16.3843 65.976C16.3843 65.4213 16.2616 64.9467 16.0163 64.552C15.7709 64.1467 15.4349 63.8427 15.0083 63.64C14.5923 63.4267 14.1283 63.32 13.6163 63.32C12.8803 63.32 12.2509 63.5547 11.7283 64.024C11.2163 64.4933 10.9229 65.144 10.8483 65.976H16.3843ZM19.2661 66.6C19.2661 65.6933 19.4475 64.904 19.8101 64.232C20.1728 63.5493 20.6741 63.0213 21.3141 62.648C21.9648 62.2747 22.7061 62.088 23.5381 62.088C24.6155 62.088 25.5008 62.3493 26.1941 62.872C26.8981 63.3947 27.3621 64.12 27.5861 65.048H26.0181C25.8688 64.5147 25.5755 64.0933 25.1381 63.784C24.7115 63.4747 24.1781 63.32 23.5381 63.32C22.7061 63.32 22.0341 63.608 21.5221 64.184C21.0101 64.7493 20.7541 65.5547 20.7541 66.6C20.7541 67.656 21.0101 68.472 21.5221 69.048C22.0341 69.624 22.7061 69.912 23.5381 69.912C24.1781 69.912 24.7115 69.7627 25.1381 69.464C25.5648 69.1653 25.8581 68.7387 26.0181 68.184H27.5861C27.3515 69.08 26.8821 69.8 26.1781 70.344C25.4741 70.8773 24.5941 71.144 23.5381 71.144C22.7061 71.144 21.9648 70.9573 21.3141 70.584C20.6741 70.2107 20.1728 69.6827 19.8101 69C19.4475 68.3173 19.2661 67.5173 19.2661 66.6ZM33.8809 62.072C34.5422 62.072 35.1395 62.216 35.6729 62.504C36.2062 62.7813 36.6222 63.2027 36.9209 63.768C37.2302 64.3333 37.3849 65.0213 37.3849 65.832V71H35.9449V66.04C35.9449 65.1653 35.7262 64.4987 35.2889 64.04C34.8515 63.5707 34.2542 63.336 33.4969 63.336C32.7289 63.336 32.1155 63.576 31.6569 64.056C31.2089 64.536 30.9849 65.2347 30.9849 66.152V71H29.5289V59.16H30.9849V63.48C31.2729 63.032 31.6675 62.6853 32.1689 62.44C32.6809 62.1947 33.2515 62.072 33.8809 62.072ZM44.0353 62.072C45.1019 62.072 45.9659 62.3973 46.6273 63.048C47.2886 63.688 47.6193 64.616 47.6193 65.832V71H46.1793V66.04C46.1793 65.1653 45.9606 64.4987 45.5233 64.04C45.0859 63.5707 44.4886 63.336 43.7313 63.336C42.9633 63.336 42.3499 63.576 41.8913 64.056C41.4433 64.536 41.2193 65.2347 41.2193 66.152V71H39.7633V62.232H41.2193V63.48C41.5073 63.032 41.8966 62.6853 42.3873 62.44C42.8886 62.1947 43.4379 62.072 44.0353 62.072ZM50.7496 60.808C50.4723 60.808 50.2376 60.712 50.0456 60.52C49.8536 60.328 49.7576 60.0933 49.7576 59.816C49.7576 59.5387 49.8536 59.304 50.0456 59.112C50.2376 58.92 50.4723 58.824 50.7496 58.824C51.0163 58.824 51.2403 58.92 51.4216 59.112C51.6136 59.304 51.7096 59.5387 51.7096 59.816C51.7096 60.0933 51.6136 60.328 51.4216 60.52C51.2403 60.712 51.0163 60.808 50.7496 60.808ZM51.4536 62.232V71H49.9976V62.232H51.4536ZM53.3911 66.6C53.3911 65.6933 53.5725 64.904 53.9351 64.232C54.2978 63.5493 54.7991 63.0213 55.4391 62.648C56.0898 62.2747 56.8311 62.088 57.6631 62.088C58.7405 62.088 59.6258 62.3493 60.3191 62.872C61.0231 63.3947 61.4871 64.12 61.7111 65.048H60.1431C59.9938 64.5147 59.7005 64.0933 59.2631 63.784C58.8365 63.4747 58.3031 63.32 57.6631 63.32C56.8311 63.32 56.1591 63.608 55.6471 64.184C55.1351 64.7493 54.8791 65.5547 54.8791 66.6C54.8791 67.656 55.1351 68.472 55.6471 69.048C56.1591 69.624 56.8311 69.912 57.6631 69.912C58.3031 69.912 58.8365 69.7627 59.2631 69.464C59.6898 69.1653 59.9831 68.7387 60.1431 68.184H61.7111C61.4765 69.08 61.0071 69.8 60.3031 70.344C59.5991 70.8773 58.7191 71.144 57.6631 71.144C56.8311 71.144 56.0898 70.9573 55.4391 70.584C54.7991 70.2107 54.2978 69.6827 53.9351 69C53.5725 68.3173 53.3911 67.5173 53.3911 66.6ZM63.1099 66.584C63.1099 65.688 63.2912 64.904 63.6539 64.232C64.0165 63.5493 64.5125 63.0213 65.1419 62.648C65.7819 62.2747 66.4912 62.088 67.2699 62.088C68.0379 62.088 68.7045 62.2533 69.2699 62.584C69.8352 62.9147 70.2565 63.3307 70.5339 63.832V62.232H72.0059V71H70.5339V69.368C70.2459 69.88 69.8139 70.3067 69.2379 70.648C68.6725 70.9787 68.0112 71.144 67.2539 71.144C66.4752 71.144 65.7712 70.952 65.1419 70.568C64.5125 70.184 64.0165 69.6453 63.6539 68.952C63.2912 68.2587 63.1099 67.4693 63.1099 66.584ZM70.5339 66.6C70.5339 65.9387 70.4005 65.3627 70.1339 64.872C69.8672 64.3813 69.5045 64.008 69.0459 63.752C68.5979 63.4853 68.1019 63.352 67.5579 63.352C67.0139 63.352 66.5179 63.48 66.0699 63.736C65.6219 63.992 65.2645 64.3653 64.9979 64.856C64.7312 65.3467 64.5979 65.9227 64.5979 66.584C64.5979 67.256 64.7312 67.8427 64.9979 68.344C65.2645 68.8347 65.6219 69.2133 66.0699 69.48C66.5179 69.736 67.0139 69.864 67.5579 69.864C68.1019 69.864 68.5979 69.736 69.0459 69.48C69.5045 69.2133 69.8672 68.8347 70.1339 68.344C70.4005 67.8427 70.5339 67.2613 70.5339 66.6ZM75.9224 59.16V71H74.4664V59.16H75.9224ZM84.1255 59.848V71H82.6695V59.848H84.1255ZM90.879 62.072C91.9457 62.072 92.8097 62.3973 93.471 63.048C94.1323 63.688 94.463 64.616 94.463 65.832V71H93.023V66.04C93.023 65.1653 92.8043 64.4987 92.367 64.04C91.9297 63.5707 91.3323 63.336 90.575 63.336C89.807 63.336 89.1937 63.576 88.735 64.056C88.287 64.536 88.063 65.2347 88.063 66.152V71H86.607V62.232H88.063V63.48C88.351 63.032 88.7403 62.6853 89.231 62.44C89.7323 62.1947 90.2817 62.072 90.879 62.072ZM99.9454 71.144C99.2734 71.144 98.6707 71.032 98.1374 70.808C97.604 70.5733 97.1827 70.2533 96.8734 69.848C96.564 69.432 96.3934 68.9573 96.3614 68.424H97.8654C97.908 68.8613 98.1107 69.2187 98.4734 69.496C98.8467 69.7733 99.332 69.912 99.9294 69.912C100.484 69.912 100.921 69.7893 101.241 69.544C101.561 69.2987 101.721 68.9893 101.721 68.616C101.721 68.232 101.551 67.9493 101.209 67.768C100.868 67.576 100.34 67.3893 99.6254 67.208C98.9747 67.0373 98.4414 66.8667 98.0254 66.696C97.62 66.5147 97.268 66.2533 96.9694 65.912C96.6814 65.56 96.5374 65.1013 96.5374 64.536C96.5374 64.088 96.6707 63.6773 96.9374 63.304C97.204 62.9307 97.5827 62.6373 98.0734 62.424C98.564 62.2 99.124 62.088 99.7534 62.088C100.724 62.088 101.508 62.3333 102.105 62.824C102.703 63.3147 103.023 63.9867 103.065 64.84H101.609C101.577 64.3813 101.391 64.0133 101.049 63.736C100.719 63.4587 100.271 63.32 99.7054 63.32C99.1827 63.32 98.7667 63.432 98.4574 63.656C98.148 63.88 97.9934 64.1733 97.9934 64.536C97.9934 64.824 98.084 65.064 98.2654 65.256C98.4574 65.4373 98.692 65.5867 98.9694 65.704C99.2574 65.8107 99.652 65.9333 100.153 66.072C100.783 66.2427 101.295 66.4133 101.689 66.584C102.084 66.744 102.42 66.9893 102.697 67.32C102.985 67.6507 103.135 68.0827 103.145 68.616C103.145 69.096 103.012 69.528 102.745 69.912C102.479 70.296 102.1 70.6 101.609 70.824C101.129 71.0373 100.575 71.144 99.9454 71.144ZM106.977 63.432V68.6C106.977 69.0267 107.067 69.3307 107.249 69.512C107.43 69.6827 107.745 69.768 108.193 69.768H109.265V71H107.953C107.142 71 106.534 70.8133 106.129 70.44C105.723 70.0667 105.521 69.4533 105.521 68.6V63.432H104.385V62.232H105.521V60.024H106.977V62.232H109.265V63.432H106.977ZM111.781 60.808C111.504 60.808 111.269 60.712 111.077 60.52C110.885 60.328 110.789 60.0933 110.789 59.816C110.789 59.5387 110.885 59.304 111.077 59.112C111.269 58.92 111.504 58.824 111.781 58.824C112.048 58.824 112.272 58.92 112.453 59.112C112.645 59.304 112.741 59.5387 112.741 59.816C112.741 60.0933 112.645 60.328 112.453 60.52C112.272 60.712 112.048 60.808 111.781 60.808ZM112.485 62.232V71H111.029V62.232H112.485ZM116.742 63.432V68.6C116.742 69.0267 116.833 69.3307 117.014 69.512C117.196 69.6827 117.51 69.768 117.958 69.768H119.03V71H117.718C116.908 71 116.3 70.8133 115.894 70.44C115.489 70.0667 115.286 69.4533 115.286 68.6V63.432H114.15V62.232H115.286V60.024H116.742V62.232H119.03V63.432H116.742ZM128.571 62.232V71H127.115V69.704C126.837 70.152 126.448 70.504 125.947 70.76C125.456 71.0053 124.912 71.128 124.315 71.128C123.632 71.128 123.019 70.9893 122.475 70.712C121.931 70.424 121.499 69.9973 121.179 69.432C120.869 68.8667 120.715 68.1787 120.715 67.368V62.232H122.155V67.176C122.155 68.04 122.373 68.7067 122.811 69.176C123.248 69.6347 123.845 69.864 124.603 69.864C125.381 69.864 125.995 69.624 126.443 69.144C126.891 68.664 127.115 67.9653 127.115 67.048V62.232H128.571ZM132.805 63.432V68.6C132.805 69.0267 132.896 69.3307 133.077 69.512C133.258 69.6827 133.573 69.768 134.021 69.768H135.093V71H133.781C132.97 71 132.362 70.8133 131.957 70.44C131.552 70.0667 131.349 69.4533 131.349 68.6V63.432H130.213V62.232H131.349V60.024H132.805V62.232H135.093V63.432H132.805ZM144.857 66.28C144.857 66.5573 144.841 66.8507 144.809 67.16H137.801C137.854 68.024 138.148 68.7013 138.681 69.192C139.225 69.672 139.881 69.912 140.649 69.912C141.278 69.912 141.801 69.768 142.217 69.48C142.644 69.1813 142.942 68.7867 143.113 68.296H144.681C144.446 69.1387 143.977 69.8267 143.273 70.36C142.569 70.8827 141.694 71.144 140.649 71.144C139.817 71.144 139.07 70.9573 138.409 70.584C137.758 70.2107 137.246 69.6827 136.873 69C136.5 68.3067 136.313 67.5067 136.313 66.6C136.313 65.6933 136.494 64.8987 136.857 64.216C137.22 63.5333 137.726 63.0107 138.377 62.648C139.038 62.2747 139.796 62.088 140.649 62.088C141.481 62.088 142.217 62.2693 142.857 62.632C143.497 62.9947 143.988 63.496 144.329 64.136C144.681 64.7653 144.857 65.48 144.857 66.28ZM143.353 65.976C143.353 65.4213 143.23 64.9467 142.985 64.552C142.74 64.1467 142.404 63.8427 141.977 63.64C141.561 63.4267 141.097 63.32 140.585 63.32C139.849 63.32 139.22 63.5547 138.697 64.024C138.185 64.4933 137.892 65.144 137.817 65.976H143.353Z" fill="#44566C"/>
<path d="M0.774 34.718C0.774 33.494 1.05 32.396 1.602 31.424C2.154 30.44 2.904 29.672 3.852 29.12C4.812 28.568 5.874 28.292 7.038 28.292C8.406 28.292 9.6 28.622 10.62 29.282C11.64 29.942 12.384 30.878 12.852 32.09H10.89C10.542 31.334 10.038 30.752 9.378 30.344C8.73 29.936 7.95 29.732 7.038 29.732C6.162 29.732 5.376 29.936 4.68 30.344C3.984 30.752 3.438 31.334 3.042 32.09C2.646 32.834 2.448 33.71 2.448 34.718C2.448 35.714 2.646 36.59 3.042 37.346C3.438 38.09 3.984 38.666 4.68 39.074C5.376 39.482 6.162 39.686 7.038 39.686C7.95 39.686 8.73 39.488 9.378 39.092C10.038 38.684 10.542 38.102 10.89 37.346H12.852C12.384 38.546 11.64 39.476 10.62 40.136C9.6 40.784 8.406 41.108 7.038 41.108C5.874 41.108 4.812 40.838 3.852 40.298C2.904 39.746 2.154 38.984 1.602 38.012C1.05 37.04 0.774 35.942 0.774 34.718ZM19.5923 41.162C18.6683 41.162 17.8283 40.952 17.0723 40.532C16.3283 40.112 15.7403 39.518 15.3083 38.75C14.8883 37.97 14.6783 37.07 14.6783 36.05C14.6783 35.042 14.8943 34.154 15.3263 33.386C15.7703 32.606 16.3703 32.012 17.1263 31.604C17.8823 31.184 18.7283 30.974 19.6643 30.974C20.6003 30.974 21.4463 31.184 22.2023 31.604C22.9583 32.012 23.5523 32.6 23.9843 33.368C24.4283 34.136 24.6503 35.03 24.6503 36.05C24.6503 37.07 24.4223 37.97 23.9663 38.75C23.5223 39.518 22.9163 40.112 22.1483 40.532C21.3803 40.952 20.5283 41.162 19.5923 41.162ZM19.5923 39.722C20.1803 39.722 20.7323 39.584 21.2483 39.308C21.7643 39.032 22.1783 38.618 22.4903 38.066C22.8143 37.514 22.9763 36.842 22.9763 36.05C22.9763 35.258 22.8203 34.586 22.5083 34.034C22.1963 33.482 21.7883 33.074 21.2843 32.81C20.7803 32.534 20.2343 32.396 19.6463 32.396C19.0463 32.396 18.4943 32.534 17.9903 32.81C17.4983 33.074 17.1023 33.482 16.8023 34.034C16.5023 34.586 16.3523 35.258 16.3523 36.05C16.3523 36.854 16.4963 37.532 16.7843 38.084C17.0843 38.636 17.4803 39.05 17.9723 39.326C18.4643 39.59 19.0043 39.722 19.5923 39.722ZM38.666 30.956C39.434 30.956 40.118 31.118 40.718 31.442C41.318 31.754 41.792 32.228 42.14 32.864C42.488 33.5 42.662 34.274 42.662 35.186V41H41.042V35.42C41.042 34.436 40.796 33.686 40.304 33.17C39.824 32.642 39.17 32.378 38.342 32.378C37.49 32.378 36.812 32.654 36.308 33.206C35.804 33.746 35.552 34.532 35.552 35.564V41H33.932V35.42C33.932 34.436 33.686 33.686 33.194 33.17C32.714 32.642 32.06 32.378 31.232 32.378C30.38 32.378 29.702 32.654 29.198 33.206C28.694 33.746 28.442 34.532 28.442 35.564V41H26.804V31.136H28.442V32.558C28.766 32.042 29.198 31.646 29.738 31.37C30.29 31.094 30.896 30.956 31.556 30.956C32.384 30.956 33.116 31.142 33.752 31.514C34.388 31.886 34.862 32.432 35.174 33.152C35.45 32.456 35.906 31.916 36.542 31.532C37.178 31.148 37.886 30.956 38.666 30.956ZM46.9869 32.954C47.3109 32.39 47.7909 31.922 48.4269 31.55C49.0749 31.166 49.8249 30.974 50.6769 30.974C51.5529 30.974 52.3449 31.184 53.0529 31.604C53.7729 32.024 54.3369 32.618 54.7449 33.386C55.1529 34.142 55.3569 35.024 55.3569 36.032C55.3569 37.028 55.1529 37.916 54.7449 38.696C54.3369 39.476 53.7729 40.082 53.0529 40.514C52.3449 40.946 51.5529 41.162 50.6769 41.162C49.8369 41.162 49.0929 40.976 48.4449 40.604C47.8089 40.22 47.3229 39.746 46.9869 39.182V45.68H45.3489V31.136H46.9869V32.954ZM53.6829 36.032C53.6829 35.288 53.5329 34.64 53.2329 34.088C52.9329 33.536 52.5249 33.116 52.0089 32.828C51.5049 32.54 50.9469 32.396 50.3349 32.396C49.7349 32.396 49.1769 32.546 48.6609 32.846C48.1569 33.134 47.7489 33.56 47.4369 34.124C47.1369 34.676 46.9869 35.318 46.9869 36.05C46.9869 36.794 47.1369 37.448 47.4369 38.012C47.7489 38.564 48.1569 38.99 48.6609 39.29C49.1769 39.578 49.7349 39.722 50.3349 39.722C50.9469 39.722 51.5049 39.578 52.0089 39.29C52.5249 38.99 52.9329 38.564 53.2329 38.012C53.5329 37.448 53.6829 36.788 53.6829 36.032ZM66.261 31.136V41H64.623V39.542C64.311 40.046 63.873 40.442 63.309 40.73C62.757 41.006 62.145 41.144 61.473 41.144C60.705 41.144 60.015 40.988 59.403 40.676C58.791 40.352 58.305 39.872 57.945 39.236C57.597 38.6 57.423 37.826 57.423 36.914V31.136H59.043V36.698C59.043 37.67 59.289 38.42 59.781 38.948C60.273 39.464 60.945 39.722 61.797 39.722C62.673 39.722 63.363 39.452 63.867 38.912C64.371 38.372 64.623 37.586 64.623 36.554V31.136H66.261ZM71.0246 32.486V38.3C71.0246 38.78 71.1266 39.122 71.3306 39.326C71.5346 39.518 71.8886 39.614 72.3926 39.614H73.5986V41H72.1226C71.2106 41 70.5266 40.79 70.0706 40.37C69.6146 39.95 69.3866 39.26 69.3866 38.3V32.486H68.1086V31.136H69.3866V28.652H71.0246V31.136H73.5986V32.486H71.0246ZM84.5833 35.69C84.5833 36.002 84.5653 36.332 84.5293 36.68H76.6453C76.7053 37.652 77.0353 38.414 77.6353 38.966C78.2473 39.506 78.9853 39.776 79.8493 39.776C80.5573 39.776 81.1453 39.614 81.6133 39.29C82.0933 38.954 82.4293 38.51 82.6213 37.958H84.3853C84.1213 38.906 83.5933 39.68 82.8013 40.28C82.0093 40.868 81.0253 41.162 79.8493 41.162C78.9133 41.162 78.0733 40.952 77.3293 40.532C76.5973 40.112 76.0213 39.518 75.6013 38.75C75.1813 37.97 74.9713 37.07 74.9713 36.05C74.9713 35.03 75.1753 34.136 75.5833 33.368C75.9913 32.6 76.5613 32.012 77.2933 31.604C78.0373 31.184 78.8893 30.974 79.8493 30.974C80.7853 30.974 81.6133 31.178 82.3333 31.586C83.0533 31.994 83.6053 32.558 83.9893 33.278C84.3853 33.986 84.5833 34.79 84.5833 35.69ZM82.8913 35.348C82.8913 34.724 82.7533 34.19 82.4773 33.746C82.2013 33.29 81.8233 32.948 81.3433 32.72C80.8753 32.48 80.3533 32.36 79.7773 32.36C78.9493 32.36 78.2413 32.624 77.6533 33.152C77.0773 33.68 76.7473 34.412 76.6633 35.348H82.8913ZM88.3834 32.738C88.6714 32.174 89.0794 31.736 89.6074 31.424C90.1474 31.112 90.8014 30.956 91.5694 30.956V32.648H91.1374C89.3014 32.648 88.3834 33.644 88.3834 35.636V41H86.7454V31.136H88.3834V32.738ZM102.237 41.126C101.409 41.126 100.665 40.982 100.005 40.694C99.357 40.394 98.847 39.986 98.475 39.47C98.103 38.942 97.911 38.336 97.899 37.652H99.645C99.705 38.24 99.945 38.738 100.365 39.146C100.797 39.542 101.421 39.74 102.237 39.74C103.017 39.74 103.629 39.548 104.073 39.164C104.529 38.768 104.757 38.264 104.757 37.652C104.757 37.172 104.625 36.782 104.361 36.482C104.097 36.182 103.767 35.954 103.371 35.798C102.975 35.642 102.441 35.474 101.769 35.294C100.941 35.078 100.275 34.862 99.771 34.646C99.279 34.43 98.853 34.094 98.493 33.638C98.145 33.17 97.971 32.546 97.971 31.766C97.971 31.082 98.145 30.476 98.493 29.948C98.841 29.42 99.327 29.012 99.951 28.724C100.587 28.436 101.313 28.292 102.129 28.292C103.305 28.292 104.265 28.586 105.009 29.174C105.765 29.762 106.191 30.542 106.287 31.514H104.487C104.427 31.034 104.175 30.614 103.731 30.254C103.287 29.882 102.699 29.696 101.967 29.696C101.283 29.696 100.725 29.876 100.293 30.236C99.861 30.584 99.645 31.076 99.645 31.712C99.645 32.168 99.771 32.54 100.023 32.828C100.287 33.116 100.605 33.338 100.977 33.494C101.361 33.638 101.895 33.806 102.579 33.998C103.407 34.226 104.073 34.454 104.577 34.682C105.081 34.898 105.513 35.24 105.873 35.708C106.233 36.164 106.413 36.788 106.413 37.58C106.413 38.192 106.251 38.768 105.927 39.308C105.603 39.848 105.123 40.286 104.487 40.622C103.851 40.958 103.101 41.126 102.237 41.126ZM108.212 36.05C108.212 35.03 108.416 34.142 108.824 33.386C109.232 32.618 109.796 32.024 110.516 31.604C111.248 31.184 112.082 30.974 113.018 30.974C114.23 30.974 115.226 31.268 116.006 31.856C116.798 32.444 117.32 33.26 117.572 34.304H115.808C115.64 33.704 115.31 33.23 114.818 32.882C114.338 32.534 113.738 32.36 113.018 32.36C112.082 32.36 111.326 32.684 110.75 33.332C110.174 33.968 109.886 34.874 109.886 36.05C109.886 37.238 110.174 38.156 110.75 38.804C111.326 39.452 112.082 39.776 113.018 39.776C113.738 39.776 114.338 39.608 114.818 39.272C115.298 38.936 115.628 38.456 115.808 37.832H117.572C117.308 38.84 116.78 39.65 115.988 40.262C115.196 40.862 114.206 41.162 113.018 41.162C112.082 41.162 111.248 40.952 110.516 40.532C109.796 40.112 109.232 39.518 108.824 38.75C108.416 37.982 108.212 37.082 108.212 36.05ZM120.603 29.534C120.291 29.534 120.027 29.426 119.811 29.21C119.595 28.994 119.487 28.73 119.487 28.418C119.487 28.106 119.595 27.842 119.811 27.626C120.027 27.41 120.291 27.302 120.603 27.302C120.903 27.302 121.155 27.41 121.359 27.626C121.575 27.842 121.683 28.106 121.683 28.418C121.683 28.73 121.575 28.994 121.359 29.21C121.155 29.426 120.903 29.534 120.603 29.534ZM121.395 31.136V41H119.757V31.136H121.395ZM133.187 35.69C133.187 36.002 133.169 36.332 133.133 36.68H125.249C125.309 37.652 125.639 38.414 126.239 38.966C126.851 39.506 127.589 39.776 128.453 39.776C129.161 39.776 129.749 39.614 130.217 39.29C130.697 38.954 131.033 38.51 131.225 37.958H132.989C132.725 38.906 132.197 39.68 131.405 40.28C130.613 40.868 129.629 41.162 128.453 41.162C127.517 41.162 126.677 40.952 125.933 40.532C125.201 40.112 124.625 39.518 124.205 38.75C123.785 37.97 123.575 37.07 123.575 36.05C123.575 35.03 123.779 34.136 124.187 33.368C124.595 32.6 125.165 32.012 125.897 31.604C126.641 31.184 127.493 30.974 128.453 30.974C129.389 30.974 130.217 31.178 130.937 31.586C131.657 31.994 132.209 32.558 132.593 33.278C132.989 33.986 133.187 34.79 133.187 35.69ZM131.495 35.348C131.495 34.724 131.357 34.19 131.081 33.746C130.805 33.29 130.427 32.948 129.947 32.72C129.479 32.48 128.957 32.36 128.381 32.36C127.553 32.36 126.845 32.624 126.257 33.152C125.681 33.68 125.351 34.412 125.267 35.348H131.495ZM140.155 30.956C141.355 30.956 142.327 31.322 143.071 32.054C143.815 32.774 144.187 33.818 144.187 35.186V41H142.567V35.42C142.567 34.436 142.321 33.686 141.829 33.17C141.337 32.642 140.665 32.378 139.813 32.378C138.949 32.378 138.259 32.648 137.743 33.188C137.239 33.728 136.987 34.514 136.987 35.546V41H135.349V31.136H136.987V32.54C137.311 32.036 137.749 31.646 138.301 31.37C138.865 31.094 139.483 30.956 140.155 30.956ZM146.251 36.05C146.251 35.03 146.455 34.142 146.863 33.386C147.271 32.618 147.835 32.024 148.555 31.604C149.287 31.184 150.121 30.974 151.057 30.974C152.269 30.974 153.265 31.268 154.045 31.856C154.837 32.444 155.359 33.26 155.611 34.304H153.847C153.679 33.704 153.349 33.23 152.857 32.882C152.377 32.534 151.777 32.36 151.057 32.36C150.121 32.36 149.365 32.684 148.789 33.332C148.213 33.968 147.925 34.874 147.925 36.05C147.925 37.238 148.213 38.156 148.789 38.804C149.365 39.452 150.121 39.776 151.057 39.776C151.777 39.776 152.377 39.608 152.857 39.272C153.337 38.936 153.667 38.456 153.847 37.832H155.611C155.347 38.84 154.819 39.65 154.027 40.262C153.235 40.862 152.245 41.162 151.057 41.162C150.121 41.162 149.287 40.952 148.555 40.532C147.835 40.112 147.271 39.518 146.863 38.75C146.455 37.982 146.251 37.082 146.251 36.05ZM166.796 35.69C166.796 36.002 166.778 36.332 166.742 36.68H158.858C158.918 37.652 159.248 38.414 159.848 38.966C160.46 39.506 161.198 39.776 162.062 39.776C162.77 39.776 163.358 39.614 163.826 39.29C164.306 38.954 164.642 38.51 164.834 37.958H166.598C166.334 38.906 165.806 39.68 165.014 40.28C164.222 40.868 163.238 41.162 162.062 41.162C161.126 41.162 160.286 40.952 159.542 40.532C158.81 40.112 158.234 39.518 157.814 38.75C157.394 37.97 157.184 37.07 157.184 36.05C157.184 35.03 157.388 34.136 157.796 33.368C158.204 32.6 158.774 32.012 159.506 31.604C160.25 31.184 161.102 30.974 162.062 30.974C162.998 30.974 163.826 31.178 164.546 31.586C165.266 31.994 165.818 32.558 166.202 33.278C166.598 33.986 166.796 34.79 166.796 35.69ZM165.104 35.348C165.104 34.724 164.966 34.19 164.69 33.746C164.414 33.29 164.036 32.948 163.556 32.72C163.088 32.48 162.566 32.36 161.99 32.36C161.162 32.36 160.454 32.624 159.866 33.152C159.29 33.68 158.96 34.412 158.876 35.348H165.104ZM179.683 34.52V35.752H173.299V34.52H179.683Z" fill="#0F172A"/>
</svg>
