<svg width="165" height="76" viewBox="0 0 165 76" fill="none" xmlns="http://www.w3.org/2000/svg">
<path d="M0.714 9.978C1.89933 9.026 2.828 8.24667 3.5 7.64C4.172 7.024 4.73667 6.38467 5.194 5.722C5.66067 5.05 5.894 4.392 5.894 3.748C5.894 3.14133 5.74467 2.66533 5.446 2.32C5.15667 1.96533 4.68533 1.788 4.032 1.788C3.39733 1.788 2.90267 1.98867 2.548 2.39C2.20267 2.782 2.016 3.30933 1.988 3.972H0.756C0.793333 2.92667 1.11067 2.11933 1.708 1.55C2.30533 0.980666 3.07533 0.695999 4.018 0.695999C4.97933 0.695999 5.74 0.961999 6.3 1.494C6.86933 2.026 7.154 2.75867 7.154 3.692C7.154 4.46667 6.92067 5.22267 6.454 5.96C5.99667 6.688 5.474 7.332 4.886 7.892C4.298 8.44267 3.54667 9.08667 2.632 9.824H7.448V10.888H0.714V9.978ZM8.92073 5.834C8.92073 4.22867 9.18207 2.978 9.70473 2.082C10.2274 1.17667 11.1421 0.724 12.4487 0.724C13.7461 0.724 14.6561 1.17667 15.1787 2.082C15.7014 2.978 15.9627 4.22867 15.9627 5.834C15.9627 7.46733 15.7014 8.73667 15.1787 9.642C14.6561 10.5473 13.7461 11 12.4487 11C11.1421 11 10.2274 10.5473 9.70473 9.642C9.18207 8.73667 8.92073 7.46733 8.92073 5.834ZM14.7027 5.834C14.7027 5.022 14.6467 4.336 14.5347 3.776C14.4321 3.20667 14.2127 2.74933 13.8767 2.404C13.5501 2.05867 13.0741 1.886 12.4487 1.886C11.8141 1.886 11.3287 2.05867 10.9927 2.404C10.6661 2.74933 10.4467 3.20667 10.3347 3.776C10.2321 4.336 10.1807 5.022 10.1807 5.834C10.1807 6.674 10.2321 7.37867 10.3347 7.948C10.4467 8.51733 10.6661 8.97467 10.9927 9.32C11.3287 9.66533 11.8141 9.838 12.4487 9.838C13.0741 9.838 13.5501 9.66533 13.8767 9.32C14.2127 8.97467 14.4321 8.51733 14.5347 7.948C14.6467 7.37867 14.7027 6.674 14.7027 5.834ZM17.3758 2.04V0.877999H20.0078V11H18.7198V2.04H17.3758ZM23.8341 8.284C23.9275 8.816 24.1421 9.22667 24.4781 9.516C24.8235 9.80533 25.2855 9.95 25.8641 9.95C26.6388 9.95 27.2081 9.64667 27.5721 9.04C27.9455 8.43333 28.1228 7.41133 28.1041 5.974C27.9081 6.394 27.5815 6.72533 27.1241 6.968C26.6668 7.20133 26.1581 7.318 25.5981 7.318C24.9728 7.318 24.4128 7.192 23.9181 6.94C23.4328 6.67867 23.0501 6.30067 22.7701 5.806C22.4901 5.31133 22.3501 4.714 22.3501 4.014C22.3501 3.01533 22.6395 2.21267 23.2181 1.606C23.7968 0.99 24.6181 0.681999 25.6821 0.681999C26.9888 0.681999 27.9035 1.10667 28.4261 1.956C28.9581 2.80533 29.2241 4.07 29.2241 5.75C29.2241 6.926 29.1168 7.89667 28.9021 8.662C28.6968 9.42733 28.3421 10.0107 27.8381 10.412C27.3435 10.8133 26.6621 11.014 25.7941 11.014C24.8421 11.014 24.1001 10.7573 23.5681 10.244C23.0361 9.73067 22.7328 9.07733 22.6581 8.284H23.8341ZM25.8081 6.24C26.4335 6.24 26.9468 6.04867 27.3481 5.666C27.7495 5.274 27.9501 4.74667 27.9501 4.084C27.9501 3.384 27.7541 2.81933 27.3621 2.39C26.9701 1.96067 26.4195 1.746 25.7101 1.746C25.0568 1.746 24.5341 1.95133 24.1421 2.362C23.7595 2.77267 23.5681 3.314 23.5681 3.986C23.5681 4.66733 23.7595 5.21333 24.1421 5.624C24.5248 6.03467 25.0801 6.24 25.8081 6.24ZM40.2769 5.33V6.408H34.6909V5.33H40.2769ZM52.9243 4.098C52.9243 4.91 52.6443 5.58667 52.0843 6.128C51.5336 6.66 50.6889 6.926 49.5503 6.926H47.6743V11H46.4003V1.242H49.5503C50.6516 1.242 51.4869 1.508 52.0563 2.04C52.6349 2.572 52.9243 3.258 52.9243 4.098ZM49.5503 5.876C50.2596 5.876 50.7823 5.722 51.1183 5.414C51.4543 5.106 51.6223 4.66733 51.6223 4.098C51.6223 2.894 50.9316 2.292 49.5503 2.292H47.6743V5.876H49.5503ZM55.7817 4.574C56.0057 4.13533 56.323 3.79467 56.7337 3.552C57.1537 3.30933 57.6624 3.188 58.2597 3.188V4.504H57.9237C56.4957 4.504 55.7817 5.27867 55.7817 6.828V11H54.5077V3.328H55.7817V4.574ZM66.7303 6.87C66.7303 7.11267 66.7163 7.36933 66.6883 7.64H60.5563C60.603 8.396 60.8597 8.98867 61.3263 9.418C61.8023 9.838 62.3763 10.048 63.0483 10.048C63.599 10.048 64.0563 9.922 64.4203 9.67C64.7937 9.40867 65.055 9.06333 65.2043 8.634H66.5763C66.371 9.37133 65.9603 9.97333 65.3443 10.44C64.7283 10.8973 63.963 11.126 63.0483 11.126C62.3203 11.126 61.667 10.9627 61.0883 10.636C60.519 10.3093 60.071 9.84733 59.7443 9.25C59.4177 8.64333 59.2543 7.94333 59.2543 7.15C59.2543 6.35667 59.413 5.66133 59.7303 5.064C60.0477 4.46667 60.491 4.00933 61.0603 3.692C61.639 3.36533 62.3017 3.202 63.0483 3.202C63.7763 3.202 64.4203 3.36067 64.9803 3.678C65.5403 3.99533 65.9697 4.434 66.2683 4.994C66.5763 5.54467 66.7303 6.17 66.7303 6.87ZM65.4143 6.604C65.4143 6.11867 65.307 5.70333 65.0923 5.358C64.8777 5.00333 64.5837 4.73733 64.2103 4.56C63.8463 4.37333 63.4403 4.28 62.9923 4.28C62.3483 4.28 61.7977 4.48533 61.3403 4.896C60.8923 5.30667 60.6357 5.876 60.5703 6.604H65.4143ZM71.128 11.126C70.54 11.126 70.0127 11.028 69.546 10.832C69.0793 10.6267 68.7107 10.3467 68.44 9.992C68.1693 9.628 68.02 9.21267 67.992 8.746H69.308C69.3453 9.12867 69.5227 9.44133 69.84 9.684C70.1667 9.92667 70.5913 10.048 71.114 10.048C71.5993 10.048 71.982 9.94067 72.262 9.726C72.542 9.51133 72.682 9.24067 72.682 8.914C72.682 8.578 72.5327 8.33067 72.234 8.172C71.9353 8.004 71.4733 7.84067 70.848 7.682C70.2787 7.53267 69.812 7.38333 69.448 7.234C69.0933 7.07533 68.7853 6.84667 68.524 6.548C68.272 6.24 68.146 5.83867 68.146 5.344C68.146 4.952 68.2627 4.59267 68.496 4.266C68.7293 3.93933 69.0607 3.68267 69.49 3.496C69.9193 3.3 70.4093 3.202 70.96 3.202C71.8093 3.202 72.4953 3.41667 73.018 3.846C73.5407 4.27533 73.8207 4.86333 73.858 5.61H72.584C72.556 5.20867 72.3927 4.88667 72.094 4.644C71.8047 4.40133 71.4127 4.28 70.918 4.28C70.4607 4.28 70.0967 4.378 69.826 4.574C69.5553 4.77 69.42 5.02667 69.42 5.344C69.42 5.596 69.4993 5.806 69.658 5.974C69.826 6.13267 70.0313 6.26333 70.274 6.366C70.526 6.45933 70.8713 6.56667 71.31 6.688C71.8607 6.83733 72.3087 6.98667 72.654 7.136C72.9993 7.276 73.2933 7.49067 73.536 7.78C73.788 8.06933 73.9187 8.44733 73.928 8.914C73.928 9.334 73.8113 9.712 73.578 10.048C73.3447 10.384 73.0133 10.65 72.584 10.846C72.164 11.0327 71.6787 11.126 71.128 11.126ZM82.7264 6.87C82.7264 7.11267 82.7124 7.36933 82.6844 7.64H76.5524C76.5991 8.396 76.8558 8.98867 77.3224 9.418C77.7984 9.838 78.3724 10.048 79.0444 10.048C79.5951 10.048 80.0524 9.922 80.4164 9.67C80.7898 9.40867 81.0511 9.06333 81.2004 8.634H82.5724C82.3671 9.37133 81.9564 9.97333 81.3404 10.44C80.7244 10.8973 79.9591 11.126 79.0444 11.126C78.3164 11.126 77.6631 10.9627 77.0844 10.636C76.5151 10.3093 76.0671 9.84733 75.7404 9.25C75.4138 8.64333 75.2504 7.94333 75.2504 7.15C75.2504 6.35667 75.4091 5.66133 75.7264 5.064C76.0438 4.46667 76.4871 4.00933 77.0564 3.692C77.6351 3.36533 78.2978 3.202 79.0444 3.202C79.7724 3.202 80.4164 3.36067 80.9764 3.678C81.5364 3.99533 81.9658 4.434 82.2644 4.994C82.5724 5.54467 82.7264 6.17 82.7264 6.87ZM81.4104 6.604C81.4104 6.11867 81.3031 5.70333 81.0884 5.358C80.8738 5.00333 80.5798 4.73733 80.2064 4.56C79.8424 4.37333 79.4364 4.28 78.9884 4.28C78.3444 4.28 77.7938 4.48533 77.3364 4.896C76.8884 5.30667 76.6318 5.876 76.5664 6.604H81.4104ZM88.1461 3.188C89.0794 3.188 89.8354 3.47267 90.4141 4.042C90.9927 4.602 91.2821 5.414 91.2821 6.478V11H90.0221V6.66C90.0221 5.89467 89.8307 5.31133 89.4481 4.91C89.0654 4.49933 88.5427 4.294 87.8801 4.294C87.2081 4.294 86.6714 4.504 86.2701 4.924C85.8781 5.344 85.6821 5.95533 85.6821 6.758V11H84.4081V3.328H85.6821V4.42C85.9341 4.028 86.2747 3.72467 86.7041 3.51C87.1427 3.29533 87.6234 3.188 88.1461 3.188ZM94.9172 4.378V8.9C94.9172 9.27333 94.9965 9.53933 95.1552 9.698C95.3138 9.84733 95.5892 9.922 95.9812 9.922H96.9192V11H95.7712C95.0618 11 94.5298 10.8367 94.1752 10.51C93.8205 10.1833 93.6432 9.64667 93.6432 8.9V4.378H92.6492V3.328H93.6432V1.396H94.9172V3.328H96.9192V4.378H94.9172ZM9.68 63.08C9.37067 62.4293 8.92267 61.928 8.336 61.576C7.74933 61.2133 7.06667 61.032 6.288 61.032C5.50933 61.032 4.80533 61.2133 4.176 61.576C3.55733 61.928 3.06667 62.44 2.704 63.112C2.352 63.7733 2.176 64.5413 2.176 65.416C2.176 66.2907 2.352 67.0587 2.704 67.72C3.06667 68.3813 3.55733 68.8933 4.176 69.256C4.80533 69.608 5.50933 69.784 6.288 69.784C7.376 69.784 8.272 69.4587 8.976 68.808C9.68 68.1573 10.0907 67.2773 10.208 66.168H5.76V64.984H11.76V66.104C11.6747 67.0213 11.3867 67.864 10.896 68.632C10.4053 69.3893 9.76 69.992 8.96 70.44C8.16 70.8773 7.26933 71.096 6.288 71.096C5.25333 71.096 4.30933 70.856 3.456 70.376C2.60267 69.8853 1.92533 69.208 1.424 68.344C0.933333 67.48 0.688 66.504 0.688 65.416C0.688 64.328 0.933333 63.352 1.424 62.488C1.92533 61.6133 2.60267 60.936 3.456 60.456C4.30933 59.9653 5.25333 59.72 6.288 59.72C7.472 59.72 8.51733 60.0133 9.424 60.6C10.3413 61.1867 11.008 62.0133 11.424 63.08H9.68ZM17.5091 71.144C16.6878 71.144 15.9411 70.9573 15.2691 70.584C14.6078 70.2107 14.0851 69.6827 13.7011 69C13.3278 68.3067 13.1411 67.5067 13.1411 66.6C13.1411 65.704 13.3331 64.9147 13.7171 64.232C14.1118 63.5387 14.6451 63.0107 15.3171 62.648C15.9891 62.2747 16.7411 62.088 17.5731 62.088C18.4051 62.088 19.1571 62.2747 19.8291 62.648C20.5011 63.0107 21.0291 63.5333 21.4131 64.216C21.8078 64.8987 22.0051 65.6933 22.0051 66.6C22.0051 67.5067 21.8025 68.3067 21.3971 69C21.0025 69.6827 20.4638 70.2107 19.7811 70.584C19.0985 70.9573 18.3411 71.144 17.5091 71.144ZM17.5091 69.864C18.0318 69.864 18.5225 69.7413 18.9811 69.496C19.4398 69.2507 19.8078 68.8827 20.0851 68.392C20.3731 67.9013 20.5171 67.304 20.5171 66.6C20.5171 65.896 20.3785 65.2987 20.1011 64.808C19.8238 64.3173 19.4611 63.9547 19.0131 63.72C18.5651 63.4747 18.0798 63.352 17.5571 63.352C17.0238 63.352 16.5331 63.4747 16.0851 63.72C15.6478 63.9547 15.2958 64.3173 15.0291 64.808C14.7625 65.2987 14.6291 65.896 14.6291 66.6C14.6291 67.3147 14.7571 67.9173 15.0131 68.408C15.2798 68.8987 15.6318 69.2667 16.0691 69.512C16.5065 69.7467 16.9865 69.864 17.5091 69.864ZM27.7435 71.144C26.9222 71.144 26.1755 70.9573 25.5035 70.584C24.8422 70.2107 24.3195 69.6827 23.9355 69C23.5622 68.3067 23.3755 67.5067 23.3755 66.6C23.3755 65.704 23.5675 64.9147 23.9515 64.232C24.3462 63.5387 24.8795 63.0107 25.5515 62.648C26.2235 62.2747 26.9755 62.088 27.8075 62.088C28.6395 62.088 29.3915 62.2747 30.0635 62.648C30.7355 63.0107 31.2635 63.5333 31.6475 64.216C32.0422 64.8987 32.2395 65.6933 32.2395 66.6C32.2395 67.5067 32.0368 68.3067 31.6315 69C31.2368 69.6827 30.6982 70.2107 30.0155 70.584C29.3328 70.9573 28.5755 71.144 27.7435 71.144ZM27.7435 69.864C28.2662 69.864 28.7568 69.7413 29.2155 69.496C29.6742 69.2507 30.0422 68.8827 30.3195 68.392C30.6075 67.9013 30.7515 67.304 30.7515 66.6C30.7515 65.896 30.6128 65.2987 30.3355 64.808C30.0582 64.3173 29.6955 63.9547 29.2475 63.72C28.7995 63.4747 28.3142 63.352 27.7915 63.352C27.2582 63.352 26.7675 63.4747 26.3195 63.72C25.8822 63.9547 25.5302 64.3173 25.2635 64.808C24.9968 65.2987 24.8635 65.896 24.8635 66.6C24.8635 67.3147 24.9915 67.9173 25.2475 68.408C25.5142 68.8987 25.8662 69.2667 26.3035 69.512C26.7408 69.7467 27.2208 69.864 27.7435 69.864ZM37.7699 62.088C38.5272 62.088 39.1885 62.2533 39.7539 62.584C40.3299 62.9147 40.7565 63.3307 41.0339 63.832V62.232H42.5059V71.192C42.5059 71.992 42.3352 72.7013 41.9939 73.32C41.6525 73.9493 41.1619 74.44 40.5219 74.792C39.8925 75.144 39.1565 75.32 38.3139 75.32C37.1619 75.32 36.2019 75.048 35.4339 74.504C34.6659 73.96 34.2125 73.2187 34.0739 72.28H35.5139C35.6739 72.8133 36.0045 73.24 36.5059 73.56C37.0072 73.8907 37.6099 74.056 38.3139 74.056C39.1139 74.056 39.7645 73.8053 40.2659 73.304C40.7779 72.8027 41.0339 72.0987 41.0339 71.192V69.352C40.7459 69.864 40.3192 70.2907 39.7539 70.632C39.1885 70.9733 38.5272 71.144 37.7699 71.144C36.9912 71.144 36.2819 70.952 35.6419 70.568C35.0125 70.184 34.5165 69.6453 34.1539 68.952C33.7912 68.2587 33.6099 67.4693 33.6099 66.584C33.6099 65.688 33.7912 64.904 34.1539 64.232C34.5165 63.5493 35.0125 63.0213 35.6419 62.648C36.2819 62.2747 36.9912 62.088 37.7699 62.088ZM41.0339 66.6C41.0339 65.9387 40.9005 65.3627 40.6339 64.872C40.3672 64.3813 40.0045 64.008 39.5459 63.752C39.0979 63.4853 38.6019 63.352 38.0579 63.352C37.5139 63.352 37.0179 63.48 36.5699 63.736C36.1219 63.992 35.7645 64.3653 35.4979 64.856C35.2312 65.3467 35.0979 65.9227 35.0979 66.584C35.0979 67.256 35.2312 67.8427 35.4979 68.344C35.7645 68.8347 36.1219 69.2133 36.5699 69.48C37.0179 69.736 37.5139 69.864 38.0579 69.864C38.6019 69.864 39.0979 69.736 39.5459 69.48C40.0045 69.2133 40.3672 68.8347 40.6339 68.344C40.9005 67.8427 41.0339 67.2613 41.0339 66.6ZM46.4224 59.16V71H44.9664V59.16H46.4224ZM56.9039 66.28C56.9039 66.5573 56.8879 66.8507 56.8559 67.16H49.8479C49.9012 68.024 50.1945 68.7013 50.7279 69.192C51.2719 69.672 51.9279 69.912 52.6959 69.912C53.3252 69.912 53.8479 69.768 54.2639 69.48C54.6905 69.1813 54.9892 68.7867 55.1599 68.296H56.7279C56.4932 69.1387 56.0239 69.8267 55.3199 70.36C54.6159 70.8827 53.7412 71.144 52.6959 71.144C51.8639 71.144 51.1172 70.9573 50.4559 70.584C49.8052 70.2107 49.2932 69.6827 48.9199 69C48.5465 68.3067 48.3599 67.5067 48.3599 66.6C48.3599 65.6933 48.5412 64.8987 48.9039 64.216C49.2665 63.5333 49.7732 63.0107 50.4239 62.648C51.0852 62.2747 51.8425 62.088 52.6959 62.088C53.5279 62.088 54.2639 62.2693 54.9039 62.632C55.5439 62.9947 56.0345 63.496 56.3759 64.136C56.7279 64.7653 56.9039 65.48 56.9039 66.28ZM55.3999 65.976C55.3999 65.4213 55.2772 64.9467 55.0319 64.552C54.7865 64.1467 54.4505 63.8427 54.0239 63.64C53.6079 63.4267 53.1439 63.32 52.6319 63.32C51.8959 63.32 51.2665 63.5547 50.7439 64.024C50.2319 64.4933 49.9385 65.144 49.8639 65.976H55.3999ZM64.5474 59.848V71H63.0914V59.848H64.5474ZM71.3009 62.072C72.3675 62.072 73.2315 62.3973 73.8929 63.048C74.5542 63.688 74.8849 64.616 74.8849 65.832V71H73.4449V66.04C73.4449 65.1653 73.2262 64.4987 72.7889 64.04C72.3515 63.5707 71.7542 63.336 70.9969 63.336C70.2289 63.336 69.6155 63.576 69.1569 64.056C68.7089 64.536 68.4849 65.2347 68.4849 66.152V71H67.0289V62.232H68.4849V63.48C68.7729 63.032 69.1622 62.6853 69.6529 62.44C70.1542 62.1947 70.7035 62.072 71.3009 62.072ZM76.7193 66.6C76.7193 65.6933 76.9006 64.904 77.2633 64.232C77.6259 63.5493 78.1273 63.0213 78.7673 62.648C79.4179 62.2747 80.1593 62.088 80.9913 62.088C82.0686 62.088 82.9539 62.3493 83.6473 62.872C84.3513 63.3947 84.8153 64.12 85.0393 65.048H83.4713C83.3219 64.5147 83.0286 64.0933 82.5913 63.784C82.1646 63.4747 81.6313 63.32 80.9913 63.32C80.1593 63.32 79.4873 63.608 78.9753 64.184C78.4633 64.7493 78.2073 65.5547 78.2073 66.6C78.2073 67.656 78.4633 68.472 78.9753 69.048C79.4873 69.624 80.1593 69.912 80.9913 69.912C81.6313 69.912 82.1646 69.7627 82.5913 69.464C83.0179 69.1653 83.3113 68.7387 83.4713 68.184H85.0393C84.8046 69.08 84.3353 69.8 83.6313 70.344C82.9273 70.8773 82.0473 71.144 80.9913 71.144C80.1593 71.144 79.4179 70.9573 78.7673 70.584C78.1273 70.2107 77.6259 69.6827 77.2633 69C76.9006 68.3173 76.7193 67.5173 76.7193 66.6ZM87.446 71.096C87.1687 71.096 86.934 71 86.742 70.808C86.55 70.616 86.454 70.3813 86.454 70.104C86.454 69.8267 86.55 69.592 86.742 69.4C86.934 69.208 87.1687 69.112 87.446 69.112C87.7127 69.112 87.9367 69.208 88.118 69.4C88.31 69.592 88.406 69.8267 88.406 70.104C88.406 70.3813 88.31 70.616 88.118 70.808C87.9367 71 87.7127 71.096 87.446 71.096Z" fill="#44566C"/>
<path d="M5.364 41.126C4.536 41.126 3.792 40.982 3.132 40.694C2.484 40.394 1.974 39.986 1.602 39.47C1.23 38.942 1.038 38.336 1.026 37.652H2.772C2.832 38.24 3.072 38.738 3.492 39.146C3.924 39.542 4.548 39.74 5.364 39.74C6.144 39.74 6.756 39.548 7.2 39.164C7.656 38.768 7.884 38.264 7.884 37.652C7.884 37.172 7.752 36.782 7.488 36.482C7.224 36.182 6.894 35.954 6.498 35.798C6.102 35.642 5.568 35.474 4.896 35.294C4.068 35.078 3.402 34.862 2.898 34.646C2.406 34.43 1.98 34.094 1.62 33.638C1.272 33.17 1.098 32.546 1.098 31.766C1.098 31.082 1.272 30.476 1.62 29.948C1.968 29.42 2.454 29.012 3.078 28.724C3.714 28.436 4.44 28.292 5.256 28.292C6.432 28.292 7.392 28.586 8.136 29.174C8.892 29.762 9.318 30.542 9.414 31.514H7.614C7.554 31.034 7.302 30.614 6.858 30.254C6.414 29.882 5.826 29.696 5.094 29.696C4.41 29.696 3.852 29.876 3.42 30.236C2.988 30.584 2.772 31.076 2.772 31.712C2.772 32.168 2.898 32.54 3.15 32.828C3.414 33.116 3.732 33.338 4.104 33.494C4.488 33.638 5.022 33.806 5.706 33.998C6.534 34.226 7.2 34.454 7.704 34.682C8.208 34.898 8.64 35.24 9 35.708C9.36 36.164 9.54 36.788 9.54 37.58C9.54 38.192 9.378 38.768 9.054 39.308C8.73 39.848 8.25 40.286 7.614 40.622C6.978 40.958 6.228 41.126 5.364 41.126ZM13.5885 32.738C13.8765 32.174 14.2845 31.736 14.8125 31.424C15.3525 31.112 16.0065 30.956 16.7745 30.956V32.648H16.3425C14.5065 32.648 13.5885 33.644 13.5885 35.636V41H11.9505V31.136H13.5885V32.738ZM19.1873 41.108C18.8753 41.108 18.6113 41 18.3953 40.784C18.1793 40.568 18.0713 40.304 18.0713 39.992C18.0713 39.68 18.1793 39.416 18.3953 39.2C18.6113 38.984 18.8753 38.876 19.1873 38.876C19.4873 38.876 19.7393 38.984 19.9433 39.2C20.1593 39.416 20.2673 39.68 20.2673 39.992C20.2673 40.304 20.1593 40.568 19.9433 40.784C19.7393 41 19.4873 41.108 19.1873 41.108ZM31.2214 41.126C30.3934 41.126 29.6494 40.982 28.9894 40.694C28.3414 40.394 27.8314 39.986 27.4594 39.47C27.0874 38.942 26.8954 38.336 26.8834 37.652H28.6294C28.6894 38.24 28.9294 38.738 29.3494 39.146C29.7814 39.542 30.4054 39.74 31.2214 39.74C32.0014 39.74 32.6134 39.548 33.0574 39.164C33.5134 38.768 33.7414 38.264 33.7414 37.652C33.7414 37.172 33.6094 36.782 33.3454 36.482C33.0814 36.182 32.7514 35.954 32.3554 35.798C31.9594 35.642 31.4254 35.474 30.7534 35.294C29.9254 35.078 29.2594 34.862 28.7554 34.646C28.2634 34.43 27.8374 34.094 27.4774 33.638C27.1294 33.17 26.9554 32.546 26.9554 31.766C26.9554 31.082 27.1294 30.476 27.4774 29.948C27.8254 29.42 28.3114 29.012 28.9354 28.724C29.5714 28.436 30.2974 28.292 31.1134 28.292C32.2894 28.292 33.2494 28.586 33.9934 29.174C34.7494 29.762 35.1754 30.542 35.2714 31.514H33.4714C33.4114 31.034 33.1594 30.614 32.7154 30.254C32.2714 29.882 31.6834 29.696 30.9514 29.696C30.2674 29.696 29.7094 29.876 29.2774 30.236C28.8454 30.584 28.6294 31.076 28.6294 31.712C28.6294 32.168 28.7554 32.54 29.0074 32.828C29.2714 33.116 29.5894 33.338 29.9614 33.494C30.3454 33.638 30.8794 33.806 31.5634 33.998C32.3914 34.226 33.0574 34.454 33.5614 34.682C34.0654 34.898 34.4974 35.24 34.8574 35.708C35.2174 36.164 35.3974 36.788 35.3974 37.58C35.3974 38.192 35.2354 38.768 34.9114 39.308C34.5874 39.848 34.1074 40.286 33.4714 40.622C32.8354 40.958 32.0854 41.126 31.2214 41.126ZM42.1099 41.162C41.1859 41.162 40.3459 40.952 39.5899 40.532C38.8459 40.112 38.2579 39.518 37.8259 38.75C37.4059 37.97 37.1959 37.07 37.1959 36.05C37.1959 35.042 37.4119 34.154 37.8439 33.386C38.2879 32.606 38.8879 32.012 39.6439 31.604C40.3999 31.184 41.2459 30.974 42.1819 30.974C43.1179 30.974 43.9639 31.184 44.7199 31.604C45.4759 32.012 46.0699 32.6 46.5019 33.368C46.9459 34.136 47.1679 35.03 47.1679 36.05C47.1679 37.07 46.9399 37.97 46.4839 38.75C46.0399 39.518 45.4339 40.112 44.6659 40.532C43.8979 40.952 43.0459 41.162 42.1099 41.162ZM42.1099 39.722C42.6979 39.722 43.2499 39.584 43.7659 39.308C44.2819 39.032 44.6959 38.618 45.0079 38.066C45.3319 37.514 45.4939 36.842 45.4939 36.05C45.4939 35.258 45.3379 34.586 45.0259 34.034C44.7139 33.482 44.3059 33.074 43.8019 32.81C43.2979 32.534 42.7519 32.396 42.1639 32.396C41.5639 32.396 41.0119 32.534 40.5079 32.81C40.0159 33.074 39.6199 33.482 39.3199 34.034C39.0199 34.586 38.8699 35.258 38.8699 36.05C38.8699 36.854 39.0139 37.532 39.3019 38.084C39.6019 38.636 39.9979 39.05 40.4899 39.326C40.9819 39.59 41.5219 39.722 42.1099 39.722ZM53.3355 32.486H51.2655V41H49.6275V32.486H48.3495V31.136H49.6275V30.434C49.6275 29.33 49.9095 28.526 50.4735 28.022C51.0495 27.506 51.9675 27.248 53.2275 27.248V28.616C52.5075 28.616 51.9975 28.76 51.6975 29.048C51.4095 29.324 51.2655 29.786 51.2655 30.434V31.136H53.3355V32.486ZM57.2434 32.486V38.3C57.2434 38.78 57.3454 39.122 57.5494 39.326C57.7534 39.518 58.1074 39.614 58.6114 39.614H59.8174V41H58.3414C57.4294 41 56.7454 40.79 56.2894 40.37C55.8334 39.95 55.6054 39.26 55.6054 38.3V32.486H54.3274V31.136H55.6054V28.652H57.2434V31.136H59.8174V32.486H57.2434ZM74.942 31.136L71.864 41H70.172L67.796 33.17L65.42 41H63.728L60.632 31.136H62.306L64.574 39.416L67.022 31.136H68.696L71.09 39.434L73.322 31.136H74.942ZM75.9556 36.032C75.9556 35.024 76.1596 34.142 76.5676 33.386C76.9756 32.618 77.5336 32.024 78.2416 31.604C78.9616 31.184 79.7596 30.974 80.6356 30.974C81.4996 30.974 82.2496 31.16 82.8856 31.532C83.5216 31.904 83.9956 32.372 84.3076 32.936V31.136H85.9636V41H84.3076V39.164C83.9836 39.74 83.4976 40.22 82.8496 40.604C82.2136 40.976 81.4696 41.162 80.6176 41.162C79.7416 41.162 78.9496 40.946 78.2416 40.514C77.5336 40.082 76.9756 39.476 76.5676 38.696C76.1596 37.916 75.9556 37.028 75.9556 36.032ZM84.3076 36.05C84.3076 35.306 84.1576 34.658 83.8576 34.106C83.5576 33.554 83.1496 33.134 82.6336 32.846C82.1296 32.546 81.5716 32.396 80.9596 32.396C80.3476 32.396 79.7896 32.54 79.2856 32.828C78.7816 33.116 78.3796 33.536 78.0796 34.088C77.7796 34.64 77.6296 35.288 77.6296 36.032C77.6296 36.788 77.7796 37.448 78.0796 38.012C78.3796 38.564 78.7816 38.99 79.2856 39.29C79.7896 39.578 80.3476 39.722 80.9596 39.722C81.5716 39.722 82.1296 39.578 82.6336 39.29C83.1496 38.99 83.5576 38.564 83.8576 38.012C84.1576 37.448 84.3076 36.794 84.3076 36.05ZM90.3697 32.738C90.6577 32.174 91.0657 31.736 91.5937 31.424C92.1337 31.112 92.7877 30.956 93.5557 30.956V32.648H93.1237C91.2877 32.648 90.3697 33.644 90.3697 35.636V41H88.7317V31.136H90.3697V32.738ZM104.447 35.69C104.447 36.002 104.429 36.332 104.393 36.68H96.5085C96.5685 37.652 96.8985 38.414 97.4985 38.966C98.1105 39.506 98.8485 39.776 99.7125 39.776C100.421 39.776 101.009 39.614 101.477 39.29C101.957 38.954 102.293 38.51 102.485 37.958H104.249C103.985 38.906 103.457 39.68 102.665 40.28C101.873 40.868 100.889 41.162 99.7125 41.162C98.7765 41.162 97.9365 40.952 97.1925 40.532C96.4605 40.112 95.8845 39.518 95.4645 38.75C95.0445 37.97 94.8345 37.07 94.8345 36.05C94.8345 35.03 95.0385 34.136 95.4465 33.368C95.8545 32.6 96.4245 32.012 97.1565 31.604C97.9005 31.184 98.7525 30.974 99.7125 30.974C100.649 30.974 101.477 31.178 102.197 31.586C102.917 31.994 103.469 32.558 103.853 33.278C104.249 33.986 104.447 34.79 104.447 35.69ZM102.755 35.348C102.755 34.724 102.617 34.19 102.341 33.746C102.065 33.29 101.687 32.948 101.207 32.72C100.739 32.48 100.217 32.36 99.6405 32.36C98.8125 32.36 98.1045 32.624 97.5165 33.152C96.9405 33.68 96.6105 34.412 96.5265 35.348H102.755ZM119.129 28.454V29.786H115.709V41H114.071V29.786H110.633V28.454H119.129ZM130.146 35.69C130.146 36.002 130.128 36.332 130.092 36.68H122.208C122.268 37.652 122.598 38.414 123.198 38.966C123.81 39.506 124.548 39.776 125.412 39.776C126.12 39.776 126.708 39.614 127.176 39.29C127.656 38.954 127.992 38.51 128.184 37.958H129.948C129.684 38.906 129.156 39.68 128.364 40.28C127.572 40.868 126.588 41.162 125.412 41.162C124.476 41.162 123.636 40.952 122.892 40.532C122.16 40.112 121.584 39.518 121.164 38.75C120.744 37.97 120.534 37.07 120.534 36.05C120.534 35.03 120.738 34.136 121.146 33.368C121.554 32.6 122.124 32.012 122.856 31.604C123.6 31.184 124.452 30.974 125.412 30.974C126.348 30.974 127.176 31.178 127.896 31.586C128.616 31.994 129.168 32.558 129.552 33.278C129.948 33.986 130.146 34.79 130.146 35.69ZM128.454 35.348C128.454 34.724 128.316 34.19 128.04 33.746C127.764 33.29 127.386 32.948 126.906 32.72C126.438 32.48 125.916 32.36 125.34 32.36C124.512 32.36 123.804 32.624 123.216 33.152C122.64 33.68 122.31 34.412 122.226 35.348H128.454ZM135.8 41.162C135.044 41.162 134.366 41.036 133.766 40.784C133.166 40.52 132.692 40.16 132.344 39.704C131.996 39.236 131.804 38.702 131.768 38.102H133.46C133.508 38.594 133.736 38.996 134.144 39.308C134.564 39.62 135.11 39.776 135.782 39.776C136.406 39.776 136.898 39.638 137.258 39.362C137.618 39.086 137.798 38.738 137.798 38.318C137.798 37.886 137.606 37.568 137.222 37.364C136.838 37.148 136.244 36.938 135.44 36.734C134.708 36.542 134.108 36.35 133.64 36.158C133.184 35.954 132.788 35.66 132.452 35.276C132.128 34.88 131.966 34.364 131.966 33.728C131.966 33.224 132.116 32.762 132.416 32.342C132.716 31.922 133.142 31.592 133.694 31.352C134.246 31.1 134.876 30.974 135.584 30.974C136.676 30.974 137.558 31.25 138.23 31.802C138.902 32.354 139.262 33.11 139.31 34.07H137.672C137.636 33.554 137.426 33.14 137.042 32.828C136.67 32.516 136.166 32.36 135.53 32.36C134.942 32.36 134.474 32.486 134.126 32.738C133.778 32.99 133.604 33.32 133.604 33.728C133.604 34.052 133.706 34.322 133.91 34.538C134.126 34.742 134.39 34.91 134.702 35.042C135.026 35.162 135.47 35.3 136.034 35.456C136.742 35.648 137.318 35.84 137.762 36.032C138.206 36.212 138.584 36.488 138.896 36.86C139.22 37.232 139.388 37.718 139.4 38.318C139.4 38.858 139.25 39.344 138.95 39.776C138.65 40.208 138.224 40.55 137.672 40.802C137.132 41.042 136.508 41.162 135.8 41.162ZM143.71 32.486V38.3C143.71 38.78 143.812 39.122 144.016 39.326C144.22 39.518 144.574 39.614 145.078 39.614H146.284V41H144.808C143.896 41 143.212 40.79 142.756 40.37C142.3 39.95 142.072 39.26 142.072 38.3V32.486H140.794V31.136H142.072V28.652H143.71V31.136H146.284V32.486H143.71ZM157.269 35.69C157.269 36.002 157.251 36.332 157.215 36.68H149.331C149.391 37.652 149.721 38.414 150.321 38.966C150.933 39.506 151.671 39.776 152.535 39.776C153.243 39.776 153.831 39.614 154.299 39.29C154.779 38.954 155.115 38.51 155.307 37.958H157.071C156.807 38.906 156.279 39.68 155.487 40.28C154.695 40.868 153.711 41.162 152.535 41.162C151.599 41.162 150.759 40.952 150.015 40.532C149.283 40.112 148.707 39.518 148.287 38.75C147.867 37.97 147.657 37.07 147.657 36.05C147.657 35.03 147.861 34.136 148.269 33.368C148.677 32.6 149.247 32.012 149.979 31.604C150.723 31.184 151.575 30.974 152.535 30.974C153.471 30.974 154.299 31.178 155.019 31.586C155.739 31.994 156.291 32.558 156.675 33.278C157.071 33.986 157.269 34.79 157.269 35.69ZM155.577 35.348C155.577 34.724 155.439 34.19 155.163 33.746C154.887 33.29 154.509 32.948 154.029 32.72C153.561 32.48 153.039 32.36 152.463 32.36C151.635 32.36 150.927 32.624 150.339 33.152C149.763 33.68 149.433 34.412 149.349 35.348H155.577ZM161.069 32.738C161.357 32.174 161.765 31.736 162.293 31.424C162.833 31.112 163.487 30.956 164.255 30.956V32.648H163.823C161.987 32.648 161.069 33.644 161.069 35.636V41H159.431V31.136H161.069V32.738Z" fill="#0F172A"/>
</svg>
