<svg width="320" height="76" viewBox="0 0 320 76" fill="none" xmlns="http://www.w3.org/2000/svg">
<path d="M0.714 9.978C1.89933 9.026 2.828 8.24667 3.5 7.64C4.172 7.024 4.73667 6.38467 5.194 5.722C5.66067 5.05 5.894 4.392 5.894 3.748C5.894 3.14133 5.74467 2.66533 5.446 2.32C5.15667 1.96533 4.68533 1.788 4.032 1.788C3.39733 1.788 2.90267 1.98867 2.548 2.39C2.20267 2.782 2.016 3.30933 1.988 3.972H0.756C0.793333 2.92667 1.11067 2.11933 1.708 1.55C2.30533 0.980666 3.07533 0.695999 4.018 0.695999C4.97933 0.695999 5.74 0.961999 6.3 1.494C6.86933 2.026 7.154 2.75867 7.154 3.692C7.154 4.46667 6.92067 5.22267 6.454 5.96C5.99667 6.688 5.474 7.332 4.886 7.892C4.298 8.44267 3.54667 9.08667 2.632 9.824H7.448V10.888H0.714V9.978ZM8.92073 5.834C8.92073 4.22867 9.18207 2.978 9.70473 2.082C10.2274 1.17667 11.1421 0.724 12.4487 0.724C13.7461 0.724 14.6561 1.17667 15.1787 2.082C15.7014 2.978 15.9627 4.22867 15.9627 5.834C15.9627 7.46733 15.7014 8.73667 15.1787 9.642C14.6561 10.5473 13.7461 11 12.4487 11C11.1421 11 10.2274 10.5473 9.70473 9.642C9.18207 8.73667 8.92073 7.46733 8.92073 5.834ZM14.7027 5.834C14.7027 5.022 14.6467 4.336 14.5347 3.776C14.4321 3.20667 14.2127 2.74933 13.8767 2.404C13.5501 2.05867 13.0741 1.886 12.4487 1.886C11.8141 1.886 11.3287 2.05867 10.9927 2.404C10.6661 2.74933 10.4467 3.20667 10.3347 3.776C10.2321 4.336 10.1807 5.022 10.1807 5.834C10.1807 6.674 10.2321 7.37867 10.3347 7.948C10.4467 8.51733 10.6661 8.97467 10.9927 9.32C11.3287 9.66533 11.8141 9.838 12.4487 9.838C13.0741 9.838 13.5501 9.66533 13.8767 9.32C14.2127 8.97467 14.4321 8.51733 14.5347 7.948C14.6467 7.37867 14.7027 6.674 14.7027 5.834ZM17.5578 9.978C18.7431 9.026 19.6718 8.24667 20.3438 7.64C21.0158 7.024 21.5804 6.38467 22.0378 5.722C22.5044 5.05 22.7378 4.392 22.7378 3.748C22.7378 3.14133 22.5884 2.66533 22.2898 2.32C22.0004 1.96533 21.5291 1.788 20.8758 1.788C20.2411 1.788 19.7464 1.98867 19.3918 2.39C19.0464 2.782 18.8598 3.30933 18.8318 3.972H17.5998C17.6371 2.92667 17.9544 2.11933 18.5518 1.55C19.1491 0.980666 19.9191 0.695999 20.8618 0.695999C21.8231 0.695999 22.5838 0.961999 23.1438 1.494C23.7131 2.026 23.9978 2.75867 23.9978 3.692C23.9978 4.46667 23.7644 5.22267 23.2978 5.96C22.8404 6.688 22.3178 7.332 21.7298 7.892C21.1418 8.44267 20.3904 9.08667 19.4758 9.824H24.2918V10.888H17.5578V9.978ZM25.4285 2.04V0.877999H28.0605V11H26.7725V2.04H25.4285ZM35.7789 5.33V6.408H30.1929V5.33H35.7789ZM37.8058 9.978C38.9911 9.026 39.9198 8.24667 40.5918 7.64C41.2638 7.024 41.8285 6.38467 42.2858 5.722C42.7525 5.05 42.9858 4.392 42.9858 3.748C42.9858 3.14133 42.8365 2.66533 42.5378 2.32C42.2485 1.96533 41.7771 1.788 41.1238 1.788C40.4891 1.788 39.9945 1.98867 39.6398 2.39C39.2945 2.782 39.1078 3.30933 39.0798 3.972H37.8478C37.8851 2.92667 38.2025 2.11933 38.7998 1.55C39.3971 0.980666 40.1671 0.695999 41.1098 0.695999C42.0711 0.695999 42.8318 0.961999 43.3918 1.494C43.9611 2.026 44.2458 2.75867 44.2458 3.692C44.2458 4.46667 44.0125 5.22267 43.5458 5.96C43.0885 6.688 42.5658 7.332 41.9778 7.892C41.3898 8.44267 40.6385 9.08667 39.7238 9.824H44.5398V10.888H37.8058V9.978ZM46.0125 5.834C46.0125 4.22867 46.2739 2.978 46.7965 2.082C47.3192 1.17667 48.2339 0.724 49.5405 0.724C50.8379 0.724 51.7479 1.17667 52.2705 2.082C52.7932 2.978 53.0545 4.22867 53.0545 5.834C53.0545 7.46733 52.7932 8.73667 52.2705 9.642C51.7479 10.5473 50.8379 11 49.5405 11C48.2339 11 47.3192 10.5473 46.7965 9.642C46.2739 8.73667 46.0125 7.46733 46.0125 5.834ZM51.7945 5.834C51.7945 5.022 51.7385 4.336 51.6265 3.776C51.5239 3.20667 51.3045 2.74933 50.9685 2.404C50.6419 2.05867 50.1659 1.886 49.5405 1.886C48.9059 1.886 48.4205 2.05867 48.0845 2.404C47.7579 2.74933 47.5385 3.20667 47.4265 3.776C47.3239 4.336 47.2725 5.022 47.2725 5.834C47.2725 6.674 47.3239 7.37867 47.4265 7.948C47.5385 8.51733 47.7579 8.97467 48.0845 9.32C48.4205 9.66533 48.9059 9.838 49.5405 9.838C50.1659 9.838 50.6419 9.66533 50.9685 9.32C51.3045 8.97467 51.5239 8.51733 51.6265 7.948C51.7385 7.37867 51.7945 6.674 51.7945 5.834ZM54.6495 9.978C55.8349 9.026 56.7635 8.24667 57.4355 7.64C58.1075 7.024 58.6722 6.38467 59.1295 5.722C59.5962 5.05 59.8295 4.392 59.8295 3.748C59.8295 3.14133 59.6802 2.66533 59.3815 2.32C59.0922 1.96533 58.6209 1.788 57.9675 1.788C57.3329 1.788 56.8382 1.98867 56.4835 2.39C56.1382 2.782 55.9515 3.30933 55.9235 3.972H54.6915C54.7289 2.92667 55.0462 2.11933 55.6435 1.55C56.2409 0.980666 57.0109 0.695999 57.9535 0.695999C58.9149 0.695999 59.6755 0.961999 60.2355 1.494C60.8049 2.026 61.0895 2.75867 61.0895 3.692C61.0895 4.46667 60.8562 5.22267 60.3895 5.96C59.9322 6.688 59.4095 7.332 58.8215 7.892C58.2335 8.44267 57.4822 9.08667 56.5675 9.824H61.3835V10.888H54.6495V9.978ZM62.8283 3.426C62.8936 2.56733 63.2249 1.89533 63.8223 1.41C64.4196 0.924666 65.1943 0.681999 66.1463 0.681999C66.7809 0.681999 67.3269 0.798666 67.7843 1.032C68.2509 1.256 68.6009 1.564 68.8343 1.956C69.0769 2.348 69.1983 2.79133 69.1983 3.286C69.1983 3.86467 69.0303 4.364 68.6943 4.784C68.3676 5.204 67.9383 5.47467 67.4063 5.596V5.666C68.0129 5.81533 68.4936 6.10933 68.8483 6.548C69.2029 6.98667 69.3803 7.56067 69.3803 8.27C69.3803 8.802 69.2589 9.28267 69.0163 9.712C68.7736 10.132 68.4096 10.4633 67.9243 10.706C67.4389 10.9487 66.8556 11.07 66.1743 11.07C65.1849 11.07 64.3729 10.8133 63.7383 10.3C63.1036 9.77733 62.7489 9.04 62.6743 8.088H63.9063C63.9716 8.648 64.2003 9.10533 64.5923 9.46C64.9843 9.81467 65.5069 9.992 66.1603 9.992C66.8136 9.992 67.3083 9.824 67.6443 9.488C67.9896 9.14267 68.1623 8.69933 68.1623 8.158C68.1623 7.458 67.9289 6.954 67.4623 6.646C66.9956 6.338 66.2909 6.184 65.3483 6.184H65.0263V5.12H65.3623C66.2209 5.11067 66.8696 4.97067 67.3083 4.7C67.7469 4.42 67.9663 3.99067 67.9663 3.412C67.9663 2.91733 67.8029 2.52067 67.4763 2.222C67.1589 1.92333 66.7016 1.774 66.1043 1.774C65.5256 1.774 65.0589 1.92333 64.7043 2.222C64.3496 2.52067 64.1396 2.922 64.0743 3.426H62.8283ZM210.166 38.52H205.302L204.406 41H202.87L206.902 29.912H208.582L212.598 41H211.062L210.166 38.52ZM209.75 37.336L207.734 31.704L205.718 37.336H209.75ZM219.939 35.256C220.344 35.32 220.712 35.4853 221.043 35.752C221.384 36.0187 221.651 36.3493 221.843 36.744C222.046 37.1387 222.147 37.56 222.147 38.008C222.147 38.5733 222.003 39.0853 221.715 39.544C221.427 39.992 221.006 40.3493 220.451 40.616C219.907 40.872 219.262 41 218.515 41H214.355V29.848H218.355C219.112 29.848 219.758 29.976 220.291 30.232C220.824 30.4773 221.224 30.8133 221.491 31.24C221.758 31.6667 221.891 32.1467 221.891 32.68C221.891 33.3413 221.71 33.8907 221.347 34.328C220.995 34.7547 220.526 35.064 219.939 35.256ZM215.811 34.664H218.259C218.942 34.664 219.47 34.504 219.843 34.184C220.216 33.864 220.403 33.4213 220.403 32.856C220.403 32.2907 220.216 31.848 219.843 31.528C219.47 31.208 218.931 31.048 218.227 31.048H215.811V34.664ZM218.387 39.8C219.112 39.8 219.678 39.6293 220.083 39.288C220.488 38.9467 220.691 38.472 220.691 37.864C220.691 37.2453 220.478 36.76 220.051 36.408C219.624 36.0453 219.054 35.864 218.339 35.864H215.811V39.8H218.387ZM223.624 35.416C223.624 34.328 223.869 33.352 224.36 32.488C224.85 31.6133 225.517 30.9307 226.36 30.44C227.213 29.9493 228.157 29.704 229.192 29.704C230.408 29.704 231.469 29.9973 232.376 30.584C233.282 31.1707 233.944 32.0027 234.36 33.08H232.616C232.306 32.408 231.858 31.8907 231.272 31.528C230.696 31.1653 230.002 30.984 229.192 30.984C228.413 30.984 227.714 31.1653 227.096 31.528C226.477 31.8907 225.992 32.408 225.64 33.08C225.288 33.7413 225.112 34.52 225.112 35.416C225.112 36.3013 225.288 37.08 225.64 37.752C225.992 38.4133 226.477 38.9253 227.096 39.288C227.714 39.6507 228.413 39.832 229.192 39.832C230.002 39.832 230.696 39.656 231.272 39.304C231.858 38.9413 232.306 38.424 232.616 37.752H234.36C233.944 38.8187 233.282 39.6453 232.376 40.232C231.469 40.808 230.408 41.096 229.192 41.096C228.157 41.096 227.213 40.856 226.36 40.376C225.517 39.8853 224.85 39.208 224.36 38.344C223.869 37.48 223.624 36.504 223.624 35.416ZM242.217 29.848V36.904C242.217 37.896 242.457 38.632 242.937 39.112C243.427 39.592 244.105 39.832 244.969 39.832C245.822 39.832 246.489 39.592 246.969 39.112C247.459 38.632 247.705 37.896 247.705 36.904V29.848H249.161V36.888C249.161 37.816 248.974 38.6 248.601 39.24C248.227 39.8693 247.721 40.3387 247.081 40.648C246.451 40.9573 245.742 41.112 244.953 41.112C244.163 41.112 243.449 40.9573 242.809 40.648C242.179 40.3387 241.678 39.8693 241.305 39.24C240.942 38.6 240.761 37.816 240.761 36.888V29.848H242.217ZM255.861 32.072C256.928 32.072 257.792 32.3973 258.453 33.048C259.115 33.688 259.445 34.616 259.445 35.832V41H258.005V36.04C258.005 35.1653 257.787 34.4987 257.349 34.04C256.912 33.5707 256.315 33.336 255.557 33.336C254.789 33.336 254.176 33.576 253.717 34.056C253.269 34.536 253.045 35.2347 253.045 36.152V41H251.589V32.232H253.045V33.48C253.333 33.032 253.723 32.6853 254.213 32.44C254.715 32.1947 255.264 32.072 255.861 32.072ZM262.576 30.808C262.298 30.808 262.064 30.712 261.872 30.52C261.68 30.328 261.584 30.0933 261.584 29.816C261.584 29.5387 261.68 29.304 261.872 29.112C262.064 28.92 262.298 28.824 262.576 28.824C262.842 28.824 263.066 28.92 263.248 29.112C263.44 29.304 263.536 29.5387 263.536 29.816C263.536 30.0933 263.44 30.328 263.248 30.52C263.066 30.712 262.842 30.808 262.576 30.808ZM263.28 32.232V41H261.824V32.232H263.28ZM269.025 39.656L271.745 32.232H273.297L269.857 41H268.161L264.721 32.232H266.289L269.025 39.656ZM282.73 36.28C282.73 36.5573 282.714 36.8507 282.682 37.16H275.674C275.727 38.024 276.021 38.7013 276.554 39.192C277.098 39.672 277.754 39.912 278.522 39.912C279.151 39.912 279.674 39.768 280.09 39.48C280.517 39.1813 280.815 38.7867 280.986 38.296H282.554C282.319 39.1387 281.85 39.8267 281.146 40.36C280.442 40.8827 279.567 41.144 278.522 41.144C277.69 41.144 276.943 40.9573 276.282 40.584C275.631 40.2107 275.119 39.6827 274.746 39C274.373 38.3067 274.186 37.5067 274.186 36.6C274.186 35.6933 274.367 34.8987 274.73 34.216C275.093 33.5333 275.599 33.0107 276.25 32.648C276.911 32.2747 277.669 32.088 278.522 32.088C279.354 32.088 280.09 32.2693 280.73 32.632C281.37 32.9947 281.861 33.496 282.202 34.136C282.554 34.7653 282.73 35.48 282.73 36.28ZM281.226 35.976C281.226 35.4213 281.103 34.9467 280.858 34.552C280.613 34.1467 280.277 33.8427 279.85 33.64C279.434 33.4267 278.97 33.32 278.458 33.32C277.722 33.32 277.093 33.5547 276.57 34.024C276.058 34.4933 275.765 35.144 275.69 35.976H281.226ZM286.108 33.656C286.364 33.1547 286.727 32.7653 287.196 32.488C287.676 32.2107 288.257 32.072 288.94 32.072V33.576H288.556C286.924 33.576 286.108 34.4613 286.108 36.232V41H284.652V32.232H286.108V33.656ZM293.725 41.144C293.053 41.144 292.45 41.032 291.917 40.808C291.383 40.5733 290.962 40.2533 290.653 39.848C290.343 39.432 290.173 38.9573 290.141 38.424H291.645C291.687 38.8613 291.89 39.2187 292.253 39.496C292.626 39.7733 293.111 39.912 293.709 39.912C294.263 39.912 294.701 39.7893 295.021 39.544C295.341 39.2987 295.501 38.9893 295.501 38.616C295.501 38.232 295.33 37.9493 294.989 37.768C294.647 37.576 294.119 37.3893 293.405 37.208C292.754 37.0373 292.221 36.8667 291.805 36.696C291.399 36.5147 291.047 36.2533 290.749 35.912C290.461 35.56 290.317 35.1013 290.317 34.536C290.317 34.088 290.45 33.6773 290.717 33.304C290.983 32.9307 291.362 32.6373 291.853 32.424C292.343 32.2 292.903 32.088 293.533 32.088C294.503 32.088 295.287 32.3333 295.885 32.824C296.482 33.3147 296.802 33.9867 296.845 34.84H295.389C295.357 34.3813 295.17 34.0133 294.829 33.736C294.498 33.4587 294.05 33.32 293.485 33.32C292.962 33.32 292.546 33.432 292.237 33.656C291.927 33.88 291.773 34.1733 291.773 34.536C291.773 34.824 291.863 35.064 292.045 35.256C292.237 35.4373 292.471 35.5867 292.749 35.704C293.037 35.8107 293.431 35.9333 293.933 36.072C294.562 36.2427 295.074 36.4133 295.469 36.584C295.863 36.744 296.199 36.9893 296.477 37.32C296.765 37.6507 296.914 38.0827 296.925 38.616C296.925 39.096 296.791 39.528 296.525 39.912C296.258 40.296 295.879 40.6 295.389 40.824C294.909 41.0373 294.354 41.144 293.725 41.144ZM299.732 30.808C299.455 30.808 299.22 30.712 299.028 30.52C298.836 30.328 298.74 30.0933 298.74 29.816C298.74 29.5387 298.836 29.304 299.028 29.112C299.22 28.92 299.455 28.824 299.732 28.824C299.999 28.824 300.223 28.92 300.404 29.112C300.596 29.304 300.692 29.5387 300.692 29.816C300.692 30.0933 300.596 30.328 300.404 30.52C300.223 30.712 299.999 30.808 299.732 30.808ZM300.436 32.232V41H298.98V32.232H300.436ZM304.694 33.432V38.6C304.694 39.0267 304.784 39.3307 304.966 39.512C305.147 39.6827 305.462 39.768 305.91 39.768H306.982V41H305.67C304.859 41 304.251 40.8133 303.846 40.44C303.44 40.0667 303.238 39.4533 303.238 38.6V33.432H302.102V32.232H303.238V30.024H304.694V32.232H306.982V33.432H304.694ZM316.298 32.232L311.018 45.128H309.514L311.242 40.904L307.706 32.232H309.322L312.074 39.336L314.794 32.232H316.298ZM319.265 38.984L317.473 43.288H316.497L317.665 38.984H319.265ZM2.688 69.816H6.592V71H1.232V59.848H2.688V69.816ZM11.9623 71.144C11.1409 71.144 10.3943 70.9573 9.72225 70.584C9.06092 70.2107 8.53825 69.6827 8.15425 69C7.78092 68.3067 7.59425 67.5067 7.59425 66.6C7.59425 65.704 7.78625 64.9147 8.17025 64.232C8.56492 63.5387 9.09825 63.0107 9.77025 62.648C10.4423 62.2747 11.1943 62.088 12.0263 62.088C12.8583 62.088 13.6103 62.2747 14.2823 62.648C14.9543 63.0107 15.4823 63.5333 15.8663 64.216C16.2609 64.8987 16.4583 65.6933 16.4583 66.6C16.4583 67.5067 16.2556 68.3067 15.8503 69C15.4556 69.6827 14.9169 70.2107 14.2343 70.584C13.5516 70.9573 12.7943 71.144 11.9623 71.144ZM11.9623 69.864C12.4849 69.864 12.9756 69.7413 13.4343 69.496C13.8929 69.2507 14.2609 68.8827 14.5383 68.392C14.8263 67.9013 14.9703 67.304 14.9703 66.6C14.9703 65.896 14.8316 65.2987 14.5543 64.808C14.2769 64.3173 13.9143 63.9547 13.4663 63.72C13.0183 63.4747 12.5329 63.352 12.0103 63.352C11.4769 63.352 10.9863 63.4747 10.5383 63.72C10.1009 63.9547 9.74892 64.3173 9.48225 64.808C9.21558 65.2987 9.08225 65.896 9.08225 66.6C9.08225 67.3147 9.21025 67.9173 9.46625 68.408C9.73292 68.8987 10.0849 69.2667 10.5223 69.512C10.9596 69.7467 11.4396 69.864 11.9623 69.864ZM21.4766 71.144C20.8046 71.144 20.202 71.032 19.6686 70.808C19.1353 70.5733 18.714 70.2533 18.4046 69.848C18.0953 69.432 17.9246 68.9573 17.8926 68.424H19.3966C19.4393 68.8613 19.642 69.2187 20.0046 69.496C20.378 69.7733 20.8633 69.912 21.4606 69.912C22.0153 69.912 22.4526 69.7893 22.7726 69.544C23.0926 69.2987 23.2526 68.9893 23.2526 68.616C23.2526 68.232 23.082 67.9493 22.7406 67.768C22.3993 67.576 21.8713 67.3893 21.1566 67.208C20.506 67.0373 19.9726 66.8667 19.5566 66.696C19.1513 66.5147 18.7993 66.2533 18.5006 65.912C18.2126 65.56 18.0686 65.1013 18.0686 64.536C18.0686 64.088 18.202 63.6773 18.4686 63.304C18.7353 62.9307 19.114 62.6373 19.6046 62.424C20.0953 62.2 20.6553 62.088 21.2846 62.088C22.2553 62.088 23.0393 62.3333 23.6366 62.824C24.234 63.3147 24.554 63.9867 24.5966 64.84H23.1406C23.1086 64.3813 22.922 64.0133 22.5806 63.736C22.25 63.4587 21.802 63.32 21.2366 63.32C20.714 63.32 20.298 63.432 19.9886 63.656C19.6793 63.88 19.5246 64.1733 19.5246 64.536C19.5246 64.824 19.6153 65.064 19.7966 65.256C19.9886 65.4373 20.2233 65.5867 20.5006 65.704C20.7886 65.8107 21.1833 65.9333 21.6846 66.072C22.314 66.2427 22.826 66.4133 23.2206 66.584C23.6153 66.744 23.9513 66.9893 24.2286 67.32C24.5166 67.6507 24.666 68.0827 24.6766 68.616C24.6766 69.096 24.5433 69.528 24.2766 69.912C24.01 70.296 23.6313 70.6 23.1406 70.824C22.6606 71.0373 22.106 71.144 21.4766 71.144ZM37.5896 68.52H32.7256L31.8296 71H30.2936L34.3256 59.912H36.0056L40.0216 71H38.4856L37.5896 68.52ZM37.1736 67.336L35.1576 61.704L33.1416 67.336H37.1736ZM46.0509 62.072C47.1175 62.072 47.9815 62.3973 48.6429 63.048C49.3042 63.688 49.6349 64.616 49.6349 65.832V71H48.1949V66.04C48.1949 65.1653 47.9762 64.4987 47.5389 64.04C47.1015 63.5707 46.5042 63.336 45.7469 63.336C44.9789 63.336 44.3655 63.576 43.9069 64.056C43.4589 64.536 43.2349 65.2347 43.2349 66.152V71H41.7789V62.232H43.2349V63.48C43.5229 63.032 43.9122 62.6853 44.4029 62.44C44.9042 62.1947 45.4535 62.072 46.0509 62.072ZM55.6293 62.088C56.3866 62.088 57.0479 62.2533 57.6133 62.584C58.1893 62.9147 58.6159 63.3307 58.8933 63.832V62.232H60.3653V71.192C60.3653 71.992 60.1946 72.7013 59.8533 73.32C59.5119 73.9493 59.0213 74.44 58.3813 74.792C57.7519 75.144 57.0159 75.32 56.1733 75.32C55.0213 75.32 54.0613 75.048 53.2933 74.504C52.5253 73.96 52.0719 73.2187 51.9333 72.28H53.3733C53.5333 72.8133 53.8639 73.24 54.3653 73.56C54.8666 73.8907 55.4693 74.056 56.1733 74.056C56.9733 74.056 57.6239 73.8053 58.1253 73.304C58.6373 72.8027 58.8933 72.0987 58.8933 71.192V69.352C58.6053 69.864 58.1786 70.2907 57.6133 70.632C57.0479 70.9733 56.3866 71.144 55.6293 71.144C54.8506 71.144 54.1413 70.952 53.5013 70.568C52.8719 70.184 52.3759 69.6453 52.0133 68.952C51.6506 68.2587 51.4693 67.4693 51.4693 66.584C51.4693 65.688 51.6506 64.904 52.0133 64.232C52.3759 63.5493 52.8719 63.0213 53.5013 62.648C54.1413 62.2747 54.8506 62.088 55.6293 62.088ZM58.8933 66.6C58.8933 65.9387 58.7599 65.3627 58.4933 64.872C58.2266 64.3813 57.8639 64.008 57.4053 63.752C56.9573 63.4853 56.4613 63.352 55.9173 63.352C55.3733 63.352 54.8773 63.48 54.4293 63.736C53.9813 63.992 53.6239 64.3653 53.3573 64.856C53.0906 65.3467 52.9573 65.9227 52.9573 66.584C52.9573 67.256 53.0906 67.8427 53.3573 68.344C53.6239 68.8347 53.9813 69.2133 54.4293 69.48C54.8773 69.736 55.3733 69.864 55.9173 69.864C56.4613 69.864 56.9573 69.736 57.4053 69.48C57.8639 69.2133 58.2266 68.8347 58.4933 68.344C58.7599 67.8427 58.8933 67.2613 58.8933 66.6ZM70.8258 66.28C70.8258 66.5573 70.8098 66.8507 70.7778 67.16H63.7698C63.8231 68.024 64.1164 68.7013 64.6498 69.192C65.1938 69.672 65.8498 69.912 66.6178 69.912C67.2471 69.912 67.7698 69.768 68.1858 69.48C68.6124 69.1813 68.9111 68.7867 69.0818 68.296H70.6498C70.4151 69.1387 69.9458 69.8267 69.2418 70.36C68.5378 70.8827 67.6631 71.144 66.6178 71.144C65.7858 71.144 65.0391 70.9573 64.3778 70.584C63.7271 70.2107 63.2151 69.6827 62.8418 69C62.4684 68.3067 62.2818 67.5067 62.2818 66.6C62.2818 65.6933 62.4631 64.8987 62.8258 64.216C63.1884 63.5333 63.6951 63.0107 64.3458 62.648C65.0071 62.2747 65.7644 62.088 66.6178 62.088C67.4498 62.088 68.1858 62.2693 68.8258 62.632C69.4658 62.9947 69.9564 63.496 70.2978 64.136C70.6498 64.7653 70.8258 65.48 70.8258 66.28ZM69.3218 65.976C69.3218 65.4213 69.1991 64.9467 68.9538 64.552C68.7084 64.1467 68.3724 63.8427 67.9458 63.64C67.5298 63.4267 67.0658 63.32 66.5538 63.32C65.8178 63.32 65.1884 63.5547 64.6658 64.024C64.1538 64.4933 63.8604 65.144 63.7858 65.976H69.3218ZM74.2036 59.16V71H72.7476V59.16H74.2036ZM84.6851 66.28C84.6851 66.5573 84.6691 66.8507 84.6371 67.16H77.6291C77.6825 68.024 77.9758 68.7013 78.5091 69.192C79.0531 69.672 79.7091 69.912 80.4771 69.912C81.1065 69.912 81.6291 69.768 82.0451 69.48C82.4718 69.1813 82.7705 68.7867 82.9411 68.296H84.5091C84.2745 69.1387 83.8051 69.8267 83.1011 70.36C82.3971 70.8827 81.5225 71.144 80.4771 71.144C79.6451 71.144 78.8985 70.9573 78.2371 70.584C77.5865 70.2107 77.0745 69.6827 76.7011 69C76.3278 68.3067 76.1411 67.5067 76.1411 66.6C76.1411 65.6933 76.3225 64.8987 76.6851 64.216C77.0478 63.5333 77.5545 63.0107 78.2051 62.648C78.8665 62.2747 79.6238 62.088 80.4771 62.088C81.3091 62.088 82.0451 62.2693 82.6851 62.632C83.3251 62.9947 83.8158 63.496 84.1571 64.136C84.5091 64.7653 84.6851 65.48 84.6851 66.28ZM83.1811 65.976C83.1811 65.4213 83.0585 64.9467 82.8131 64.552C82.5678 64.1467 82.2318 63.8427 81.8051 63.64C81.3891 63.4267 80.9251 63.32 80.4131 63.32C79.6771 63.32 79.0478 63.5547 78.5251 64.024C78.0131 64.4933 77.7198 65.144 77.6451 65.976H83.1811ZM89.711 71.144C89.039 71.144 88.4363 71.032 87.903 70.808C87.3697 70.5733 86.9483 70.2533 86.639 69.848C86.3297 69.432 86.159 68.9573 86.127 68.424H87.631C87.6737 68.8613 87.8763 69.2187 88.239 69.496C88.6123 69.7733 89.0977 69.912 89.695 69.912C90.2497 69.912 90.687 69.7893 91.007 69.544C91.327 69.2987 91.487 68.9893 91.487 68.616C91.487 68.232 91.3163 67.9493 90.975 67.768C90.6337 67.576 90.1057 67.3893 89.391 67.208C88.7403 67.0373 88.207 66.8667 87.791 66.696C87.3857 66.5147 87.0337 66.2533 86.735 65.912C86.447 65.56 86.303 65.1013 86.303 64.536C86.303 64.088 86.4363 63.6773 86.703 63.304C86.9697 62.9307 87.3483 62.6373 87.839 62.424C88.3297 62.2 88.8897 62.088 89.519 62.088C90.4897 62.088 91.2737 62.3333 91.871 62.824C92.4683 63.3147 92.7883 63.9867 92.831 64.84H91.375C91.343 64.3813 91.1563 64.0133 90.815 63.736C90.4843 63.4587 90.0363 63.32 89.471 63.32C88.9483 63.32 88.5323 63.432 88.223 63.656C87.9137 63.88 87.759 64.1733 87.759 64.536C87.759 64.824 87.8497 65.064 88.031 65.256C88.223 65.4373 88.4577 65.5867 88.735 65.704C89.023 65.8107 89.4177 65.9333 89.919 66.072C90.5483 66.2427 91.0603 66.4133 91.455 66.584C91.8497 66.744 92.1857 66.9893 92.463 67.32C92.751 67.6507 92.9003 68.0827 92.911 68.616C92.911 69.096 92.7777 69.528 92.511 69.912C92.2443 70.296 91.8657 70.6 91.375 70.824C90.895 71.0373 90.3403 71.144 89.711 71.144ZM96.4704 68.984L94.6784 73.288H93.7024L94.8704 68.984H96.4704ZM101.86 65.416C101.86 64.328 102.105 63.352 102.596 62.488C103.087 61.6133 103.753 60.9307 104.596 60.44C105.449 59.9493 106.393 59.704 107.428 59.704C108.644 59.704 109.705 59.9973 110.612 60.584C111.519 61.1707 112.18 62.0027 112.596 63.08H110.852C110.543 62.408 110.095 61.8907 109.508 61.528C108.932 61.1653 108.239 60.984 107.428 60.984C106.649 60.984 105.951 61.1653 105.332 61.528C104.713 61.8907 104.228 62.408 103.876 63.08C103.524 63.7413 103.348 64.52 103.348 65.416C103.348 66.3013 103.524 67.08 103.876 67.752C104.228 68.4133 104.713 68.9253 105.332 69.288C105.951 69.6507 106.649 69.832 107.428 69.832C108.239 69.832 108.932 69.656 109.508 69.304C110.095 68.9413 110.543 68.424 110.852 67.752H112.596C112.18 68.8187 111.519 69.6453 110.612 70.232C109.705 70.808 108.644 71.096 107.428 71.096C106.393 71.096 105.449 70.856 104.596 70.376C103.753 69.8853 103.087 69.208 102.596 68.344C102.105 67.48 101.86 66.504 101.86 65.416ZM121.355 68.52H116.491L115.595 71H114.059L118.091 59.912H119.771L123.787 71H122.251L121.355 68.52ZM120.939 67.336L118.923 61.704L116.907 67.336H120.939Z" fill="#44566C"/>
<path d="M9.774 32.126C9.774 33.17 9.414 34.04 8.694 34.736C7.986 35.42 6.9 35.762 5.436 35.762H3.024V41H1.386V28.454H5.436C6.852 28.454 7.926 28.796 8.658 29.48C9.402 30.164 9.774 31.046 9.774 32.126ZM5.436 34.412C6.348 34.412 7.02 34.214 7.452 33.818C7.884 33.422 8.1 32.858 8.1 32.126C8.1 30.578 7.212 29.804 5.436 29.804H3.024V34.412H5.436ZM16.7058 30.956C17.4498 30.956 18.1218 31.118 18.7218 31.442C19.3218 31.754 19.7898 32.228 20.1258 32.864C20.4738 33.5 20.6478 34.274 20.6478 35.186V41H19.0278V35.42C19.0278 34.436 18.7818 33.686 18.2898 33.17C17.7978 32.642 17.1258 32.378 16.2738 32.378C15.4098 32.378 14.7198 32.648 14.2038 33.188C13.6998 33.728 13.4478 34.514 13.4478 35.546V41H11.8098V27.68H13.4478V32.54C13.7718 32.036 14.2158 31.646 14.7798 31.37C15.3558 31.094 15.9978 30.956 16.7058 30.956ZM23.8455 41.108C23.5335 41.108 23.2695 41 23.0535 40.784C22.8375 40.568 22.7295 40.304 22.7295 39.992C22.7295 39.68 22.8375 39.416 23.0535 39.2C23.2695 38.984 23.5335 38.876 23.8455 38.876C24.1455 38.876 24.3975 38.984 24.6015 39.2C24.8175 39.416 24.9255 39.68 24.9255 39.992C24.9255 40.304 24.8175 40.568 24.6015 40.784C24.3975 41 24.1455 41.108 23.8455 41.108ZM31.0088 28.454C32.3768 28.454 33.5588 28.712 34.5548 29.228C35.5628 29.732 36.3308 30.458 36.8588 31.406C37.3988 32.354 37.6688 33.47 37.6688 34.754C37.6688 36.038 37.3988 37.154 36.8588 38.102C36.3308 39.038 35.5628 39.758 34.5548 40.262C33.5588 40.754 32.3768 41 31.0088 41H27.1028V28.454H31.0088ZM31.0088 39.65C32.6288 39.65 33.8648 39.224 34.7168 38.372C35.5688 37.508 35.9948 36.302 35.9948 34.754C35.9948 33.194 35.5628 31.976 34.6988 31.1C33.8468 30.224 32.6168 29.786 31.0088 29.786H28.7408V39.65H31.0088ZM45.4742 29.534C45.1622 29.534 44.8982 29.426 44.6822 29.21C44.4662 28.994 44.3582 28.73 44.3582 28.418C44.3582 28.106 44.4662 27.842 44.6822 27.626C44.8982 27.41 45.1622 27.302 45.4742 27.302C45.7742 27.302 46.0262 27.41 46.2302 27.626C46.4462 27.842 46.5542 28.106 46.5542 28.418C46.5542 28.73 46.4462 28.994 46.2302 29.21C46.0262 29.426 45.7742 29.534 45.4742 29.534ZM46.2662 31.136V41H44.6282V31.136H46.2662ZM53.8639 30.956C55.0639 30.956 56.0359 31.322 56.7799 32.054C57.5239 32.774 57.8959 33.818 57.8959 35.186V41H56.2759V35.42C56.2759 34.436 56.0299 33.686 55.5379 33.17C55.0459 32.642 54.3739 32.378 53.5219 32.378C52.6579 32.378 51.9679 32.648 51.4519 33.188C50.9479 33.728 50.6959 34.514 50.6959 35.546V41H49.0579V31.136H50.6959V32.54C51.0199 32.036 51.4579 31.646 52.0099 31.37C52.5739 31.094 53.1919 30.956 53.8639 30.956ZM75.0364 28.454V41H73.3984V35.312H67.0084V41H65.3704V28.454H67.0084V33.962H73.3984V28.454H75.0364ZM82.1353 41.162C81.2113 41.162 80.3713 40.952 79.6153 40.532C78.8713 40.112 78.2833 39.518 77.8513 38.75C77.4313 37.97 77.2213 37.07 77.2213 36.05C77.2213 35.042 77.4373 34.154 77.8693 33.386C78.3133 32.606 78.9133 32.012 79.6693 31.604C80.4253 31.184 81.2713 30.974 82.2073 30.974C83.1433 30.974 83.9893 31.184 84.7453 31.604C85.5013 32.012 86.0953 32.6 86.5273 33.368C86.9713 34.136 87.1933 35.03 87.1933 36.05C87.1933 37.07 86.9653 37.97 86.5093 38.75C86.0653 39.518 85.4593 40.112 84.6913 40.532C83.9233 40.952 83.0713 41.162 82.1353 41.162ZM82.1353 39.722C82.7233 39.722 83.2753 39.584 83.7913 39.308C84.3073 39.032 84.7213 38.618 85.0333 38.066C85.3573 37.514 85.5193 36.842 85.5193 36.05C85.5193 35.258 85.3633 34.586 85.0513 34.034C84.7393 33.482 84.3313 33.074 83.8273 32.81C83.3233 32.534 82.7773 32.396 82.1893 32.396C81.5893 32.396 81.0373 32.534 80.5333 32.81C80.0413 33.074 79.6453 33.482 79.3453 34.034C79.0453 34.586 78.8953 35.258 78.8953 36.05C78.8953 36.854 79.0393 37.532 79.3273 38.084C79.6273 38.636 80.0233 39.05 80.5153 39.326C81.0073 39.59 81.5473 39.722 82.1353 39.722ZM90.9849 32.738C91.2729 32.174 91.6809 31.736 92.2089 31.424C92.7489 31.112 93.4029 30.956 94.1709 30.956V32.648H93.7389C91.9029 32.648 90.9849 33.644 90.9849 35.636V41H89.3469V31.136H90.9849V32.738ZM97.6998 32.738C97.9878 32.174 98.3958 31.736 98.9238 31.424C99.4638 31.112 100.118 30.956 100.886 30.956V32.648H100.454C98.6178 32.648 97.6998 33.644 97.6998 35.636V41H96.0618V31.136H97.6998V32.738ZM103.623 29.534C103.311 29.534 103.047 29.426 102.831 29.21C102.615 28.994 102.507 28.73 102.507 28.418C102.507 28.106 102.615 27.842 102.831 27.626C103.047 27.41 103.311 27.302 103.623 27.302C103.923 27.302 104.175 27.41 104.379 27.626C104.595 27.842 104.703 28.106 104.703 28.418C104.703 28.73 104.595 28.994 104.379 29.21C104.175 29.426 103.923 29.534 103.623 29.534ZM104.415 31.136V41H102.777V31.136H104.415ZM108.844 32.972C109.18 32.384 109.672 31.904 110.32 31.532C110.968 31.16 111.706 30.974 112.534 30.974C113.422 30.974 114.22 31.184 114.928 31.604C115.636 32.024 116.194 32.618 116.602 33.386C117.01 34.142 117.214 35.024 117.214 36.032C117.214 37.028 117.01 37.916 116.602 38.696C116.194 39.476 115.63 40.082 114.91 40.514C114.202 40.946 113.41 41.162 112.534 41.162C111.682 41.162 110.932 40.976 110.284 40.604C109.648 40.232 109.168 39.758 108.844 39.182V41H107.206V27.68H108.844V32.972ZM115.54 36.032C115.54 35.288 115.39 34.64 115.09 34.088C114.79 33.536 114.382 33.116 113.866 32.828C113.362 32.54 112.804 32.396 112.192 32.396C111.592 32.396 111.034 32.546 110.518 32.846C110.014 33.134 109.606 33.56 109.294 34.124C108.994 34.676 108.844 35.318 108.844 36.05C108.844 36.794 108.994 37.448 109.294 38.012C109.606 38.564 110.014 38.99 110.518 39.29C111.034 39.578 111.592 39.722 112.192 39.722C112.804 39.722 113.362 39.578 113.866 39.29C114.382 38.99 114.79 38.564 115.09 38.012C115.39 37.448 115.54 36.788 115.54 36.032ZM121.008 27.68V41H119.37V27.68H121.008ZM132.8 35.69C132.8 36.002 132.782 36.332 132.746 36.68H124.862C124.922 37.652 125.252 38.414 125.852 38.966C126.464 39.506 127.202 39.776 128.066 39.776C128.774 39.776 129.362 39.614 129.83 39.29C130.31 38.954 130.646 38.51 130.838 37.958H132.602C132.338 38.906 131.81 39.68 131.018 40.28C130.226 40.868 129.242 41.162 128.066 41.162C127.13 41.162 126.29 40.952 125.546 40.532C124.814 40.112 124.238 39.518 123.818 38.75C123.398 37.97 123.188 37.07 123.188 36.05C123.188 35.03 123.392 34.136 123.8 33.368C124.208 32.6 124.778 32.012 125.51 31.604C126.254 31.184 127.106 30.974 128.066 30.974C129.002 30.974 129.83 31.178 130.55 31.586C131.27 31.994 131.822 32.558 132.206 33.278C132.602 33.986 132.8 34.79 132.8 35.69ZM131.108 35.348C131.108 34.724 130.97 34.19 130.694 33.746C130.418 33.29 130.04 32.948 129.56 32.72C129.092 32.48 128.57 32.36 127.994 32.36C127.166 32.36 126.458 32.624 125.87 33.152C125.294 33.68 124.964 34.412 124.88 35.348H131.108ZM139.768 30.956C140.968 30.956 141.94 31.322 142.684 32.054C143.428 32.774 143.8 33.818 143.8 35.186V41H142.18V35.42C142.18 34.436 141.934 33.686 141.442 33.17C140.95 32.642 140.278 32.378 139.426 32.378C138.562 32.378 137.872 32.648 137.356 33.188C136.852 33.728 136.6 34.514 136.6 35.546V41H134.962V31.136H136.6V32.54C136.924 32.036 137.362 31.646 137.914 31.37C138.478 31.094 139.096 30.956 139.768 30.956ZM149.968 41.162C149.212 41.162 148.534 41.036 147.934 40.784C147.334 40.52 146.86 40.16 146.512 39.704C146.164 39.236 145.972 38.702 145.936 38.102H147.628C147.676 38.594 147.904 38.996 148.312 39.308C148.732 39.62 149.278 39.776 149.95 39.776C150.574 39.776 151.066 39.638 151.426 39.362C151.786 39.086 151.966 38.738 151.966 38.318C151.966 37.886 151.774 37.568 151.39 37.364C151.006 37.148 150.412 36.938 149.608 36.734C148.876 36.542 148.276 36.35 147.808 36.158C147.352 35.954 146.956 35.66 146.62 35.276C146.296 34.88 146.134 34.364 146.134 33.728C146.134 33.224 146.284 32.762 146.584 32.342C146.884 31.922 147.31 31.592 147.862 31.352C148.414 31.1 149.044 30.974 149.752 30.974C150.844 30.974 151.726 31.25 152.398 31.802C153.07 32.354 153.43 33.11 153.478 34.07H151.84C151.804 33.554 151.594 33.14 151.21 32.828C150.838 32.516 150.334 32.36 149.698 32.36C149.11 32.36 148.642 32.486 148.294 32.738C147.946 32.99 147.772 33.32 147.772 33.728C147.772 34.052 147.874 34.322 148.078 34.538C148.294 34.742 148.558 34.91 148.87 35.042C149.194 35.162 149.638 35.3 150.202 35.456C150.91 35.648 151.486 35.84 151.93 36.032C152.374 36.212 152.752 36.488 153.064 36.86C153.388 37.232 153.556 37.718 153.568 38.318C153.568 38.858 153.418 39.344 153.118 39.776C152.818 40.208 152.392 40.55 151.84 40.802C151.3 41.042 150.676 41.162 149.968 41.162ZM164.88 35.69C164.88 36.002 164.862 36.332 164.826 36.68H156.942C157.002 37.652 157.332 38.414 157.932 38.966C158.544 39.506 159.282 39.776 160.146 39.776C160.854 39.776 161.442 39.614 161.91 39.29C162.39 38.954 162.726 38.51 162.918 37.958H164.682C164.418 38.906 163.89 39.68 163.098 40.28C162.306 40.868 161.322 41.162 160.146 41.162C159.21 41.162 158.37 40.952 157.626 40.532C156.894 40.112 156.318 39.518 155.898 38.75C155.478 37.97 155.268 37.07 155.268 36.05C155.268 35.03 155.472 34.136 155.88 33.368C156.288 32.6 156.858 32.012 157.59 31.604C158.334 31.184 159.186 30.974 160.146 30.974C161.082 30.974 161.91 31.178 162.63 31.586C163.35 31.994 163.902 32.558 164.286 33.278C164.682 33.986 164.88 34.79 164.88 35.69ZM163.188 35.348C163.188 34.724 163.05 34.19 162.774 33.746C162.498 33.29 162.12 32.948 161.64 32.72C161.172 32.48 160.65 32.36 160.074 32.36C159.246 32.36 158.538 32.624 157.95 33.152C157.374 33.68 157.044 34.412 156.96 35.348H163.188ZM170.534 41.162C169.778 41.162 169.1 41.036 168.5 40.784C167.9 40.52 167.426 40.16 167.078 39.704C166.73 39.236 166.538 38.702 166.502 38.102H168.194C168.242 38.594 168.47 38.996 168.878 39.308C169.298 39.62 169.844 39.776 170.516 39.776C171.14 39.776 171.632 39.638 171.992 39.362C172.352 39.086 172.532 38.738 172.532 38.318C172.532 37.886 172.34 37.568 171.956 37.364C171.572 37.148 170.978 36.938 170.174 36.734C169.442 36.542 168.842 36.35 168.374 36.158C167.918 35.954 167.522 35.66 167.186 35.276C166.862 34.88 166.7 34.364 166.7 33.728C166.7 33.224 166.85 32.762 167.15 32.342C167.45 31.922 167.876 31.592 168.428 31.352C168.98 31.1 169.61 30.974 170.318 30.974C171.41 30.974 172.292 31.25 172.964 31.802C173.636 32.354 173.996 33.11 174.044 34.07H172.406C172.37 33.554 172.16 33.14 171.776 32.828C171.404 32.516 170.9 32.36 170.264 32.36C169.676 32.36 169.208 32.486 168.86 32.738C168.512 32.99 168.338 33.32 168.338 33.728C168.338 34.052 168.44 34.322 168.644 34.538C168.86 34.742 169.124 34.91 169.436 35.042C169.76 35.162 170.204 35.3 170.768 35.456C171.476 35.648 172.052 35.84 172.496 36.032C172.94 36.212 173.318 36.488 173.63 36.86C173.954 37.232 174.122 37.718 174.134 38.318C174.134 38.858 173.984 39.344 173.684 39.776C173.384 40.208 172.958 40.55 172.406 40.802C171.866 41.042 171.242 41.162 170.534 41.162ZM179.939 41.162C179.183 41.162 178.505 41.036 177.905 40.784C177.305 40.52 176.831 40.16 176.483 39.704C176.135 39.236 175.943 38.702 175.907 38.102H177.599C177.647 38.594 177.875 38.996 178.283 39.308C178.703 39.62 179.249 39.776 179.921 39.776C180.545 39.776 181.037 39.638 181.397 39.362C181.757 39.086 181.937 38.738 181.937 38.318C181.937 37.886 181.745 37.568 181.361 37.364C180.977 37.148 180.383 36.938 179.579 36.734C178.847 36.542 178.247 36.35 177.779 36.158C177.323 35.954 176.927 35.66 176.591 35.276C176.267 34.88 176.105 34.364 176.105 33.728C176.105 33.224 176.255 32.762 176.555 32.342C176.855 31.922 177.281 31.592 177.833 31.352C178.385 31.1 179.015 30.974 179.723 30.974C180.815 30.974 181.697 31.25 182.369 31.802C183.041 32.354 183.401 33.11 183.449 34.07H181.811C181.775 33.554 181.565 33.14 181.181 32.828C180.809 32.516 180.305 32.36 179.669 32.36C179.081 32.36 178.613 32.486 178.265 32.738C177.917 32.99 177.743 33.32 177.743 33.728C177.743 34.052 177.845 34.322 178.049 34.538C178.265 34.742 178.529 34.91 178.841 35.042C179.165 35.162 179.609 35.3 180.173 35.456C180.881 35.648 181.457 35.84 181.901 36.032C182.345 36.212 182.723 36.488 183.035 36.86C183.359 37.232 183.527 37.718 183.539 38.318C183.539 38.858 183.389 39.344 183.089 39.776C182.789 40.208 182.363 40.55 181.811 40.802C181.271 41.042 180.647 41.162 179.939 41.162ZM196.576 34.52V35.752H190.192V34.52H196.576Z" fill="#0F172A"/>
</svg>
